<svg width="11" height="8" viewBox="0 0 11 8" fill="none" xmlns="http://www.w3.org/2000/svg">
<path d="M6.2297 7.14645C6.03444 7.34171 6.03444 7.65829 6.2297 7.85355C6.42496 8.04882 6.74154 8.04882 6.93681 7.85355L6.2297 7.14645ZM10.0833 4L10.4368 4.35355L10.7904 4L10.4368 3.64645L10.0833 4ZM6.93681 0.146446C6.74154 -0.048816 6.42496 -0.048816 6.2297 0.146446C6.03444 0.341708 6.03444 0.658291 6.2297 0.853553L6.93681 0.146446ZM1.33325 3.5C1.05711 3.5 0.833252 3.72386 0.833252 4C0.833252 4.27614 1.05711 4.5 1.33325 4.5L1.33325 3.5ZM6.93681 7.85355L10.4368 4.35355L9.7297 3.64645L6.2297 7.14645L6.93681 7.85355ZM10.4368 3.64645L6.93681 0.146446L6.2297 0.853553L9.7297 4.35355L10.4368 3.64645ZM10.0833 3.5L1.33325 3.5L1.33325 4.5L10.0833 4.5L10.0833 3.5Z" fill="#FCAF17"/>
</svg>
