<svg width="46" height="46" viewBox="0 0 46 46" fill="none" xmlns="http://www.w3.org/2000/svg">
<rect width="46" height="46" rx="16" fill="#11006F"/>
<path d="M18 10H17C13.6863 10 11 12.6863 11 16V17" stroke="white" stroke-width="1.75" stroke-linecap="round"/>
<path d="M21.6831 25.1008H18.4785L17.9279 26.6646H16.6174L19.3595 19H20.8131L23.5552 26.6646H22.2337L21.6831 25.1008ZM21.3307 24.0767L20.0863 20.5197L18.8309 24.0767H21.3307Z" fill="white"/>
<path d="M28.7229 26.6646L26.9609 23.6032H26.0029V26.6646H24.7475V19.011H27.3904C27.9777 19.011 28.4733 19.1138 28.8771 19.3194C29.2882 19.5249 29.5929 19.8002 29.7911 20.1453C29.9967 20.4903 30.0995 20.8758 30.0995 21.3016C30.0995 21.8008 29.9526 22.256 29.659 22.6671C29.3726 23.0709 28.9285 23.3462 28.3265 23.493L30.2206 26.6646H28.7229ZM26.0029 22.601H27.3904C27.8603 22.601 28.2127 22.4836 28.4476 22.2486C28.6899 22.0137 28.811 21.698 28.811 21.3016C28.811 20.9051 28.6935 20.5968 28.4586 20.3765C28.2237 20.149 27.8676 20.0352 27.3904 20.0352H26.0029V22.601Z" fill="white"/>
<path d="M29 36L30 36C33.3137 36 36 33.3137 36 30L36 29" stroke="white" stroke-width="1.75" stroke-linecap="round"/>
<path d="M36 17L36 16C36 12.6863 33.3137 10 30 10L29 10" stroke="white" stroke-width="1.75" stroke-linecap="round"/>
<path d="M11 29L11 30C11 33.3137 13.6863 36 17 36L18 36" stroke="white" stroke-width="1.75" stroke-linecap="round"/>
</svg>
