<svg width="16" height="16" viewBox="0 0 16 16" fill="none" xmlns="http://www.w3.org/2000/svg">
<mask id="mask0_10407_20699" style="mask-type:alpha" maskUnits="userSpaceOnUse" x="0" y="0" width="16" height="16">
<rect width="16" height="16" fill="#EE4D2D"/>
</mask>
<g mask="url(#mask0_10407_20699)">
<path d="M8.31312 11.6464C8.11786 11.8417 8.11786 12.1583 8.31312 12.3536C8.50838 12.5488 8.82496 12.5488 9.02023 12.3536L8.31312 11.6464ZM12.6667 8L13.0202 8.35355L13.3738 8L13.0202 7.64645L12.6667 8ZM9.02023 3.64645C8.82496 3.45118 8.50838 3.45118 8.31312 3.64645C8.11786 3.84171 8.11786 4.15829 8.31312 4.35355L9.02023 3.64645ZM2.66667 7.5C2.39053 7.5 2.16667 7.72386 2.16667 8C2.16667 8.27614 2.39053 8.5 2.66667 8.5L2.66667 7.5ZM9.02023 12.3536L13.0202 8.35355L12.3131 7.64645L8.31312 11.6464L9.02023 12.3536ZM13.0202 7.64645L9.02023 3.64645L8.31312 4.35355L12.3131 8.35355L13.0202 7.64645ZM12.6667 7.5L2.66667 7.5L2.66667 8.5L12.6667 8.5L12.6667 7.5Z" fill="#11006F"/>
</g>
</svg>
