<svg width="24" height="24" viewBox="0 0 24 24" fill="none" xmlns="http://www.w3.org/2000/svg">
<path d="M15.419 15.2892C17.5984 11.8695 17.3244 12.2961 17.3872 12.207C18.1806 11.0879 18.6 9.77069 18.6 8.39781C18.6 4.75701 15.6456 1.75781 12 1.75781C8.36632 1.75781 5.4 4.75109 5.4 8.39781C5.4 9.76981 5.82816 11.1215 6.6476 12.2557L8.58088 15.2893C6.51388 15.6069 3 16.5535 3 18.6378C3 19.3976 3.49592 20.4804 5.85848 21.3242C7.50816 21.9133 9.68924 22.2378 12 22.2378C16.321 22.2378 21 21.0189 21 18.6378C21 16.5531 17.4902 15.6075 15.419 15.2892ZM7.64996 11.5956C7.64336 11.5853 7.63648 11.5752 7.62928 11.5653C6.9474 10.6272 6.6 9.51545 6.6 8.39781C6.6 5.39709 9.01624 2.95781 12 2.95781C14.9776 2.95781 17.4 5.39817 17.4 8.39781C17.4 9.51725 17.0592 10.5913 16.4142 11.5047C16.3564 11.5809 16.6579 11.1124 12 18.4214L7.64996 11.5956ZM12 21.0378C7.28024 21.0378 4.2 19.6505 4.2 18.6378C4.2 17.9572 5.78272 16.838 9.28992 16.4018L11.494 19.8603C11.6042 20.0332 11.795 20.1378 12 20.1378C12.205 20.1378 12.3958 20.0331 12.5059 19.8603L14.71 16.4018C18.2172 16.838 19.8 17.9572 19.8 18.6378C19.8 19.6419 16.7475 21.0378 12 21.0378Z" fill="#11006F"/>
<path d="M12 4.26562C10.0615 4.26562 8.48438 5.84273 8.48438 7.78125C8.48438 9.71977 10.0615 11.2969 12 11.2969C13.9385 11.2969 15.5156 9.71977 15.5156 7.78125C15.5156 5.84273 13.9385 4.26562 12 4.26562ZM12 9.89062C10.8369 9.89062 9.89062 8.94436 9.89062 7.78125C9.89062 6.61814 10.8369 5.67188 12 5.67188C13.1631 5.67188 14.1094 6.61814 14.1094 7.78125C14.1094 8.94436 13.1631 9.89062 12 9.89062Z" fill="#11006F"/>
</svg>
