<svg width="23" height="23" viewBox="0 0 23 23" fill="none" xmlns="http://www.w3.org/2000/svg">
<path d="M5.25 20.25C5.25 21.4905 6.2595 22.5 7.5 22.5C8.7405 22.5 9.75 21.4905 9.75 20.25C9.75 19.0095 8.7405 18 7.5 18C6.2595 18 5.25 19.0095 5.25 20.25ZM8.25 20.25C8.25 20.6632 7.91325 21 7.5 21C7.08675 21 6.75 20.6632 6.75 20.25C6.75 19.8368 7.08675 19.5 7.5 19.5C7.91325 19.5 8.25 19.8368 8.25 20.25Z" fill="#FCAF17"/>
<path d="M16.5 18C15.2595 18 14.25 19.0095 14.25 20.25C14.25 21.4905 15.2595 22.5 16.5 22.5C17.7405 22.5 18.75 21.4905 18.75 20.25C18.75 19.0095 17.7405 18 16.5 18ZM16.5 21C16.0868 21 15.75 20.6632 15.75 20.25C15.75 19.8368 16.0868 19.5 16.5 19.5C16.9132 19.5 17.25 19.8368 17.25 20.25C17.25 20.6632 16.9132 21 16.5 21Z" fill="#FCAF17"/>
<path d="M1.5 2.25H3.075C3.168 3.13575 4.203 12.9667 4.36275 14.4855C4.4835 15.6337 5.44575 16.5 6.60075 16.5H18.288C19.3418 16.5 20.2673 15.7515 20.4885 14.721L22.29 6.31425C22.3853 5.86875 22.2758 5.4105 21.9893 5.05725C21.7027 4.70325 21.2775 4.5 20.8223 4.5H4.82025L4.49625 1.422C4.45575 1.0395 4.134 0.75 3.75 0.75H1.5C1.086 0.75 0.75 1.086 0.75 1.5C0.75 1.914 1.086 2.25 1.5 2.25ZM20.8223 6L19.0215 14.4067C18.9473 14.7502 18.639 15 18.2873 15H6.60075C6.21525 15 5.895 14.7112 5.8545 14.3287L4.97775 6H20.8223Z" fill="#FCAF17"/>
<path d="M9.75 10.5C9.75 10.086 10.086 9.75 10.5 9.75H12V8.25C12 7.836 12.336 7.5 12.75 7.5C13.164 7.5 13.5 7.836 13.5 8.25V9.75H15C15.414 9.75 15.75 10.086 15.75 10.5C15.75 10.914 15.414 11.25 15 11.25H13.5V12.75C13.5 13.164 13.164 13.5 12.75 13.5C12.336 13.5 12 13.164 12 12.75V11.25H10.5C10.086 11.25 9.75 10.914 9.75 10.5Z" fill="#FCAF17"/>
</svg>
