<svg width="24" height="24" viewBox="0 0 24 24" fill="none" xmlns="http://www.w3.org/2000/svg">
<mask id="path-1-inside-1_10407_14090" fill="white">
<path fill-rule="evenodd" clip-rule="evenodd" d="M8.97211 12L18.1421 21.17L16.5849 22.7272L5.85773 12L16.5849 1.2728L18.1421 2.83002L8.97211 12Z"/>
</mask>
<path fill-rule="evenodd" clip-rule="evenodd" d="M8.97211 12L18.1421 21.17L16.5849 22.7272L5.85773 12L16.5849 1.2728L18.1421 2.83002L8.97211 12Z" fill="black"/>
<path d="M18.1421 21.17L18.3189 21.3468L18.4956 21.17L18.3189 20.9932L18.1421 21.17ZM8.97211 12L8.79533 11.8232L8.61856 12L8.79533 12.1768L8.97211 12ZM16.5849 22.7272L16.4081 22.904L16.5849 23.0808L16.7617 22.904L16.5849 22.7272ZM5.85773 12L5.68095 11.8232L5.50417 12L5.68095 12.1768L5.85773 12ZM16.5849 1.2728L16.7617 1.09603L16.5849 0.919247L16.4081 1.09603L16.5849 1.2728ZM18.1421 2.83002L18.3189 3.0068L18.4956 2.83002L18.3189 2.65325L18.1421 2.83002ZM18.3189 20.9932L9.14889 11.8232L8.79533 12.1768L17.9653 21.3468L18.3189 20.9932ZM16.7617 22.904L18.3189 21.3468L17.9653 20.9932L16.4081 22.5504L16.7617 22.904ZM5.68095 12.1768L16.4081 22.904L16.7617 22.5504L6.0345 11.8232L5.68095 12.1768ZM16.4081 1.09603L5.68095 11.8232L6.0345 12.1768L16.7617 1.44958L16.4081 1.09603ZM18.3189 2.65325L16.7617 1.09603L16.4081 1.44958L17.9653 3.00679L18.3189 2.65325ZM9.14889 12.1768L18.3189 3.0068L17.9653 2.65324L8.79533 11.8232L9.14889 12.1768Z" fill="white" mask="url(#path-1-inside-1_10407_14090)"/>
</svg>
