<svg width="30" height="32" viewBox="0 0 30 32" fill="none" xmlns="http://www.w3.org/2000/svg">
<path d="M15.5 1H18.5L20.5 8.5V15L17 12.5L13.5 15V8.5L15.5 1Z" fill="#FFBA17" stroke="#231F20" stroke-width="0.5"/>
<path d="M10 29.5C13.3137 29.5 16 26.8137 16 23.5C16 20.1863 13.3137 17.5 10 17.5C6.68629 17.5 4 20.1863 4 23.5C4 26.8137 6.68629 29.5 10 29.5Z" fill="#FFBA17" stroke="#231F20" stroke-width="0.5"/>
<path d="M29.416 8.22265L24.7129 1.16795C24.5761 0.962338 24.3906 0.793751 24.1729 0.67721C23.9551 0.560669 23.712 0.499791 23.465 0.500001H10.535C10.288 0.499766 10.0448 0.560632 9.82706 0.677175C9.6093 0.793717 9.42375 0.962317 9.28695 1.16795L4.584 8.22265C4.52926 8.30479 4.50003 8.40129 4.5 8.5V18.5H1C0.867392 18.5 0.740215 18.5527 0.646447 18.6464C0.552678 18.7402 0.5 18.8674 0.5 19C0.5 19.1326 0.552678 19.2598 0.646447 19.3535C0.740215 19.4473 0.867392 19.5 1 19.5H5.9289C6.00225 19.5144 6.07791 19.5118 6.15013 19.4926C6.22235 19.4733 6.28923 19.4379 6.3457 19.3889C7.22392 18.6078 8.3295 18.129 9.5 18.0228V19.5C9.5 19.6326 9.55268 19.7598 9.64645 19.8535C9.74021 19.9473 9.86739 20 10 20C10.1326 20 10.2598 19.9473 10.3536 19.8535C10.4473 19.7598 10.5 19.6326 10.5 19.5V18.0253C11.7794 18.1438 12.977 18.706 13.8855 19.6145C14.794 20.523 15.3562 21.7206 15.4746 23H14.5C14.3674 23 14.2402 23.0527 14.1464 23.1464C14.0527 23.2402 14 23.3674 14 23.5C14 23.6326 14.0527 23.7598 14.1464 23.8535C14.2402 23.9473 14.3674 24 14.5 24H15.4746C15.3562 25.2794 14.794 26.477 13.8855 27.3855C12.977 28.294 11.7794 28.8562 10.5 28.9746V27.5C10.5 27.3674 10.4473 27.2402 10.3536 27.1464C10.2598 27.0527 10.1326 27 10 27C9.86739 27 9.74021 27.0527 9.64645 27.1464C9.55268 27.2402 9.5 27.3674 9.5 27.5V28.97C8.71543 28.8982 7.95532 28.6593 7.27083 28.2692C6.58634 27.8791 5.99335 27.3469 5.53175 26.7084C5.47821 26.6353 5.40564 26.5783 5.32193 26.5436C5.23823 26.509 5.1466 26.4979 5.05705 26.5117C5.03829 26.5066 5.01924 26.5027 5 26.5H3C2.86739 26.5 2.74021 26.5527 2.64645 26.6464C2.55268 26.7402 2.5 26.8674 2.5 27C2.5 27.1326 2.55268 27.2598 2.64645 27.3535C2.74021 27.4473 2.86739 27.5 3 27.5H4.5V30C4.50044 30.3977 4.65861 30.779 4.93982 31.0602C5.22103 31.3414 5.60231 31.4996 6 31.5H28C28.3977 31.4996 28.779 31.3414 29.0602 31.0602C29.3414 30.779 29.4996 30.3977 29.5 30V8.5C29.5 8.40129 29.4707 8.30479 29.416 8.22265ZM23.881 1.72265L28.0658 8H20.8839L19.1507 1.5H23.465C23.5473 1.49993 23.6283 1.52023 23.7009 1.55907C23.7735 1.59792 23.8354 1.65412 23.881 1.72265ZM14 9H20V14.0283L17.2906 12.093C17.2057 12.0325 17.1042 12 17 12C16.8958 12 16.7943 12.0325 16.7094 12.093L14 14.0283V9ZM18.1161 1.5L19.8493 8H14.1508L15.8839 1.5H18.1161ZM10.1192 1.72265C10.1647 1.65412 10.2265 1.59792 10.2991 1.55907C10.3717 1.52023 10.4527 1.49993 10.535 1.5H14.8491L13.116 8H5.93425L10.1192 1.72265ZM10.5 17.0253C10.3344 17.0126 10.1687 17 10 17C9.8324 17 9.66595 17.01 9.5 17.0228V15.5C9.5 15.3674 9.55268 15.2402 9.64645 15.1464C9.74021 15.0527 9.86739 15 10 15C10.1326 15 10.2598 15.0527 10.3536 15.1464C10.4473 15.2402 10.5 15.3674 10.5 15.5V17.0253ZM28.5 30C28.4999 30.1326 28.4472 30.2597 28.3534 30.3534C28.2597 30.4472 28.1326 30.4999 28 30.5H6C5.86743 30.4999 5.74032 30.4472 5.64658 30.3534C5.55284 30.2597 5.50012 30.1326 5.5 30V28.1735C6.21912 28.8672 7.08862 29.3855 8.04081 29.6881C8.993 29.9907 10.0022 30.0695 10.9898 29.9183C11.9774 29.7672 12.9168 29.3901 13.7349 28.8165C14.553 28.2429 15.2276 27.4882 15.7063 26.6112C16.185 25.7343 16.4549 24.7586 16.4949 23.7603C16.5348 22.762 16.3439 21.7679 15.9369 20.8555C15.5298 19.943 14.9177 19.1368 14.1482 18.4996C13.3786 17.8624 12.4724 17.4114 11.5 17.1817V15.5C11.5 15.1022 11.342 14.7206 11.0607 14.4393C10.7794 14.158 10.3978 14 10 14C9.60218 14 9.22064 14.158 8.93934 14.4393C8.65804 14.7206 8.5 15.1022 8.5 15.5V17.1817C7.52911 17.4117 6.62446 17.8629 5.8566 18.5H5.5V9H13V15C13 15.0919 13.0253 15.182 13.0731 15.2604C13.1209 15.3388 13.1895 15.4026 13.2711 15.4446C13.3528 15.4867 13.4445 15.5054 13.5361 15.4988C13.6278 15.4921 13.7158 15.4604 13.7906 15.407L17 13.1145L20.2094 15.407C20.2842 15.4604 20.3722 15.4921 20.4639 15.4988C20.5555 15.5054 20.6472 15.4867 20.7289 15.4446C20.8105 15.4026 20.8791 15.3388 20.9269 15.2604C20.9747 15.182 21 15.0919 21 15V9H28.5V30ZM22 23.5C22 23.3674 22.0527 23.2402 22.1464 23.1464C22.2402 23.0527 22.3674 23 22.5 23H26.5C26.6326 23 26.7598 23.0527 26.8536 23.1464C26.9473 23.2402 27 23.3674 27 23.5C27 23.6326 26.9473 23.7598 26.8536 23.8535C26.7598 23.9473 26.6326 24 26.5 24H22.5C22.3674 24 22.2402 23.9473 22.1464 23.8535C22.0527 23.7598 22 23.6326 22 23.5ZM27 25.5C27 25.6326 26.9473 25.7598 26.8536 25.8535C26.7598 25.9473 26.6326 26 26.5 26H23.5C23.3674 26 23.2402 25.9473 23.1464 25.8535C23.0527 25.7598 23 25.6326 23 25.5C23 25.3674 23.0527 25.2402 23.1464 25.1464C23.2402 25.0527 23.3674 25 23.5 25H26.5C26.6326 25 26.7598 25.0527 26.8536 25.1464C26.9473 25.2402 27 25.3674 27 25.5ZM27 27.5C27 27.6326 26.9473 27.7598 26.8536 27.8535C26.7598 27.9473 26.6326 28 26.5 28H22.5C22.3674 28 22.2402 27.9473 22.1464 27.8535C22.0527 27.7598 22 27.6326 22 27.5C22 27.3674 22.0527 27.2402 22.1464 27.1464C22.2402 27.0527 22.3674 27 22.5 27H26.5C26.6326 27 26.7598 27.0527 26.8536 27.1464C26.9473 27.2402 27 27.3674 27 27.5ZM10 24C9.89859 23.9999 9.7996 23.969 9.71616 23.9114C9.63272 23.8538 9.56877 23.7722 9.53281 23.6773C9.49684 23.5825 9.49055 23.479 9.51478 23.3805C9.539 23.2821 9.5926 23.1933 9.66845 23.126L12.6611 20.4717C12.71 20.4266 12.7674 20.3917 12.83 20.369C12.8925 20.3464 12.9589 20.3364 13.0253 20.3397C13.0918 20.3431 13.1569 20.3596 13.2168 20.3884C13.2768 20.4173 13.3304 20.4577 13.3745 20.5075C13.4186 20.5573 13.4523 20.6154 13.4737 20.6784C13.4951 20.7414 13.5037 20.808 13.499 20.8743C13.4943 20.9407 13.4765 21.0054 13.4464 21.0648C13.4164 21.1241 13.3749 21.1769 13.3242 21.22L10.3315 23.874C10.2403 23.9554 10.1223 24.0002 10 24ZM5 21C5 21.1326 4.94732 21.2598 4.85355 21.3535C4.75979 21.4473 4.63261 21.5 4.5 21.5H1.5C1.36739 21.5 1.24021 21.4473 1.14645 21.3535C1.05268 21.2598 1 21.1326 1 21C1 20.8674 1.05268 20.7402 1.14645 20.6464C1.24021 20.5527 1.36739 20.5 1.5 20.5H4.5C4.63261 20.5 4.75979 20.5527 4.85355 20.6464C4.94732 20.7402 5 20.8674 5 21ZM5.5 23.5H4C3.86739 23.5 3.74021 23.4473 3.64645 23.3535C3.55268 23.2598 3.5 23.1326 3.5 23C3.5 22.8674 3.55268 22.7402 3.64645 22.6464C3.74021 22.5527 3.86739 22.5 4 22.5H5.5C5.63261 22.5 5.75979 22.5527 5.85355 22.6464C5.94732 22.7402 6 22.8674 6 23C6 23.1326 5.94732 23.2598 5.85355 23.3535C5.75979 23.4473 5.63261 23.5 5.5 23.5ZM1 22.5H2.5C2.63261 22.5 2.75979 22.5527 2.85355 22.6464C2.94732 22.7402 3 22.8674 3 23C3 23.1326 2.94732 23.2598 2.85355 23.3535C2.75979 23.4473 2.63261 23.5 2.5 23.5H1C0.867392 23.5 0.740215 23.4473 0.646447 23.3535C0.552678 23.2598 0.5 23.1326 0.5 23C0.5 22.8674 0.552678 22.7402 0.646447 22.6464C0.740215 22.5527 0.867392 22.5 1 22.5ZM2 27C2 27.1326 1.94732 27.2598 1.85355 27.3535C1.75979 27.4473 1.63261 27.5 1.5 27.5H1C0.867392 27.5 0.740215 27.4473 0.646447 27.3535C0.552678 27.2598 0.5 27.1326 0.5 27C0.5 26.8674 0.552678 26.7402 0.646447 26.6464C0.740215 26.5527 0.867392 26.5 1 26.5H1.5C1.63261 26.5 1.75979 26.5527 1.85355 26.6464C1.94732 26.7402 2 26.8674 2 27ZM5 24.5C5.13261 24.5 5.25979 24.5527 5.35355 24.6464C5.44732 24.7402 5.5 24.8674 5.5 25C5.5 25.1326 5.44732 25.2598 5.35355 25.3535C5.25979 25.4473 5.13261 25.5 5 25.5H1.5C1.36739 25.5 1.24021 25.4473 1.14645 25.3535C1.05268 25.2598 1 25.1326 1 25C1 24.8674 1.05268 24.7402 1.14645 24.6464C1.24021 24.5527 1.36739 24.5 1.5 24.5H5Z" fill="#231F20" stroke="#231F20" stroke-width="0.5"/>
</svg>
