<svg width="18" height="18" viewBox="0 0 18 18" fill="none" xmlns="http://www.w3.org/2000/svg">
<path d="M10.6596 7.20827C10.4526 6.99754 10.2231 6.81074 9.97537 6.65129C9.31916 6.226 8.55628 6.00001 7.77707 6.00001C6.69554 5.99797 5.65795 6.4329 4.89453 7.20827L1.19092 10.9597C0.428793 11.7326 0.000439121 12.7797 -0.000243297 13.8716C-0.00167637 16.1502 1.82215 17.9985 4.07345 18C5.15331 18.0038 6.18993 17.5709 6.95308 16.7976L10.0103 13.7033C10.0659 13.6476 10.0969 13.5715 10.0964 13.4924C10.0955 13.3296 9.96438 13.1985 9.80357 13.1994H9.68712C9.04838 13.2017 8.41533 13.0775 7.82367 12.834C7.71466 12.7886 7.58937 12.8142 7.50632 12.8988L5.30801 15.1267C4.62539 15.8176 3.51864 15.8176 2.83602 15.1267C2.1534 14.4358 2.1534 13.3156 2.83602 12.6247L6.55421 8.86444C7.23628 8.17496 8.34122 8.17496 9.0233 8.86444C9.48297 9.30231 10.2 9.30231 10.6596 8.86444C10.8574 8.66411 10.9773 8.3984 10.9974 8.11591C11.0187 7.77833 10.8956 7.44773 10.6596 7.20827Z" fill="#7A7A9D"/>
<path d="M16.8069 1.20844C15.2158 -0.402814 12.636 -0.402814 11.0448 1.20844L7.99211 4.29679C7.90829 4.38209 7.88411 4.51039 7.931 4.62096C7.97735 4.73185 8.08566 4.80303 8.20454 4.80071H8.3122C8.94986 4.79954 9.58155 4.92466 10.1718 5.16909C10.2807 5.2145 10.406 5.18888 10.489 5.10427L12.6803 2.88818C13.3626 2.19729 14.4687 2.19729 15.151 2.88818C15.8333 3.57907 15.8333 4.69922 15.151 5.39011L12.4213 8.15135L12.398 8.17787L11.4435 9.13857C10.7618 9.82805 9.6574 9.82805 8.97568 9.13857C8.51624 8.70072 7.7996 8.70072 7.3402 9.13857C7.14127 9.34043 7.02133 9.60845 7.00261 9.89297C6.98133 10.2305 7.10427 10.5611 7.3402 10.8006C7.67703 11.1432 8.07113 11.4225 8.50424 11.6258C8.56535 11.6552 8.62646 11.6788 8.68758 11.7053C8.74869 11.7318 8.8127 11.7525 8.87381 11.776C8.93492 11.7996 8.99894 11.8203 9.06005 11.8379L9.23176 11.8851C9.34815 11.9145 9.46458 11.9381 9.58387 11.9587C9.72758 11.9804 9.87232 11.9941 10.0175 12H10.2212H10.2386L10.4133 11.9794C10.4773 11.9764 10.5442 11.9617 10.6199 11.9617H10.7188L10.9196 11.9322L11.0128 11.9146L11.1815 11.8792H11.2136C11.9284 11.6974 12.5811 11.3226 13.1022 10.7947L16.8068 7.04332C18.398 5.43207 18.398 2.8197 16.8069 1.20844Z" fill="#7A7A9D"/>
</svg>
