<svg width="19" height="19" viewBox="0 0 19 19" fill="none" xmlns="http://www.w3.org/2000/svg">
<path d="M9.20482 1.15039C4.75702 1.15039 1.1506 4.75681 1.1506 9.20461C1.1506 13.6524 4.75702 17.2588 9.20482 17.2588C13.6526 17.2588 17.259 13.6524 17.259 9.20461C17.259 4.75681 13.6526 1.15039 9.20482 1.15039ZM9.20482 15.8925C5.51211 15.8925 2.51694 12.8973 2.51694 9.20461C2.51694 5.51189 5.51211 2.51673 9.20482 2.51673C12.8975 2.51673 15.8927 5.51189 15.8927 9.20461C15.8927 12.8973 12.8975 15.8925 9.20482 15.8925Z" fill="#7A7A9D"/>
<path d="M12.3456 11.4802L9.78191 9.62661V5.17703C9.78191 5.09792 9.71719 5.0332 9.63809 5.0332H8.77334C8.69424 5.0332 8.62952 5.09792 8.62952 5.17703V10.1282C8.62952 10.1749 8.65109 10.2181 8.68884 10.2451L11.6624 12.4132C11.7271 12.46 11.817 12.4456 11.8638 12.3827L12.378 11.6815C12.4247 11.615 12.4103 11.5251 12.3456 11.4802Z" fill="#7A7A9D"/>
</svg>
