<svg width="24" height="24" viewBox="0 0 24 24" fill="none" xmlns="http://www.w3.org/2000/svg">
<path d="M12 23.6484C18.4333 23.6484 23.6484 18.4333 23.6484 12C23.6484 5.56675 18.4333 0.351562 12 0.351562C5.56675 0.351562 0.351562 5.56675 0.351562 12C0.351562 18.4333 5.56675 23.6484 12 23.6484Z" fill="#F38300"/>
<path d="M18.0121 17.6364C11.5788 17.6364 6.36366 12.4213 6.36366 5.98799C6.36366 4.32955 6.71255 2.75329 7.3372 1.3252C3.2257 3.12379 0.351562 7.22526 0.351562 12.0001C0.351562 18.4333 5.56673 23.6485 12 23.6485C16.7748 23.6485 20.8763 20.7744 22.6749 16.6629C21.2468 17.2875 19.6705 17.6364 18.0121 17.6364Z" fill="#FFBA17"/>
<path d="M11.9998 20.6421C16.7728 20.6421 20.6421 16.7728 20.6421 11.9998C20.6421 7.22673 16.7728 3.35742 11.9998 3.35742C7.22673 3.35742 3.35742 7.22673 3.35742 11.9998C3.35742 16.7728 7.22673 20.6421 11.9998 20.6421Z" fill="#FFBA17"/>
<path d="M6.03524 8.08383C5.15662 9.41732 4.71084 11.0607 4.9071 12.8176C5.27226 16.0863 7.91385 18.7281 11.1825 19.0935C12.9396 19.29 14.5832 18.8442 15.9169 17.9654C16.1149 17.835 16.0461 17.5267 15.8121 17.4886C11.0484 16.7132 7.28751 12.9523 6.51205 8.18859C6.47394 7.95459 6.16569 7.88583 6.03524 8.08383Z" fill="#FFE17D"/>
<path d="M20.4853 3.51469C18.2188 1.24823 15.2053 0 12 0C8.79469 0 5.78123 1.24823 3.51469 3.51469C1.24823 5.78119 0 8.79469 0 12C0 15.2053 1.24823 18.2188 3.51469 20.4853C5.78123 22.7518 8.79469 24 12 24C15.2053 24 18.2188 22.7518 20.4853 20.4853C22.7518 18.2188 24 15.2053 24 12C24 8.79469 22.7518 5.78119 20.4853 3.51469ZM19.9881 19.9881C17.8544 22.1218 15.0175 23.2969 12 23.2969C8.98247 23.2969 6.14559 22.1218 4.01189 19.9881C1.87819 17.8544 0.703125 15.0175 0.703125 12C0.703125 8.98247 1.87819 6.14559 4.01189 4.01189C6.14559 1.87819 8.98247 0.703125 12 0.703125C15.0175 0.703125 17.8544 1.87819 19.9881 4.01189C22.1218 6.14559 23.2969 8.98247 23.2969 12C23.2969 15.0175 22.1218 17.8544 19.9881 19.9881Z" fill="black"/>
<path d="M12.0009 2.20605C12.1951 2.20605 12.3525 2.0487 12.3525 1.85449C12.3525 1.66029 12.1951 1.50293 12.0009 1.50293C9.19708 1.50293 6.56102 2.59479 4.57844 4.57741C2.59581 6.56004 1.50391 9.1961 1.50391 11.9999C1.50391 12.1941 1.66131 12.3515 1.85547 12.3515C2.04963 12.3515 2.20703 12.1941 2.20703 11.9999C2.20703 6.5996 6.60053 2.20605 12.0009 2.20605Z" fill="black"/>
<path d="M22.1454 11.6484C21.9513 11.6484 21.7939 11.8058 21.7939 12C21.7939 17.4003 17.4004 21.7939 12 21.7939C11.8058 21.7939 11.6484 21.9512 11.6484 22.1454C11.6484 22.3396 11.8058 22.497 12 22.497C14.8038 22.497 17.4399 21.4051 19.4225 19.4225C21.4051 17.4399 22.497 14.8039 22.497 12C22.497 11.8058 22.3396 11.6484 22.1454 11.6484Z" fill="black"/>
<path d="M3.71772 11.6611C3.80172 9.57587 4.66131 7.6141 6.13815 6.13731C7.615 4.66046 9.57671 3.80087 11.662 3.71682C13.7353 3.63381 15.7479 4.32015 17.3296 5.65079C17.4782 5.7759 17.7 5.75673 17.8249 5.60809C17.9499 5.45949 17.9308 5.23777 17.7822 5.11276C16.066 3.66896 13.8824 2.92314 11.6337 3.01431C9.37136 3.10543 7.24309 4.03796 5.641 5.6401C4.0389 7.24224 3.10633 9.37051 3.0152 11.6329C2.92459 13.8816 3.66981 16.0652 5.11365 17.7814C5.18317 17.8641 5.28269 17.9066 5.38286 17.9066C5.46273 17.9066 5.54308 17.8795 5.60898 17.8241C5.75758 17.6991 5.7767 17.4773 5.65168 17.3288C4.321 15.747 3.63423 13.7342 3.71772 11.6611Z" fill="black"/>
<path d="M12.3675 20.9851C14.6298 20.8939 16.7581 19.9614 18.3602 18.3593C19.9624 16.7571 20.8949 14.6289 20.986 12.3665C21.0767 10.1178 20.3314 7.93418 18.8876 6.218C18.7626 6.0694 18.5409 6.05037 18.3923 6.17529C18.2437 6.30031 18.2245 6.52203 18.3496 6.67062C19.6802 8.25232 20.367 10.2651 20.2835 12.3382C20.1995 14.4235 19.3399 16.3852 17.863 17.862C16.3862 19.3389 14.4245 20.1985 12.3392 20.2825C10.2659 20.3666 8.25329 19.6792 6.67164 18.3485C6.52309 18.2235 6.30132 18.2426 6.17631 18.3912C6.05129 18.5398 6.07042 18.7616 6.21901 18.8866C7.84178 20.2518 9.88243 20.9924 12.0009 20.9924C12.1228 20.9925 12.2451 20.99 12.3675 20.9851Z" fill="black"/>
<path d="M14.2782 9.46349C14.2782 9.6577 14.4356 9.81505 14.6297 9.81505C14.8239 9.81505 14.9813 9.6577 14.9813 9.46349C14.9813 8.48559 14.202 7.64737 13.1025 7.30476V6.73926C13.1025 6.54505 12.9451 6.3877 12.7509 6.3877C12.5568 6.3877 12.3994 6.54505 12.3994 6.73926V7.16071C12.2685 7.14698 12.1351 7.1392 11.9994 7.1392C11.8637 7.1392 11.7304 7.14698 11.5995 7.16071V6.73926C11.5995 6.54505 11.442 6.3877 11.2479 6.3877C11.0537 6.3877 10.8963 6.54505 10.8963 6.73926V7.30476C9.79678 7.64741 9.01758 8.48559 9.01758 9.46349C9.01758 10.7823 9.82955 11.4545 10.8963 11.941V15.9541C10.1959 15.6772 9.7207 15.1455 9.7207 14.5362C9.7207 14.342 9.5633 14.1846 9.36914 14.1846C9.17498 14.1846 9.01758 14.342 9.01758 14.5362C9.01758 15.5141 9.79678 16.3523 10.8963 16.6949V17.2604C10.8963 17.4546 11.0537 17.612 11.2479 17.612C11.442 17.612 11.5995 17.4546 11.5995 17.2604V16.8389C11.7304 16.8527 11.8637 16.8605 11.9994 16.8605C12.1351 16.8605 12.2685 16.8527 12.3994 16.8389V17.2604C12.3994 17.4546 12.5568 17.612 12.7509 17.612C12.9451 17.612 13.1025 17.4546 13.1025 17.2604V16.6949C14.2021 16.3523 14.9813 15.5141 14.9813 14.5362C14.9813 13.2173 14.1693 12.5451 13.1025 12.0587V8.04557C13.8029 8.32241 14.2782 8.85412 14.2782 9.46349ZM9.7207 9.46349C9.7207 8.85412 10.1959 8.32246 10.8963 8.04557V11.1559C10.1158 10.7435 9.7207 10.2608 9.7207 9.46349ZM11.9994 16.1573C11.8629 16.1573 11.7294 16.1482 11.5995 16.1318V12.2283C11.6925 12.263 11.7866 12.2971 11.8812 12.3309C12.0645 12.3963 12.2369 12.4609 12.3993 12.5256V16.1318C12.2694 16.1482 12.1359 16.1573 11.9994 16.1573ZM14.2782 14.5362C14.2782 15.1455 13.803 15.6771 13.1025 15.9541V12.8437C13.8831 13.2561 14.2782 13.7388 14.2782 14.5362ZM12.3994 11.7713C12.3063 11.7366 12.2123 11.7025 12.1177 11.6687C11.9344 11.6033 11.762 11.5387 11.5995 11.4741V7.86787C11.7295 7.85141 11.863 7.84237 11.9995 7.84237C12.136 7.84237 12.2694 7.85141 12.3994 7.86787V11.7713H12.3994Z" fill="black"/>
</svg>
