<svg width="17" height="14" viewBox="0 0 17 14" fill="none" xmlns="http://www.w3.org/2000/svg">
<g opacity="0.7">
<path d="M8.16728 5.44531C6.83938 5.44531 5.71729 6.51398 5.71729 7.77865C5.71729 9.04331 6.83938 10.112 8.16728 10.112C9.49518 10.112 10.6173 9.04331 10.6173 7.77865C10.6173 6.51398 9.49518 5.44531 8.16728 5.44531Z" fill="white"/>
<path d="M14.7 2.33333H12.5881L10.3774 0.22789C10.3017 0.155523 10.2117 0.0981327 10.1126 0.059022C10.0135 0.0199112 9.90726 -0.000147349 9.8 8.14857e-07H6.53333C6.42607 -0.000147349 6.31983 0.0199112 6.22074 0.059022C6.12165 0.0981327 6.03166 0.155523 5.95595 0.22789L3.74523 2.33333H1.63333C0.73255 2.33333 0 3.031 0 3.88889V12.4444C0 13.3023 0.73255 14 1.63333 14H14.7C15.6008 14 16.3333 13.3023 16.3333 12.4444V3.88889C16.3333 3.031 15.6008 2.33333 14.7 2.33333ZM8.16667 11.6667C5.9535 11.6667 4.08333 9.88556 4.08333 7.77778C4.08333 5.67 5.9535 3.88889 8.16667 3.88889C10.3798 3.88889 12.25 5.67 12.25 7.77778C12.25 9.88556 10.3798 11.6667 8.16667 11.6667Z" fill="white"/>
</g>
</svg>
