<svg width="11" height="11" viewBox="0 0 11 11" fill="none" xmlns="http://www.w3.org/2000/svg">
<g clip-path="url(#clip0_10407_13010)">
<path d="M9.86332 0.269996C9.83113 0.243852 9.79407 0.224364 9.75429 0.212665C9.7145 0.200966 9.67279 0.19729 9.63157 0.201848C9.59036 0.206407 9.55046 0.219111 9.51419 0.239222C9.47793 0.259332 9.44602 0.286449 9.42032 0.318996L4.38832 6.652L2.74032 4.579C2.71463 4.54645 2.68272 4.51933 2.64645 4.49922C2.61019 4.47911 2.57029 4.46641 2.52907 4.46185C2.48785 4.45729 2.44614 4.46097 2.40636 4.47266C2.36657 4.48436 2.32951 4.50385 2.29732 4.53C2.23209 4.58341 2.1905 4.66033 2.18152 4.74416C2.17253 4.82799 2.19689 4.91198 2.24932 4.978L4.07232 7.272C4.09911 7.32005 4.13829 7.36004 4.18577 7.38783C4.23325 7.41561 4.28731 7.43017 4.34232 7.43C4.36018 7.42878 4.3779 7.4261 4.39532 7.422C4.4055 7.42496 4.41585 7.4273 4.42632 7.429C4.47654 7.42865 4.52598 7.41663 4.57076 7.3939C4.61553 7.37116 4.65441 7.33833 4.68432 7.298L9.91232 0.717996C9.96489 0.651955 9.98924 0.567817 9.98006 0.483907C9.97089 0.399997 9.92893 0.323112 9.86332 0.269996Z" fill="#FCAF17" stroke="#FCAF17" stroke-width="0.4"/>
<path d="M9.24123 3.43798C9.1996 3.43824 9.15843 3.4467 9.12007 3.46287C9.08171 3.47904 9.04691 3.50261 9.01766 3.53224C8.98841 3.56186 8.96528 3.59695 8.94959 3.63551C8.9339 3.67407 8.92596 3.71535 8.92623 3.75698V9.02598C8.9265 9.10997 8.89352 9.19066 8.8345 9.25043C8.77549 9.31019 8.69522 9.34419 8.61123 9.34498H1.14623C1.1046 9.34472 1.06343 9.33626 1.02507 9.32008C0.986708 9.30391 0.951909 9.28034 0.922658 9.25072C0.893408 9.2211 0.870278 9.186 0.85459 9.14744C0.838903 9.10888 0.830964 9.06761 0.831227 9.02598V1.48298C0.830964 1.44135 0.838903 1.40007 0.85459 1.36151C0.870278 1.32295 0.893408 1.28786 0.922658 1.25824C0.951909 1.22862 0.986708 1.20504 1.02507 1.18887C1.06343 1.1727 1.1046 1.16424 1.14623 1.16398H6.31423C6.39561 1.15942 6.47216 1.12387 6.52817 1.06464C6.58417 1.00541 6.61537 0.926991 6.61537 0.845478C6.61537 0.763964 6.58417 0.685543 6.52817 0.626314C6.47216 0.567084 6.39561 0.53154 6.31423 0.526978H1.14623C0.893914 0.5283 0.652446 0.629733 0.474877 0.80899C0.297308 0.988247 0.198164 1.23066 0.199227 1.48298V9.02598C0.198163 9.27812 0.29717 9.52039 0.474523 9.69961C0.651876 9.87884 0.893088 9.98039 1.14523 9.98198H8.61123C8.86337 9.98039 9.10458 9.87884 9.28193 9.69961C9.45928 9.52039 9.55829 9.27812 9.55723 9.02598V3.75598C9.55749 3.71435 9.54955 3.67307 9.53386 3.63451C9.51818 3.59595 9.49505 3.56086 9.4658 3.53124C9.43655 3.50162 9.40175 3.47804 9.36339 3.46187C9.32503 3.4457 9.28386 3.43724 9.24223 3.43698L9.24123 3.43798Z" fill="#11006F" stroke="#11006F" stroke-width="0.4"/>
</g>
<defs>
<clipPath id="clip0_10407_13010">
<rect width="10.211" height="10.182" fill="white"/>
</clipPath>
</defs>
</svg>
