<svg width="24" height="24" viewBox="0 0 24 24" fill="none" xmlns="http://www.w3.org/2000/svg">
<path d="M7.74859 3.23425C7.58757 3.08426 7.3692 3 7.14151 3C6.91382 3 6.69545 3.08426 6.53442 3.23425L4.56548 5.06881L3.45521 4.03432C3.29326 3.88858 3.07636 3.80794 2.85122 3.80976C2.62607 3.81158 2.41071 3.89572 2.2515 4.04406C2.0923 4.1924 2.00199 4.39307 2.00003 4.60284C1.99808 4.81262 2.08463 5.01472 2.24104 5.16561L3.95839 6.76575C4.11942 6.91574 4.33779 7 4.56548 7C4.79317 7 5.01154 6.91574 5.17256 6.76575L7.74859 4.36555C7.90957 4.21551 8 4.01205 8 3.7999C8 3.58775 7.90957 3.38428 7.74859 3.23425Z" fill="#363636"/>
<path d="M7.74859 10.2342C7.58757 10.0843 7.3692 10 7.14151 10C6.91382 10 6.69545 10.0843 6.53442 10.2342L4.56548 12.0688L3.45521 11.0343C3.29326 10.8886 3.07636 10.8079 2.85122 10.8098C2.62607 10.8116 2.41071 10.8957 2.2515 11.0441C2.0923 11.1924 2.00199 11.3931 2.00003 11.6028C1.99808 11.8126 2.08463 12.0147 2.24104 12.1656L3.95839 13.7658C4.11942 13.9157 4.33779 14 4.56548 14C4.79317 14 5.01154 13.9157 5.17256 13.7658L7.74859 11.3655C7.90957 11.2155 8 11.012 8 10.7999C8 10.5877 7.90957 10.3843 7.74859 10.2342Z" fill="#363636"/>
<path d="M7.74859 17.2342C7.58757 17.0843 7.3692 17 7.14151 17C6.91382 17 6.69545 17.0843 6.53442 17.2342L4.56548 19.0688L3.45521 18.0343C3.29326 17.8886 3.07636 17.8079 2.85122 17.8098C2.62607 17.8116 2.41071 17.8957 2.2515 18.0441C2.0923 18.1924 2.00199 18.3931 2.00003 18.6028C1.99808 18.8126 2.08463 19.0147 2.24104 19.1656L3.95839 20.7658C4.11942 20.9157 4.33779 21 4.56548 21C4.79317 21 5.01154 20.9157 5.17256 20.7658L7.74859 18.3655C7.90957 18.2155 8 18.012 8 17.7999C8 17.5877 7.90957 17.3843 7.74859 17.2342Z" fill="#363636"/>
<rect x="10" y="4" width="12" height="2" rx="1" fill="#363636"/>
<rect x="10" y="11" width="12" height="2" rx="1" fill="#363636"/>
<rect x="10" y="18" width="12" height="2" rx="1" fill="#363636"/>
</svg>
