<svg width="24" height="24" viewBox="0 0 24 24" fill="none" xmlns="http://www.w3.org/2000/svg">
<path fill-rule="evenodd" clip-rule="evenodd" d="M7.33753 11.7051C6.93521 11.7051 6.60906 11.3789 6.60906 10.9766L6.60906 6.31442C6.60906 3.33724 9.02254 0.923753 11.9997 0.923754C14.9769 0.923754 17.3904 3.33724 17.3904 6.31442L17.3904 10.9766C17.3904 11.3789 17.0642 11.7051 16.6619 11.7051C16.2596 11.7051 15.9335 11.3789 15.9335 10.9766L15.9335 6.31442C15.9335 4.14188 14.1723 2.38069 11.9997 2.38069C9.82719 2.38069 8.066 4.14188 8.066 6.31442L8.066 10.9766C8.066 11.3789 7.73985 11.7051 7.33753 11.7051Z" fill="#222222"/>
<path fill-rule="evenodd" clip-rule="evenodd" d="M6.91606 6.75H17.0838C18.0599 6.74998 18.8629 6.74996 19.5026 6.83303C20.1737 6.92018 20.7629 7.1089 21.251 7.55809C21.7392 8.00728 21.9762 8.57871 22.1188 9.24032C22.2547 9.87092 22.3214 10.6711 22.4024 11.6439L23.0094 18.9277C23.0553 19.4773 23.0958 19.9629 23.0743 20.3561C23.0511 20.7816 22.9516 21.2182 22.6169 21.582C22.2822 21.9457 21.8553 22.0811 21.4333 22.1396C21.0432 22.1936 20.5559 22.1936 20.0044 22.1935H3.99543C3.44392 22.1936 2.95659 22.1936 2.56658 22.1396C2.14449 22.0811 1.71761 21.9457 1.38292 21.582C1.04823 21.2182 0.948727 20.7816 0.925519 20.3561C0.904075 19.9629 0.944584 19.4773 0.99043 18.9277L1.59742 11.6439C1.67846 10.6711 1.74512 9.87092 1.88103 9.24032C2.02362 8.57871 2.26061 8.00728 2.74879 7.55809C3.23697 7.1089 3.8261 6.92018 4.49727 6.83303C5.13698 6.74996 5.93996 6.74998 6.91606 6.75ZM4.68488 8.27783C4.1707 8.3446 3.91624 8.46373 3.73529 8.63022C3.55435 8.79671 3.4145 9.0404 3.30526 9.54726C3.19162 10.0745 3.13141 10.7798 3.04523 11.814L2.44632 19.0009C2.39532 19.6129 2.36501 19.9965 2.38029 20.2767C2.3941 20.5299 2.44119 20.5806 2.45418 20.5945L2.45506 20.5955L2.45592 20.5964C2.46876 20.6105 2.51528 20.6616 2.76647 20.6964C3.04447 20.7349 3.42924 20.7366 4.04341 20.7366H19.9564C20.5706 20.7366 20.9554 20.7349 21.2334 20.6964C21.4846 20.6616 21.5311 20.6105 21.5439 20.5964L21.5448 20.5955L21.5457 20.5945C21.5586 20.5806 21.6057 20.5299 21.6195 20.2767C21.6348 19.9965 21.6045 19.6129 21.5535 19.0009L20.9546 11.814C20.8684 10.7798 20.8082 10.0745 20.6946 9.54726C20.5853 9.0404 20.4455 8.79671 20.2645 8.63022C20.0836 8.46373 19.8291 8.3446 19.315 8.27783C18.7801 8.20838 18.0722 8.20694 17.0345 8.20694H6.96537C5.92763 8.20694 5.21978 8.20838 4.68488 8.27783Z" fill="#222222"/>
</svg>
