<svg width="24" height="24" viewBox="0 0 24 24" fill="none" xmlns="http://www.w3.org/2000/svg">
<path d="M7.2403 1C7.44452 1 7.64037 1.08112 7.78477 1.22553C7.92918 1.36993 8.0103 1.56578 8.0103 1.77V3.2099H16.279V1.7799C16.279 1.57568 16.3601 1.37983 16.5045 1.23543C16.6489 1.09102 16.8448 1.0099 17.049 1.0099C17.2532 1.0099 17.4491 1.09102 17.5935 1.23543C17.7379 1.37983 17.819 1.57568 17.819 1.7799V3.2099H20.8C21.3833 3.2099 21.9427 3.44153 22.3552 3.85388C22.7678 4.26622 22.9997 4.82551 23 5.4088V20.8011C22.9997 21.3844 22.7678 21.9437 22.3552 22.356C21.9427 22.7684 21.3833 23 20.8 23H3.2C2.61671 23 2.0573 22.7684 1.64475 22.356C1.23221 21.9437 1.00029 21.3844 1 20.8011V5.4088C1.00029 4.82551 1.23221 4.26622 1.64475 3.85388C2.0573 3.44153 2.61671 3.2099 3.2 3.2099H6.4703V1.7689C6.47059 1.56487 6.55185 1.3693 6.69622 1.22514C6.84059 1.08097 7.03627 1 7.2403 1V1ZM2.54 9.5162V20.8011C2.54 20.8878 2.55707 20.9736 2.59024 21.0537C2.62341 21.1337 2.67202 21.2065 2.73331 21.2678C2.7946 21.3291 2.86735 21.3777 2.94743 21.4109C3.0275 21.444 3.11333 21.4611 3.2 21.4611H20.8C20.8867 21.4611 20.9725 21.444 21.0526 21.4109C21.1326 21.3777 21.2054 21.3291 21.2667 21.2678C21.328 21.2065 21.3766 21.1337 21.4098 21.0537C21.4429 20.9736 21.46 20.8878 21.46 20.8011V9.5316L2.54 9.5162ZM8.3337 17.0809V18.9135H6.5V17.0809H8.3337ZM12.9163 17.0809V18.9135H11.0837V17.0809H12.9163ZM17.5 17.0809V18.9135H15.6663V17.0809H17.5ZM8.3337 12.7062V14.5388H6.5V12.7062H8.3337ZM12.9163 12.7062V14.5388H11.0837V12.7062H12.9163ZM17.5 12.7062V14.5388H15.6663V12.7062H17.5ZM6.4703 4.7488H3.2C3.11333 4.7488 3.0275 4.76587 2.94743 4.79904C2.86735 4.83221 2.7946 4.88082 2.73331 4.94211C2.67202 5.0034 2.62341 5.07615 2.59024 5.15623C2.55707 5.2363 2.54 5.32213 2.54 5.4088V7.9773L21.46 7.9927V5.4088C21.46 5.32213 21.4429 5.2363 21.4098 5.15623C21.3766 5.07615 21.328 5.0034 21.2667 4.94211C21.2054 4.88082 21.1326 4.83221 21.0526 4.79904C20.9725 4.76587 20.8867 4.7488 20.8 4.7488H17.819V5.7707C17.819 5.97492 17.7379 6.17077 17.5935 6.31517C17.4491 6.45958 17.2532 6.5407 17.049 6.5407C16.8448 6.5407 16.6489 6.45958 16.5045 6.31517C16.3601 6.17077 16.279 5.97492 16.279 5.7707V4.7488H8.0103V5.7608C8.0103 5.96502 7.92918 6.16087 7.78477 6.30527C7.64037 6.44968 7.44452 6.5308 7.2403 6.5308C7.03608 6.5308 6.84023 6.44968 6.69583 6.30527C6.55142 6.16087 6.4703 5.96502 6.4703 5.7608V4.7488Z" fill="#FCAF17"/>
</svg>
