<svg width="22" height="22" viewBox="0 0 22 22" fill="none" xmlns="http://www.w3.org/2000/svg">
<path d="M19.8281 10.4141V11C19.8281 15.8679 15.8679 19.8281 11 19.8281C8.50172 19.8281 6.09902 18.7293 4.40805 16.8134L3.38281 15.6518V21H4.55469V18.598C6.35719 20.1379 8.64004 21 11 21C16.5062 21 21 16.5059 21 11V10.4141H19.8281Z" fill="black" stroke="black" stroke-width="0.1"/>
<path d="M11 2.17188C13.4983 2.17188 15.901 3.2707 17.592 5.18656L18.6172 6.34816V1H17.4453V3.40203C15.6428 1.86211 13.36 1 11 1C5.49379 1 1 5.4941 1 11V11.5859H2.17188V11C2.17188 6.13215 6.13215 2.17188 11 2.17188Z" fill="black" stroke="black" stroke-width="0.1"/>
<path d="M5.72656 6.3125V15.6875H16.2734V6.3125C16.1297 6.3125 6.40773 6.3125 5.72656 6.3125ZM15.1016 7.48438V14.5156H6.89844V7.48438H9.24219V10.7762L11 9.8973L12.7578 10.7762V7.48438H15.1016ZM11.5859 7.48438V8.88004L11 8.58707L10.4141 8.88004V7.48438H11.5859Z" fill="black" stroke="black" stroke-width="0.1"/>
<path d="M11.5859 12.0547H13.9297V13.2266H11.5859V12.0547Z" fill="black" stroke="black" stroke-width="0.1"/>
</svg>
