<svg width="120" height="120" viewBox="0 0 120 120" fill="none" xmlns="http://www.w3.org/2000/svg">
<g clip-path="url(#clip0_10755_6122)">
<path d="M106.842 108.762C88.4796 123.751 31.1449 123.751 13.1575 108.762C-5.20462 93.7721 -3.33097 29.6922 13.1575 12.829C29.646 -4.03415 90.3533 -4.03415 106.842 12.829C123.33 29.6922 125.204 93.7724 106.842 108.762Z" fill="white"/>
<g style="mix-blend-mode:multiply" opacity="0.8">
<path opacity="0.2" d="M60.3744 82.5263C43.8859 95.6422 25.5238 102.387 8.28597 102.762C-4.45519 81.0273 -1.83191 28.1896 13.1576 12.8254C26.6481 -1.03981 68.9933 -3.66308 93.3513 4.95583C99.347 29.6885 86.9807 61.1662 60.3744 82.5263Z" fill="white"/>
</g>
<path d="M51.3805 93.392C48.7572 93.392 46.1342 92.2677 44.6353 90.0194L23.6501 63.0384C20.6522 59.2911 21.4018 54.0448 25.1491 51.0468C28.8964 48.0489 34.1427 48.7985 37.1406 52.5458L51.3805 70.9079L82.8585 30.0617C85.8564 26.3144 91.1027 25.5648 94.85 28.5627C98.5973 31.5607 99.3469 36.807 96.349 40.5543L58.1258 90.0194C56.2521 91.8931 54.0038 93.392 51.3805 93.392Z" fill="#FCAF17"/>
</g>
<defs>
<clipPath id="clip0_10755_6122">
<rect width="120" height="120" fill="white"/>
</clipPath>
</defs>
</svg>
