<svg width="11" height="22" viewBox="0 0 11 22" fill="none" xmlns="http://www.w3.org/2000/svg">
<path d="M9.50001 5.00001V16.5C9.50001 18.71 7.71001 20.5 5.50001 20.5C3.29001 20.5 1.50001 18.71 1.50001 16.5V4.00001C1.50001 3.33697 1.7634 2.70108 2.23224 2.23224C2.70108 1.7634 3.33697 1.50001 4.00001 1.50001C4.66305 1.50001 5.29893 1.7634 5.76778 2.23224C6.23662 2.70108 6.50001 3.33697 6.50001 4.00001V14.5C6.50001 15.05 6.05001 15.5 5.50001 15.5C4.95001 15.5 4.50001 15.05 4.50001 14.5V5.00001H3.00001V14.5C3.00001 15.163 3.2634 15.7989 3.73224 16.2678C4.20108 16.7366 4.83697 17 5.50001 17C6.16305 17 6.79893 16.7366 7.26778 16.2678C7.73662 15.7989 8.00001 15.163 8.00001 14.5V4.00001C8.00001 1.79001 6.21001 7.62939e-06 4.00001 7.62939e-06C1.79001 7.62939e-06 7.62939e-06 1.79001 7.62939e-06 4.00001V16.5C7.62939e-06 19.54 2.46001 22 5.50001 22C8.54001 22 11 19.54 11 16.5V5.00001H9.50001Z" fill="#1B1A57"/>
</svg>
