<svg width="16" height="16" viewBox="0 0 16 16" fill="none" xmlns="http://www.w3.org/2000/svg">
<path d="M3.20312 3.77778C3.40937 3.77778 3.57812 3.93778 3.57812 4.13333V14.6667H13.4219V4.13333C13.4219 3.93778 13.5906 3.77778 13.7969 3.77778H14.4531C14.6594 3.77778 14.8281 3.93778 14.8281 4.13333V15.6444C14.8281 15.7387 14.7886 15.8292 14.7183 15.8959C14.648 15.9625 14.5526 16 14.4531 16H2.54688C2.44742 16 2.35204 15.9625 2.28171 15.8959C2.21138 15.8292 2.17187 15.7387 2.17187 15.6444V4.13333C2.17187 3.93778 2.34062 3.77778 2.54688 3.77778H3.20312ZM6.95313 5.55556C7.15938 5.55556 7.32812 5.71556 7.32812 5.91111V12.3111C7.32812 12.4054 7.28862 12.4958 7.21829 12.5625C7.14796 12.6292 7.05258 12.6667 6.95313 12.6667H6.29688C6.19742 12.6667 6.10204 12.6292 6.03171 12.5625C5.96138 12.4958 5.92188 12.4054 5.92188 12.3111V5.91111C5.92188 5.71556 6.09063 5.55556 6.29688 5.55556H6.95313ZM10.7031 5.55556C10.9094 5.55556 11.0781 5.71556 11.0781 5.91111V12.3111C11.0781 12.4054 11.0386 12.4958 10.9683 12.5625C10.898 12.6292 10.8026 12.6667 10.7031 12.6667H10.0469C9.94742 12.6667 9.85204 12.6292 9.78171 12.5625C9.71138 12.4958 9.67187 12.4054 9.67187 12.3111V5.91111C9.67187 5.71556 9.84062 5.55556 10.0469 5.55556H10.7031ZM10 0C10.2062 0 10.375 0.16 10.375 0.355555V1.33333H15.625C15.8312 1.33333 16 1.49333 16 1.68889V2.31111C16 2.40541 15.9605 2.49585 15.8902 2.56253C15.8198 2.62921 15.7245 2.66667 15.625 2.66667H1.375C1.27554 2.66667 1.18016 2.62921 1.10983 2.56253C1.03951 2.49585 1 2.40541 1 2.31111V1.68889C1 1.49333 1.16875 1.33333 1.375 1.33333H6.625V0.355555C6.625 0.16 6.79375 0 7 0H10Z" fill="#7A7A9D"/>
</svg>
