<svg width="32" height="32" viewBox="0 0 32 32" fill="none" xmlns="http://www.w3.org/2000/svg">
<path d="M11.5 1H14.5L16.5 8.5V14.5L13 12.5L9.5 14.5V8.5L11.5 1Z" fill="#FFBA17"/>
<path d="M24 14H23V12L18.5 15.5L23 19V17H24.2222C25.2831 17 26.3005 17.4214 27.0507 18.1716C27.8008 18.9217 28.2222 19.9391 28.2222 21C28.2222 22.0609 27.8008 23.0783 27.0507 23.8284C26.3005 24.5786 25.2831 25 24.2222 25H14V28H24C25.8565 28 27.637 27.2625 28.9497 25.9497C30.2625 24.637 31 22.8565 31 21C31 19.1435 30.2625 17.363 28.9497 16.0503C27.637 14.7375 25.8565 14 24 14V14Z" fill="#FFBA17"/>
<path d="M8 24.5C8 24.6326 7.94732 24.7598 7.85355 24.8536C7.75979 24.9473 7.63261 25 7.5 25H3.5C3.36739 25 3.24021 24.9473 3.14645 24.8536C3.05268 24.7598 3 24.6326 3 24.5C3 24.3674 3.05268 24.2402 3.14645 24.1465C3.24021 24.0527 3.36739 24 3.5 24H7.5C7.63261 24 7.75979 24.0527 7.85355 24.1465C7.94732 24.2402 8 24.3674 8 24.5ZM3.5 27H6.5C6.63261 27 6.75979 26.9473 6.85355 26.8536C6.94732 26.7598 7 26.6326 7 26.5C7 26.3674 6.94732 26.2402 6.85355 26.1465C6.75979 26.0527 6.63261 26 6.5 26H3.5C3.36739 26 3.24021 26.0527 3.14645 26.1465C3.05268 26.2402 3 26.3674 3 26.5C3 26.6326 3.05268 26.7598 3.14645 26.8536C3.24021 26.9473 3.36739 27 3.5 27ZM7.5 28H3.5C3.36739 28 3.24021 28.0527 3.14645 28.1465C3.05268 28.2402 3 28.3674 3 28.5C3 28.6326 3.05268 28.7598 3.14645 28.8536C3.24021 28.9473 3.36739 29 3.5 29H7.5C7.63261 29 7.75979 28.9473 7.85355 28.8536C7.94732 28.7598 8 28.6326 8 28.5C8 28.3674 7.94732 28.2402 7.85355 28.1465C7.75979 28.0527 7.63261 28 7.5 28ZM31.5 21C31.4978 22.7282 30.8998 24.4027 29.8068 25.7414C28.7139 27.08 27.1928 28.0009 25.5 28.3488V30C25.4996 30.3977 25.3414 30.779 25.0602 31.0602C24.779 31.3414 24.3977 31.4996 24 31.5H2C1.60231 31.4996 1.22103 31.3414 0.939822 31.0602C0.658612 30.779 0.500437 30.3977 0.5 30V8.5C0.500031 8.40129 0.529257 8.3048 0.584 8.22265L5.2871 1.16795C5.42383 0.962282 5.60934 0.793652 5.82708 0.677104C6.04482 0.560555 6.28803 0.499712 6.535 0.500001H19.465C19.712 0.499687 19.9552 0.560519 20.173 0.677068C20.3908 0.793618 20.5763 0.962261 20.7131 1.16795L25.416 8.22265C25.4707 8.3048 25.5 8.40129 25.5 8.5V13.6512C27.1928 13.9991 28.7139 14.92 29.8068 16.2586C30.8998 17.5973 31.4978 19.2718 31.5 21V21ZM15.1509 1.5L16.8842 8H24.0658L19.8808 1.72265C19.8352 1.65411 19.7734 1.59791 19.7009 1.55906C19.6283 1.52021 19.5473 1.49992 19.465 1.5H15.1509ZM10.1509 8H15.8492L14.1159 1.5H11.8841L10.1509 8ZM10 9V13.6382L12.752 12.0659C12.8275 12.0227 12.913 12 13 12C13.087 12 13.1725 12.0227 13.248 12.0659L16 13.6382V9H10ZM1.93425 8H9.1158L10.8491 1.5H6.535C6.45267 1.49988 6.37159 1.52015 6.299 1.559C6.22641 1.59786 6.16457 1.65408 6.119 1.72265L1.93425 8ZM24.5 28.4747C24.334 28.4857 24.1688 28.5 24 28.5H14C13.8674 28.5 13.7402 28.4473 13.6464 28.3536C13.5527 28.2598 13.5 28.1326 13.5 28V25C13.5 24.8674 13.5527 24.7402 13.6464 24.6465C13.7402 24.5527 13.8674 24.5 14 24.5H24.2222C24.316 24.5 24.4081 24.4932 24.5 24.486V17.5141C24.4081 17.5068 24.316 17.5 24.2222 17.5H23.5V19C23.5 19.0936 23.4737 19.1853 23.4241 19.2647C23.3745 19.344 23.3037 19.4079 23.2196 19.449C23.1356 19.4901 23.0417 19.5068 22.9486 19.4972C22.8555 19.4876 22.767 19.452 22.6931 19.3946L18.1931 15.8946C18.133 15.8478 18.0843 15.788 18.0509 15.7196C18.0174 15.6513 18 15.5761 18 15.5C18 15.4239 18.0174 15.3488 18.0509 15.2804C18.0843 15.212 18.133 15.1522 18.1931 15.1055L22.6931 11.6055C22.767 11.548 22.8555 11.5125 22.9486 11.5028C23.0417 11.4932 23.1356 11.5099 23.2196 11.551C23.3037 11.5921 23.3745 11.656 23.4241 11.7354C23.4737 11.8147 23.5 11.9064 23.5 12V13.5H24C24.1688 13.5 24.334 13.5143 24.5 13.5254V9H17V14.5C17 14.5876 16.977 14.6736 16.9333 14.7495C16.8896 14.8254 16.8267 14.8885 16.751 14.9324C16.6752 14.9764 16.5893 14.9997 16.5017 15C16.4141 15.0003 16.328 14.9776 16.2519 14.9341L13 13.0757L9.74805 14.9341C9.67201 14.9776 9.5859 15.0003 9.49832 15C9.41075 14.9997 9.32479 14.9764 9.24904 14.9324C9.1733 14.8885 9.11042 14.8254 9.06672 14.7495C9.02301 14.6736 9.00001 14.5876 9 14.5V9H1.5V30C1.50012 30.1326 1.55284 30.2597 1.64658 30.3534C1.74032 30.4472 1.86743 30.4999 2 30.5H24C24.1326 30.4999 24.2597 30.4472 24.3534 30.3534C24.4472 30.2597 24.4999 30.1326 24.5 30V28.4747ZM30.5 21C30.4981 19.2767 29.8126 17.6245 28.594 16.406C27.3755 15.1874 25.7233 14.502 24 14.5H23C22.8674 14.5 22.7402 14.4473 22.6464 14.3536C22.5527 14.2598 22.5 14.1326 22.5 14V13.0225L19.3144 15.5L22.5 17.9776V17C22.5 16.8674 22.5527 16.7402 22.6464 16.6465C22.7402 16.5527 22.8674 16.5 23 16.5H24.2222C25.4156 16.5 26.5602 16.9741 27.4041 17.818C28.248 18.6619 28.7222 19.8065 28.7222 21C28.7222 22.1935 28.248 23.3381 27.4041 24.182C26.5602 25.0259 25.4156 25.5 24.2222 25.5H14.5V27.5H24C25.7233 27.4981 27.3755 26.8126 28.594 25.5941C29.8126 24.3755 30.4981 22.7233 30.5 21V21ZM27.7222 21C27.721 20.2971 27.5085 19.6109 27.1122 19.0304C26.7159 18.4499 26.1542 18.002 25.5 17.745V24.255C26.1542 23.998 26.7159 23.5501 27.1122 22.9696C27.5085 22.3891 27.721 21.7029 27.7222 21V21Z" fill="#231F20" stroke="#231F20" stroke-width="0.5"/>
</svg>
