<svg width="24" height="16" viewBox="0 0 24 16" fill="none" xmlns="http://www.w3.org/2000/svg">
<path d="M23.1774 1.14258L16.2761 7.99942L23.1774 14.8563C23.3022 14.5955 23.3779 14.3072 23.3779 13.9994V1.99942C23.3779 1.69156 23.3022 1.40333 23.1774 1.14258Z" fill="#7A7A9D"/>
<path d="M21.3783 0H2.62271C2.31485 0 2.02662 0.0756891 1.76587 0.200445L10.5864 8.97659C11.3664 9.7565 12.6346 9.7565 13.4145 8.97659L22.2351 0.200445C21.9744 0.0756891 21.6861 0 21.3783 0Z" fill="#7A7A9D"/>
<path d="M0.822759 1.14258C0.698003 1.40333 0.622314 1.69156 0.622314 1.99942V13.9994C0.622314 14.3073 0.698003 14.5956 0.822759 14.8563L7.72405 7.99942L0.822759 1.14258Z" fill="#7A7A9D"/>
<path d="M15.3338 8.94336L14.3572 9.91994C13.0577 11.2194 10.9432 11.2194 9.64369 9.91994L8.66716 8.94336L1.76587 15.8002C2.02662 15.925 2.31485 16.0006 2.62271 16.0006H21.3783C21.6861 16.0006 21.9744 15.925 22.2351 15.8002L15.3338 8.94336Z" fill="#7A7A9D"/>
</svg>
