<svg width="20" height="19" viewBox="0 0 20 19" fill="none" xmlns="http://www.w3.org/2000/svg">
<path d="M9.87955 10.9957C10.3542 10.9957 10.8095 10.8071 11.1451 10.4714C11.4808 10.1358 11.6694 9.68053 11.6694 9.20584C11.6694 8.73115 11.4808 8.2759 11.1451 7.94024C10.8095 7.60459 10.3542 7.41602 9.87955 7.41602C9.40486 7.41602 8.94961 7.60459 8.61395 7.94024C8.27829 8.2759 8.08972 8.73115 8.08972 9.20584C8.08972 9.68053 8.27829 10.1358 8.61395 10.4714C8.94961 10.8071 9.40486 10.9957 9.87955 10.9957Z" stroke="#7A7A9D" stroke-linecap="round" stroke-linejoin="round"/>
<path d="M17.9338 9.20542C16.2434 11.8821 13.2069 14.5749 9.87963 14.5749C6.55234 14.5749 3.5159 11.8821 1.82541 9.20542C3.88281 6.66207 6.29281 3.83594 9.87963 3.83594C13.4664 3.83594 15.8764 6.66207 17.9338 9.20542Z" stroke="#7A7A9D" stroke-linecap="round" stroke-linejoin="round"/>
</svg>
