<svg width="24" height="18" viewBox="0 0 24 18" fill="none" xmlns="http://www.w3.org/2000/svg">
<path d="M23.1401 9.85988L18.4849 5.20463C18.3807 5.09975 18.2567 5.0166 18.1201 4.96001C17.9835 4.90343 17.837 4.87454 17.6891 4.87501H11.25V5.62501H13.125V11.25H13.875V5.62501H17.6891C17.7384 5.62497 17.7873 5.63465 17.8328 5.6535C17.8784 5.67236 17.9198 5.70001 17.9546 5.73488L18.5947 6.37501H16.875C16.6761 6.37501 16.4853 6.45402 16.3447 6.59468C16.204 6.73533 16.125 6.92609 16.125 7.12501V10.5C16.125 10.6989 16.204 10.8897 16.3447 11.0303C16.4853 11.171 16.6761 11.25 16.875 11.25H22.5V14.25C22.5 14.3495 22.4605 14.4448 22.3902 14.5152C22.3198 14.5855 22.2245 14.625 22.125 14.625H21.345C21.2553 14.0007 20.9436 13.4296 20.467 13.0165C19.9903 12.6035 19.3807 12.3761 18.75 12.3761C18.1193 12.3761 17.5097 12.6035 17.033 13.0165C16.5564 13.4296 16.2447 14.0007 16.155 14.625H10.845C10.7553 14.0007 10.4436 13.4296 9.96696 13.0165C9.49032 12.6035 8.88073 12.3761 8.25 12.3761C7.61927 12.3761 7.00968 12.6035 6.53304 13.0165C6.0564 13.4296 5.74466 14.0007 5.655 14.625H4.875C4.77554 14.625 4.68016 14.5855 4.60984 14.5152C4.53951 14.4448 4.5 14.3495 4.5 14.25V10.875H3.75V14.25C3.75 14.5484 3.86853 14.8345 4.0795 15.0455C4.29048 15.2565 4.57663 15.375 4.875 15.375H5.655C5.73685 15.9452 6.00457 16.4725 6.41663 16.875H0.75V17.625H18.75C19.3806 17.6238 19.9897 17.3958 20.4661 16.9828C20.9425 16.5697 21.2545 15.999 21.345 15.375H22.125C22.4234 15.375 22.7095 15.2565 22.9205 15.0455C23.1315 14.8345 23.25 14.5484 23.25 14.25V10.125C23.25 10.0256 23.2105 9.93019 23.1401 9.85988ZM6.375 15C6.375 14.6292 6.48497 14.2667 6.69099 13.9583C6.89702 13.65 7.18986 13.4096 7.53247 13.2677C7.87508 13.1258 8.25208 13.0887 8.61579 13.161C8.97951 13.2334 9.3136 13.412 9.57582 13.6742C9.83805 13.9364 10.0166 14.2705 10.089 14.6342C10.1613 14.9979 10.1242 15.3749 9.98227 15.7175C9.84036 16.0601 9.60004 16.353 9.29169 16.559C8.98335 16.765 8.62084 16.875 8.25 16.875C7.7529 16.8744 7.27633 16.6767 6.92483 16.3252C6.57333 15.9737 6.3756 15.4971 6.375 15ZM10.0834 16.875C10.4954 16.4725 10.7631 15.9452 10.845 15.375H16.155C16.2369 15.9452 16.5046 16.4725 16.9166 16.875H10.0834ZM18.75 16.875C18.3792 16.875 18.0166 16.765 17.7083 16.559C17.4 16.353 17.1596 16.0601 17.0177 15.7175C16.8758 15.3749 16.8387 14.9979 16.911 14.6342C16.9834 14.2705 17.162 13.9364 17.4242 13.6742C17.6864 13.412 18.0205 13.2334 18.3842 13.161C18.7479 13.0887 19.1249 13.1258 19.4675 13.2677C19.8101 13.4096 20.103 13.65 20.309 13.9583C20.515 14.2667 20.625 14.6292 20.625 15C20.6244 15.4971 20.4267 15.9737 20.0752 16.3252C19.7237 16.6767 19.2471 16.8744 18.75 16.875ZM16.875 10.5V7.12501H19.3447L22.5 10.2803V10.5H16.875Z" fill="#11006F" stroke="#11006F" stroke-width="0.35"/>
<path d="M8.625 14.625H7.875V15.375H8.625V14.625Z" fill="#11006F" stroke="#11006F" stroke-width="0.35"/>
<path d="M19.125 14.625H18.375V15.375H19.125V14.625Z" fill="#11006F" stroke="#11006F" stroke-width="0.35"/>
<path d="M2.625 13.5H0.75V14.25H2.625V13.5Z" fill="#11006F" stroke="#11006F" stroke-width="0.35"/>
<path d="M2.625 12H1.5V12.75H2.625V12Z" fill="#11006F" stroke="#11006F" stroke-width="0.35"/>
<path d="M2.625 10.5H1.875V11.25H2.625V10.5Z" fill="#11006F" stroke="#11006F" stroke-width="0.35"/>
<path d="M5.625 10.125C6.58918 10.125 7.53171 9.83907 8.3334 9.3034C9.13509 8.76773 9.75994 8.00636 10.1289 7.11557C10.4979 6.22478 10.5944 5.24459 10.4063 4.29893C10.2182 3.35327 9.75393 2.48463 9.07215 1.80285C8.39036 1.12107 7.52172 0.656776 6.57607 0.468674C5.63041 0.280571 4.65021 0.377112 3.75942 0.746089C2.86863 1.11507 2.10726 1.73991 1.57159 2.54159C1.03591 3.34328 0.75 4.28581 0.75 5.24999C0.751489 6.54247 1.26558 7.78158 2.1795 8.69549C3.09342 9.60941 4.33253 10.1235 5.625 10.125ZM5.625 1.125C6.44085 1.125 7.23837 1.36693 7.91673 1.82019C8.59508 2.27345 9.12379 2.91768 9.436 3.67143C9.74821 4.42517 9.8299 5.25457 9.67074 6.05474C9.51157 6.85491 9.11871 7.58992 8.54182 8.16681C7.96492 8.7437 7.22992 9.13656 6.42975 9.29573C5.62958 9.45489 4.80018 9.3732 4.04643 9.06099C3.29269 8.74878 2.64845 8.22007 2.19519 7.54172C1.74193 6.86337 1.5 6.06584 1.5 5.24999C1.50129 4.15637 1.9363 3.10792 2.70961 2.33461C3.48292 1.5613 4.53138 1.12629 5.625 1.125Z" fill="#11006F" stroke="#11006F" stroke-width="0.35"/>
<path d="M5.625 8.625C5.72445 8.62498 5.81982 8.58546 5.89012 8.51513C6.13162 8.27363 8.25 6.10875 8.25 4.5C8.25 3.80381 7.97344 3.13613 7.48116 2.64384C6.98887 2.15156 6.32119 1.875 5.625 1.875C4.92881 1.875 4.26113 2.15156 3.76884 2.64384C3.27656 3.13613 3 3.80381 3 4.5C3 6.10875 5.11838 8.27363 5.35988 8.51513C5.43018 8.58546 5.52555 8.62498 5.625 8.625ZM5.625 2.625C6.1221 2.6256 6.59867 2.82333 6.95017 3.17483C7.30167 3.52633 7.4994 4.0029 7.5 4.5C7.5 5.46225 6.31988 6.94913 5.625 7.70662C4.93012 6.94913 3.75 5.46225 3.75 4.5C3.7506 4.0029 3.94833 3.52633 4.29983 3.17483C4.65133 2.82333 5.1279 2.6256 5.625 2.625Z" fill="#11006F" stroke="#11006F" stroke-width="0.35"/>
<path d="M6.75 4.5C6.75 4.2775 6.68402 4.05999 6.5604 3.87498C6.43678 3.68998 6.26108 3.54578 6.05552 3.46064C5.84995 3.37549 5.62375 3.35321 5.40552 3.39662C5.18729 3.44003 4.98684 3.54717 4.8295 3.7045C4.67217 3.86184 4.56503 4.06229 4.52162 4.28052C4.47821 4.49875 4.50049 4.72495 4.58564 4.93052C4.67078 5.13608 4.81498 5.31178 4.99998 5.4354C5.18499 5.55902 5.4025 5.625 5.625 5.625C5.92337 5.625 6.20951 5.50647 6.42049 5.29549C6.63147 5.08451 6.75 4.79837 6.75 4.5ZM5.25 4.5C5.25 4.42583 5.27199 4.35333 5.3132 4.29166C5.3544 4.22999 5.41297 4.18193 5.48149 4.15354C5.55001 4.12516 5.62541 4.11774 5.69816 4.1322C5.7709 4.14667 5.83772 4.18239 5.89016 4.23483C5.94261 4.28728 5.97832 4.3541 5.99279 4.42684C6.00726 4.49958 5.99984 4.57498 5.97145 4.6435C5.94307 4.71203 5.89501 4.77059 5.83334 4.8118C5.77167 4.85301 5.69917 4.875 5.625 4.875C5.52554 4.875 5.43016 4.83549 5.35983 4.76516C5.28951 4.69484 5.25 4.59945 5.25 4.5Z" fill="#11006F" stroke="#11006F" stroke-width="0.35"/>
<path d="M16.5 12H15V12.75H16.5V12Z" fill="#11006F" stroke="#11006F" stroke-width="0.35"/>
</svg>
