<svg width="15" height="16" viewBox="0 0 15 16" fill="none" xmlns="http://www.w3.org/2000/svg">
<path d="M4.2868 16C3.21862 13.7699 3.78068 12.4875 4.6241 11.3166C5.52347 9.97876 5.74855 8.69635 5.74855 8.69635C5.74855 8.69635 6.47911 9.58859 6.19808 11.038C7.43507 9.64437 7.65983 7.41426 7.49134 6.57845C10.3026 8.52932 11.5396 12.8222 9.90904 15.9439C18.567 11.038 12.0454 3.73502 10.9213 2.95436C11.3145 3.79049 11.3708 5.18415 10.5837 5.85357C9.29071 0.947702 6.08648 0 6.08648 0C6.47974 2.5084 4.73695 5.24057 3.05012 7.30301C2.99416 6.29952 2.93758 5.63043 2.37551 4.62694C2.26297 6.46656 0.857803 7.91632 0.463917 9.75594C-0.0418819 12.2647 0.857803 14.0485 4.28711 16H4.2868Z" fill="#FCAF17"/>
</svg>
