<svg width="20" height="20" viewBox="0 0 20 20" fill="none" xmlns="http://www.w3.org/2000/svg">
<path d="M9.3335 14.0007H10.6668V12.6673H9.3335V14.0007ZM10.0002 3.33398C6.32016 3.33398 3.3335 6.32065 3.3335 10.0007C3.3335 13.6807 6.32016 16.6673 10.0002 16.6673C13.6802 16.6673 16.6668 13.6807 16.6668 10.0007C16.6668 6.32065 13.6802 3.33398 10.0002 3.33398ZM10.0002 15.334C7.06016 15.334 4.66683 12.9407 4.66683 10.0007C4.66683 7.06065 7.06016 4.66732 10.0002 4.66732C12.9402 4.66732 15.3335 7.06065 15.3335 10.0007C15.3335 12.9407 12.9402 15.334 10.0002 15.334ZM10.0002 6.00065C8.52683 6.00065 7.3335 7.19398 7.3335 8.66732H8.66683C8.66683 7.93398 9.26683 7.33398 10.0002 7.33398C10.7335 7.33398 11.3335 7.93398 11.3335 8.66732C11.3335 10.0007 9.3335 9.83398 9.3335 12.0007H10.6668C10.6668 10.5007 12.6668 10.334 12.6668 8.66732C12.6668 7.19398 11.4735 6.00065 10.0002 6.00065Z" fill="#8A8A8F"/>
</svg>
