<svg width="24" height="24" viewBox="0 0 24 24" fill="none" xmlns="http://www.w3.org/2000/svg">
<path d="M19.2043 13.4583C18.8223 13.4583 18.5131 13.7675 18.5131 14.1494V20.7154H5.38111V14.1494C5.38111 13.7675 5.07191 13.4583 4.68995 13.4583C4.308 13.4583 3.99879 13.7675 3.99879 14.1403V22.0795H19.8863V14.1403C19.8954 13.7675 19.5862 13.4583 19.2043 13.4583Z" fill="#FCAF17"/>
<path d="M22.6965 12.7493L11.9471 2L1.1978 12.7493C0.934067 13.0131 0.934067 13.4496 1.1978 13.7224C1.32512 13.8497 1.49791 13.9225 1.67979 13.9225C1.86167 13.9225 2.03446 13.8497 2.16178 13.7224L11.9471 3.94616L21.7234 13.7224C21.9871 13.9861 22.4236 13.9952 22.6965 13.7224C22.9602 13.4496 22.9602 13.0131 22.6965 12.7493Z" fill="#FCAF17"/>
</svg>
