<svg width="20" height="20" viewBox="0 0 20 20" fill="none" xmlns="http://www.w3.org/2000/svg">
<path d="M19.5775 17.4569L14.6322 12.5115C17.1187 8.85372 16.1693 3.87282 12.5115 1.38626C8.8537 -1.10045 3.8728 -0.150748 1.38624 3.50692C-1.10033 7.16474 -0.150928 12.1456 3.50689 14.6323C6.22432 16.4796 9.79425 16.4796 12.5115 14.6323L17.4569 19.5775C18.0518 20.1537 19.0014 20.1386 19.5775 19.5437C20.1407 18.9622 20.1407 18.0384 19.5775 17.4569ZM1.02079 8.01938C1.02064 4.15419 4.15402 1.02066 8.0192 1.02051C11.8844 1.02036 15.0179 4.15358 15.0181 8.01892C15.0182 11.8841 11.8848 15.0176 8.01966 15.0178C8.01951 15.0178 8.01935 15.0178 8.0192 15.0178C4.156 15.0131 1.02537 11.8826 1.02079 8.01938ZM18.8706 18.8706C18.6754 19.0659 18.359 19.0659 18.1637 18.8706L13.3021 14.009C13.5522 13.7882 13.7882 13.5522 14.0089 13.3021L18.8706 18.1638C19.0658 18.359 19.0658 18.6754 18.8706 18.8706Z" fill="black"/>
<path d="M9.61794 7.9245C10.6789 7.04132 10.8229 5.46524 9.93975 4.4043C9.05657 3.34335 7.48049 3.19931 6.41955 4.08249C5.35861 4.96582 5.21457 6.54175 6.09774 7.60269C6.1951 7.71957 6.30267 7.8273 6.41955 7.9245C5.25729 8.51929 4.52411 9.71313 4.51953 11.0187C4.51923 11.2946 4.74277 11.5184 5.0188 11.5186H5.01941H11.0176C11.2937 11.5187 11.5174 11.2953 11.5177 11.0194C11.5177 11.0191 11.5177 11.0188 11.5177 11.0187C11.5131 9.71313 10.7802 8.51944 9.61794 7.9245ZM6.51904 6.0199C6.51904 5.19165 7.19058 4.52011 8.01882 4.52011C8.84707 4.52011 9.51845 5.19165 9.51845 6.0199C9.51845 6.84815 8.84707 7.51953 8.01882 7.51953C7.19073 7.51877 6.51965 6.84769 6.51889 6.01975L6.51904 6.0199ZM5.56933 10.5191C5.84582 9.16611 7.16677 8.29346 8.51961 8.5701C9.50106 8.7706 10.2681 9.53766 10.4686 10.5191H5.56933Z" fill="black"/>
</svg>
