<svg width="24" height="24" viewBox="0 0 24 24" fill="none" xmlns="http://www.w3.org/2000/svg">
<path d="M19.2045 13.459C18.8225 13.459 18.5133 13.7682 18.5133 14.1501V20.7161H5.38134V14.1501C5.38134 13.7682 5.07214 13.459 4.69018 13.459C4.30823 13.459 3.99902 13.7682 3.99902 14.141V22.0803H19.8866V14.141C19.8957 13.7682 19.5865 13.459 19.2045 13.459Z" fill="black"/>
<path d="M22.6965 12.7493L11.9471 2L1.1978 12.7493C0.934067 13.0131 0.934067 13.4496 1.1978 13.7224C1.32512 13.8497 1.49791 13.9225 1.67979 13.9225C1.86167 13.9225 2.03446 13.8497 2.16178 13.7224L11.9471 3.94616L21.7234 13.7224C21.9871 13.9861 22.4236 13.9952 22.6965 13.7224C22.9602 13.4496 22.9602 13.0131 22.6965 12.7493Z" fill="black"/>
</svg>
