<svg width="16" height="16" viewBox="0 0 16 16" fill="none" xmlns="http://www.w3.org/2000/svg">
<path d="M5.2868 16C4.21862 13.7699 4.78068 12.4875 5.6241 11.3166C6.52347 9.97876 6.74855 8.69635 6.74855 8.69635C6.74855 8.69635 7.47911 9.58859 7.19808 11.038C8.43507 9.64437 8.65983 7.41426 8.49134 6.57845C11.3026 8.52932 12.5396 12.8222 10.909 15.9439C19.567 11.038 13.0454 3.73502 11.9213 2.95436C12.3145 3.79049 12.3708 5.18415 11.5837 5.85357C10.2907 0.947702 7.08648 0 7.08648 0C7.47974 2.5084 5.73695 5.24057 4.05012 7.30301C3.99416 6.29952 3.93758 5.63043 3.37551 4.62694C3.26297 6.46656 1.8578 7.91632 1.46392 9.75594C0.958118 12.2647 1.8578 14.0485 5.28711 16H5.2868Z" fill="#FCAF17"/>
</svg>
