<svg width="22" height="24" viewBox="0 0 22 24" fill="none" xmlns="http://www.w3.org/2000/svg">
<path fill-rule="evenodd" clip-rule="evenodd" d="M16.1201 3.92826V11.5526H19.9433V3.92826C19.9433 2.87844 19.0817 2.01664 18.0317 2.01664C16.9816 2.01664 16.1201 2.87826 16.1201 3.92826ZM6.71742 7.25599C6.46011 6.99868 6.46011 6.58134 6.71742 6.32403C6.9749 6.06646 7.39224 6.06646 7.64981 6.32403L8.01099 6.6853L9.17807 5.5184C8.36601 4.89023 7.21319 4.96514 6.48784 5.69032C5.69101 6.48724 5.69101 7.77923 6.48784 8.57623C7.28458 9.37307 8.57675 9.37307 9.37349 8.57623C9.87041 8.07949 10.0848 7.35203 9.91293 6.64754L8.47719 8.08354C8.21962 8.34076 7.80228 8.34076 7.54497 8.08354L6.71742 7.25599ZM10.1148 4.5816L10.9424 3.75388C11.1997 3.49657 11.6172 3.49657 11.8745 3.75388C12.1318 4.01136 12.1318 4.4287 11.8745 4.68601L10.9334 5.62703C11.5856 6.92456 11.3245 8.48953 10.3057 9.50819C8.99383 10.8202 6.86759 10.8202 5.55562 9.50819C4.244 8.19657 4.244 6.07007 5.55562 4.75828C6.79612 3.51778 8.78256 3.44023 10.1148 4.5816V4.5816ZM3.81539 18.3643C3.45122 18.3643 3.15615 18.6594 3.15615 19.0235C3.15615 19.3875 3.45122 19.6827 3.81539 19.6827C4.17939 19.6827 4.47464 19.3875 4.47464 19.0235C4.47464 18.6594 4.17939 18.3643 3.81539 18.3643ZM6.4521 19.6827C6.08784 19.6827 5.79295 19.3875 5.79295 19.0235C5.79295 18.6594 6.08784 18.3643 6.4521 18.3643H12.8242C13.1882 18.3643 13.4834 18.6594 13.4834 19.0235C13.4834 19.3875 13.1882 19.6827 12.8242 19.6827H6.4521ZM3.81539 15.7276C3.45122 15.7276 3.15615 16.0226 3.15615 16.3868C3.15615 16.7508 3.45122 17.046 3.81539 17.046C4.17939 17.046 4.47464 16.7508 4.47464 16.3868C4.47464 16.0226 4.17939 15.7276 3.81539 15.7276ZM6.4521 17.046C6.08784 17.046 5.79295 16.7508 5.79295 16.3868C5.79295 16.0226 6.08784 15.7276 6.4521 15.7276H12.8242C13.1882 15.7276 13.4834 16.0226 13.4834 16.3868C13.4834 16.7508 13.1882 17.046 12.8242 17.046H6.4521ZM16.1201 12.871V22.5391C16.1201 22.9032 15.825 23.1982 15.4609 23.1982H1.17869C0.814426 23.1982 0.519531 22.9032 0.519531 22.5391V3.86233C0.519531 2.11884 1.93987 0.698242 3.68362 0.698242H18.0317C19.8095 0.698242 21.2617 2.15053 21.2617 3.92826V12.2118C21.2617 12.5759 20.9665 12.871 20.6025 12.871H16.1201ZM15.4315 2.01664C15.0362 2.55247 14.8017 3.21418 14.8017 3.92826V21.8799H1.83784V3.86233C1.83784 2.84666 2.66777 2.01664 3.68362 2.01664H15.4315ZM3.81539 13.0908C3.45122 13.0908 3.15615 13.386 3.15615 13.75C3.15615 14.1141 3.45122 14.4092 3.81539 14.4092C4.17939 14.4092 4.47464 14.1141 4.47464 13.75C4.47464 13.386 4.17939 13.0908 3.81539 13.0908ZM6.4521 14.4092H12.8242C13.1882 14.4092 13.4834 14.1141 13.4834 13.75C13.4834 13.386 13.1882 13.0908 12.8242 13.0908H6.4521C6.08784 13.0908 5.79295 13.386 5.79295 13.75C5.79295 14.1141 6.08784 14.4092 6.4521 14.4092V14.4092Z" fill="#11006F"/>
</svg>
