<svg width="74" height="35" viewBox="0 0 74 35" fill="none" xmlns="http://www.w3.org/2000/svg">
<path d="M27.4162 21.7595C26.5641 21.7613 25.7296 21.5146 25.0135 21.0492C24.2974 20.5837 23.7301 19.9193 23.38 19.1362C23.03 18.353 22.9122 17.4845 23.0408 16.6354C23.1694 15.7862 23.5389 14.9927 24.1047 14.3505C24.6706 13.7083 25.4087 13.2448 26.23 13.016C27.0513 12.7871 27.9207 12.8026 28.7334 13.0607C29.5462 13.3187 30.2675 13.8082 30.8104 14.4702C31.3534 15.1322 31.6948 15.9385 31.7935 16.7917H36.2284C36.0953 14.4749 35.0717 12.3017 33.3748 10.7334C31.678 9.1652 29.4416 8.32549 27.1406 8.3926C24.8395 8.45971 22.655 9.42835 21.0509 11.0929C19.4469 12.7574 18.5496 14.9866 18.5496 17.3072C18.5496 19.6279 19.4469 21.8571 21.0509 23.5216C22.655 25.1861 24.8395 26.1548 27.1406 26.2219C29.4416 26.289 31.678 25.4493 33.3748 23.8811C35.0717 22.3128 36.0953 20.1396 36.2284 17.8228H31.8096C31.6841 18.9082 31.167 19.9091 30.3569 20.635C29.5467 21.3609 28.5001 21.7611 27.4162 21.7595V21.7595Z" fill="#2A2A86"/>
<path d="M12.8832 8.90678V17.651C12.8832 19.9386 10.8673 21.792 8.59801 21.792C6.3287 21.792 4.2944 19.9317 4.2944 17.651V8.90678H0V17.651C-4.0552e-08 18.7891 0.222411 19.9161 0.654529 20.9676C1.08665 22.019 1.72001 22.9744 2.51844 23.779C3.31687 24.5837 4.26472 25.2219 5.30787 25.6573C6.35101 26.0926 7.46901 26.3165 8.59801 26.3162C10.2361 26.3162 11.4963 25.8958 12.8832 24.6161V26.3418C12.8832 28.6294 11.0954 30.4828 8.59801 30.4828C6.10062 30.4828 4.117 28.6248 4.117 26.3418H0C0.0369271 28.6157 0.958904 30.7838 2.56711 32.3787C4.17532 33.9736 6.3409 34.8674 8.59685 34.8674C10.8528 34.8674 13.0184 33.9736 14.6266 32.3787C16.2348 30.7838 17.1568 28.6157 17.1937 26.3418V8.92304L12.8832 8.90678Z" fill="#2A2A86"/>
<path d="M69.6895 8.90678V17.651C69.6895 19.9386 67.6737 21.792 65.4044 21.792C63.1351 21.792 61.1008 19.934 61.1008 17.651V8.90678H56.8064V17.651C56.8064 18.7891 57.0288 19.9161 57.4609 20.9676C57.893 22.019 58.5264 22.9744 59.3248 23.779C60.1232 24.5837 61.0711 25.2219 62.1142 25.6573C63.1574 26.0926 64.2754 26.3165 65.4044 26.3162C67.0424 26.3162 68.3026 25.8958 69.6895 24.6161V26.3418C69.6895 28.6294 67.9018 30.4828 65.4044 30.4828C62.907 30.4828 60.9234 28.6248 60.9234 26.3418H56.8064C56.8433 28.6157 57.7653 30.7838 59.3735 32.3787C60.9817 33.9736 63.1473 34.8674 65.4032 34.8674C67.6592 34.8674 69.8247 33.9736 71.4329 32.3787C73.0412 30.7838 73.9631 28.6157 74.0001 26.3418V8.92304L69.6895 8.90678Z" fill="#FCAF17"/>
<path d="M50.7383 0V9.91938C49.4245 8.94409 47.8381 8.41319 46.2066 8.40279C41.5988 8.40279 37.8528 12.1188 37.5947 16.794H42.0089C42.1392 15.6604 42.6945 14.62 43.561 13.8858C44.4276 13.1516 45.5399 12.7793 46.67 12.845C47.8001 12.9108 48.8624 13.4097 49.6395 14.2395C50.4165 15.0693 50.8493 16.1673 50.8493 17.3084C50.8493 18.4495 50.4165 19.5475 49.6395 20.3773C48.8624 21.2071 47.8001 21.706 46.67 21.7718C45.5399 21.8375 44.4276 21.4652 43.561 20.731C42.6945 19.9968 42.1392 18.9564 42.0089 17.8228H37.5947C37.8551 22.5003 41.6104 26.2117 46.2066 26.2117C47.851 26.1819 49.4457 25.6382 50.7705 24.6556V24.6556L51.3972 26.0073H55.0626V0H50.7383Z" fill="#FCAF17"/>
</svg>
