<svg width="16" height="16" viewBox="0 0 16 16" fill="none" xmlns="http://www.w3.org/2000/svg">
<path d="M13.8422 7.33906C13.8984 7.52656 13.9266 7.72031 13.9266 7.91719C13.9266 8.35938 13.7812 8.78437 13.5188 9.13125C13.575 9.31875 13.6031 9.5125 13.6031 9.70937C13.6031 10.1516 13.4578 10.5766 13.1953 10.9234C13.2516 11.1109 13.2797 11.3047 13.2797 11.5016C13.2797 12.3078 12.8 13.0344 12.0562 13.3516C11.9255 13.4079 11.7845 13.4367 11.6422 13.4359H4.26562V6.74844H4.27031L5.61094 1.89219C5.82656 1.10938 6.54531 0.5625 7.35781 0.5625C7.82188 0.5625 8.25469 0.746876 8.575 1.08438C8.89531 1.42031 9.05937 1.86094 9.03594 2.325L8.94219 4.24531H12.6906C12.8797 4.24531 13.0641 4.29531 13.2266 4.39062C13.8578 4.75781 14.25 5.42344 14.25 6.125C14.25 6.56719 14.1047 6.99219 13.8422 7.33906ZM1.75 12.9375V7.25C1.75 6.97344 1.97344 6.75 2.25 6.75H3.26562V13.4375H2.25C1.97344 13.4375 1.75 13.2141 1.75 12.9375Z" fill="white"/>
</svg>
