<svg width="19" height="20" viewBox="0 0 19 20" fill="none" xmlns="http://www.w3.org/2000/svg">
<path d="M15.2493 6.66667H17.1938C17.4516 6.66667 17.6989 6.76701 17.8813 6.94561C18.0636 7.12422 18.166 7.36646 18.166 7.61905V19.0476C18.166 19.3002 18.0636 19.5424 17.8813 19.7211C17.6989 19.8997 17.4516 20 17.1938 20H1.63824C1.38039 20 1.1331 19.8997 0.950773 19.7211C0.768446 19.5424 0.666016 19.3002 0.666016 19.0476V7.61905C0.666016 7.36646 0.768446 7.12422 0.950773 6.94561C1.1331 6.76701 1.38039 6.66667 1.63824 6.66667H3.58268V5.71429C3.58268 4.19876 4.19726 2.74531 5.29123 1.67368C6.38519 0.602039 7.86892 0 9.41602 0C10.9631 0 12.4468 0.602039 13.5408 1.67368C14.6348 2.74531 15.2493 4.19876 15.2493 5.71429V6.66667ZM2.61046 8.57143V18.0952H16.2216V8.57143H2.61046ZM8.44379 12.381H10.3882V14.2857H8.44379V12.381ZM4.5549 12.381H6.49935V14.2857H4.5549V12.381ZM12.3327 12.381H14.2771V14.2857H12.3327V12.381ZM13.3049 6.66667V5.71429C13.3049 4.70394 12.8952 3.73497 12.1659 3.02055C11.4366 2.30612 10.4474 1.90476 9.41602 1.90476C8.38462 1.90476 7.39546 2.30612 6.66616 3.02055C5.93685 3.73497 5.52713 4.70394 5.52713 5.71429V6.66667H13.3049Z" fill="black" stroke="white" stroke-width="0.5"/>
</svg>
