<svg width="40" height="40" viewBox="0 0 40 40" fill="none" xmlns="http://www.w3.org/2000/svg">
<path d="M35.6139 36.2539C29.4932 41.2504 10.3816 41.2504 4.38583 36.2539C-1.73487 31.2574 -1.11032 9.89738 4.38583 4.27633C9.88199 -1.34472 30.1178 -1.34472 35.6139 4.27633C41.1101 9.89738 41.7346 31.2575 35.6139 36.2539Z" fill="white"/>
<g opacity="0.2">
<path opacity="0.2" d="M20.1246 27.5088C14.6285 31.8807 8.50777 34.1291 2.76183 34.254C-1.48523 27.0091 -0.610801 9.39652 4.3857 4.27513C8.88253 -0.346602 22.9976 -1.22103 31.1169 1.65194C33.1155 9.89618 28.9934 20.3887 20.1246 27.5088Z" fill="#34A853"/>
</g>
<path d="M17.1267 31.1307C16.2522 31.1307 15.3779 30.7559 14.8783 30.0065L7.88321 21.0128C6.88389 19.7637 7.13377 18.0149 8.38287 17.0156C9.63197 16.0163 11.3807 16.2662 12.3801 17.5153L17.1267 23.636L27.6193 10.0206C28.6186 8.77146 30.3674 8.52159 31.6165 9.52091C32.8656 10.5202 33.1155 12.269 32.1162 13.5181L19.3751 30.0065C18.7505 30.631 18.0011 31.1307 17.1267 31.1307Z" fill="#34A853"/>
</svg>
