<svg width="24" height="24" viewBox="0 0 24 24" fill="none" xmlns="http://www.w3.org/2000/svg">
<g clip-path="url(#clip0_10407_20829)">
<path d="M21.8182 17.4546H20.7273V8.72728C20.7273 3.91528 16.812 0 12 0C7.188 0 3.27272 3.91528 3.27272 8.72728V17.4546H2.1818C1.57852 17.4546 1.09088 17.9422 1.09088 18.5455C1.09088 19.1488 1.57852 19.6364 2.1818 19.6364H3.27272H7.63636C7.63636 22.0429 9.59344 24 12 24C14.4066 24 16.3636 22.0429 16.3636 19.6364H20.7273H21.8182C22.4215 19.6364 22.9091 19.1487 22.9091 18.5454C22.9091 17.9422 22.4214 17.4546 21.8182 17.4546ZM12 21.8182C10.7967 21.8182 9.81821 20.8396 9.81821 19.6364H14.1818C14.1818 20.8396 13.2033 21.8182 12 21.8182ZM18.5454 17.4546H16.3636H7.63636H5.45457V8.72728C5.45457 5.11748 8.39021 2.18184 12 2.18184C15.6098 2.18184 18.5454 5.11748 18.5454 8.72728V17.4546Z" fill="black" stroke="white" stroke-width="0.75"/>
</g>
<defs>
<clipPath id="clip0_10407_20829">
<rect width="24" height="24" fill="white"/>
</clipPath>
</defs>
</svg>
