<svg width="20" height="16" viewBox="0 0 20 16" fill="none" xmlns="http://www.w3.org/2000/svg">
<path d="M4.22687 0.113281V2.97348H0V13.187C0 14.6755 1.21094 15.8864 2.69937 15.8864H17.3006C18.7891 15.8864 20 14.6755 20 13.187V0.113281H4.22687ZM2.69937 14.7145C1.85711 14.7145 1.17188 14.0293 1.17188 13.187V4.14535H4.22687V13.187C4.22687 14.0293 3.54164 14.7145 2.69937 14.7145ZM18.8281 13.187C18.8281 14.0293 18.1429 14.7145 17.3006 14.7145H4.92336C5.22285 14.2798 5.39875 13.7537 5.39875 13.187V2.97348V1.28516H18.8281V13.187Z" fill="black"/>
<path d="M7.15625 12.3711H17.6559V13.543H7.15625V12.3711Z" fill="black"/>
<path d="M7.15625 9.89258H17.6559V11.0645H7.15625V9.89258Z" fill="black"/>
<path d="M7.15625 7.41406H17.6559V8.58594H7.15625V7.41406Z" fill="black"/>
<path d="M7.81547 3.94414L8.96027 5.76614H9.58191V2.64062H8.92273V4.46731L7.77793 2.64539L7.15625 2.64527V5.8047H7.81547V3.94414Z" fill="black"/>
<path d="M11.6796 5.1343H10.6338V4.55254H11.6025V3.89332H10.6338V3.31156H11.6796V2.65234H9.97461V3.89332V4.55254V5.79352H11.6796V5.1343Z" fill="black"/>
<path d="M16.5741 5.14538C16.3298 5.14538 16.0948 5.04705 15.9455 4.88233L15.457 5.32499C15.7332 5.62975 16.1404 5.80456 16.5741 5.80456C17.11 5.80456 17.5601 5.46198 17.6444 4.99002C17.7079 4.6342 17.5473 4.16967 16.9057 3.93307C16.6009 3.82061 16.3168 3.69822 16.2267 3.65881C16.1668 3.60924 16.1689 3.54096 16.173 3.51232C16.1789 3.47127 16.209 3.3708 16.3607 3.3251C16.7081 3.22045 17.0318 3.479 17.035 3.48162L17.033 3.47998L17.4572 2.97537C17.4333 2.95525 16.8633 2.48525 16.1705 2.69392C15.8186 2.79998 15.5695 3.07767 15.5205 3.41869C15.4745 3.73904 15.6134 4.04725 15.883 4.22295L15.9048 4.23721L15.9287 4.24783C15.9432 4.25432 16.2887 4.40807 16.6776 4.55155C16.7603 4.58201 17.0274 4.69537 16.9955 4.87416C16.9716 5.00748 16.8075 5.14538 16.5741 5.14538Z" fill="black"/>
<path d="M13.1347 5.78324L13.648 4.00832L14.161 5.78734L14.7861 5.78309L15.3929 2.73453L14.7463 2.60586L14.4129 4.28148L13.9514 2.68129L13.3458 2.68055L12.883 4.28051L12.5509 2.60156L11.9043 2.72949L12.5092 5.7875L13.1347 5.78324Z" fill="black"/>
</svg>
