<svg width="38" height="42" viewBox="0 0 38 42" fill="none" xmlns="http://www.w3.org/2000/svg">
<path d="M37.0359 26.924L37.036 26.924C37.6606 27.3711 37.8043 28.2396 37.3573 28.864L29.2378 40.2058L29.2376 40.2061C29.223 40.2265 29.2075 40.2469 29.1915 40.2666L29.191 40.2672C28.4976 41.1303 27.4661 41.6676 26.362 41.7412C26.2742 41.747 26.1867 41.75 26.0999 41.75C25.086 41.75 24.1004 41.3587 23.362 40.6564C23.3619 40.6562 23.3618 40.6561 23.3617 40.656L18.1221 35.6247L18.1221 35.6247C17.5681 35.0929 17.5501 34.2127 18.0822 33.6586C18.6143 33.1045 19.4946 33.0868 20.0483 33.6186L20.2215 33.4383L20.0483 33.6186L25.2836 38.6456L25.2844 38.6463C25.609 38.9554 25.9868 38.9783 26.1763 38.966L26.1768 38.9659C26.3618 38.9535 26.7144 38.8842 26.9951 38.5587L27.0025 38.5501L27.0091 38.541L35.0958 27.245C35.5429 26.6209 36.4115 26.477 37.0359 26.924ZM17.6016 40.3594C17.6016 41.1275 16.9791 41.75 16.2109 41.75H6.77734C3.29675 41.75 0.464844 38.9181 0.464844 35.4375V6.5625C0.464844 3.0819 3.29675 0.25 6.77734 0.25H26.9481C30.4283 0.25 33.2606 3.08191 33.2606 6.5625V23.9531C33.2606 24.7212 32.6378 25.3438 31.8699 25.3438C31.1018 25.3438 30.4793 24.7212 30.4793 23.9531V6.5625C30.4793 4.61526 28.8953 3.03125 26.9481 3.03125H6.77734C4.8301 3.03125 3.24609 4.61526 3.24609 6.5625V35.4375C3.24609 37.3847 4.8301 38.9688 6.77734 38.9688H16.2109C16.9791 38.9688 17.6016 39.5913 17.6016 40.3594ZM8.409 10.0938H25.3074C26.0753 10.0938 26.6981 10.7163 26.6981 11.4844C26.6981 12.2525 26.0753 12.875 25.3074 12.875H8.409C7.64088 12.875 7.01837 12.2525 7.01837 11.4844C7.01837 10.7163 7.64088 10.0938 8.409 10.0938ZM25.3074 16.6562C26.0753 16.6562 26.6981 17.2788 26.6981 18.0469C26.6981 18.815 26.0753 19.4375 25.3074 19.4375H8.409C7.64088 19.4375 7.01837 18.815 7.01837 18.0469C7.01837 17.2788 7.64088 16.6562 8.409 16.6562H25.3074ZM7.01837 24.6094C7.01837 23.8413 7.64088 23.2188 8.409 23.2188H18.6719C19.44 23.2188 20.0625 23.8413 20.0625 24.6094C20.0625 25.3775 19.44 26 18.6719 26H8.409C7.64088 26 7.01837 25.3775 7.01837 24.6094Z" fill="#11006F" stroke="#FCAF17" stroke-width="0.5"/>
</svg>
