<svg width="24" height="24" viewBox="0 0 24 24" fill="none" xmlns="http://www.w3.org/2000/svg">
<g style="mix-blend-mode:screen">
<path d="M12 24C18.6274 24 24 18.6274 24 12C24 5.37258 18.6274 0 12 0C5.37258 0 0 5.37258 0 12C0 18.6274 5.37258 24 12 24Z" fill="black"/>
</g>
<path d="M12 24C18.6274 24 24 18.6274 24 12C24 5.37258 18.6274 0 12 0C5.37258 0 0 5.37258 0 12C0 18.6274 5.37258 24 12 24Z" fill="black" fill-opacity="0.6"/>
<path fill-rule="evenodd" clip-rule="evenodd" d="M16.8827 12.6541C17.2219 12.4645 17.2187 12.1505 16.8827 11.9557L9.81233 7.68213C9.47993 7.48933 9.20433 7.64613 9.19988 8.03013V16.4737C9.19553 16.8573 9.46593 17.0181 9.80073 16.8309L16.8827 12.6541Z" fill="#FEFEFE"/>
</svg>
