<svg width="18" height="18" viewBox="0 0 18 18" fill="none" xmlns="http://www.w3.org/2000/svg">
<path d="M17.9899 3.888C17.9865 3.84975 17.9786 3.81375 17.9674 3.77663C17.9561 3.7395 17.9426 3.70575 17.9246 3.672C17.9167 3.65737 17.9156 3.63937 17.9055 3.62475L15.6555 0.24975C15.5509 0.0945 15.3754 0 15.1875 0H2.8125C2.62462 0 2.44913 0.0945 2.3445 0.250875L0.0945 3.62588C0.084375 3.6405 0.08325 3.65738 0.075375 3.67313C0.057375 3.70688 0.043875 3.74063 0.032625 3.77775C0.021375 3.81488 0.0135 3.85088 0.010125 3.88913C0.007875 3.90488 0 3.9195 0 3.9375V16.875C0 17.496 0.505125 18 1.125 18H16.875C17.4949 18 18 17.496 18 16.875V3.9375C18 3.9195 17.9921 3.90488 17.9899 3.888ZM14.886 1.125L16.3867 3.375H11.1645L10.7887 1.125H14.886ZM8.35087 1.125H9.648L10.0238 3.375H7.97625L8.35087 1.125ZM7.875 4.5H10.125V6.53288L9.17775 6.21563C9.06187 6.1785 8.937 6.1785 8.82225 6.21563L7.875 6.53288V4.5ZM3.114 1.125H7.21125L6.8355 3.375H1.61325L3.114 1.125ZM16.875 16.6875V16.875H1.125V4.5H6.75V7.3125C6.75 7.49363 6.83663 7.6635 6.984 7.76813C7.13025 7.875 7.31812 7.89975 7.49025 7.84687L9 7.34287L10.5098 7.84575C10.5683 7.86488 10.6279 7.875 10.6875 7.875C10.8045 7.875 10.9192 7.839 11.016 7.76813C11.1634 7.6635 11.25 7.49363 11.25 7.3125V4.5H16.875V16.875H16.8761L16.875 16.6875Z" fill="#11006F"/>
<path d="M6.1875 12.375H2.8125C2.502 12.375 2.25 12.627 2.25 12.9375C2.25 13.248 2.502 13.5 2.8125 13.5H6.1875C6.498 13.5 6.75 13.248 6.75 12.9375C6.75 12.627 6.498 12.375 6.1875 12.375Z" fill="#11006F"/>
<path d="M4.5 14.625H2.8125C2.502 14.625 2.25 14.877 2.25 15.1875C2.25 15.498 2.502 15.75 2.8125 15.75H4.5C4.8105 15.75 5.0625 15.498 5.0625 15.1875C5.0625 14.877 4.8105 14.625 4.5 14.625Z" fill="#11006F"/>
</svg>
