<svg width="22" height="21" viewBox="0 0 22 21" fill="none" xmlns="http://www.w3.org/2000/svg">
<path d="M18.6902 20.0001H2.40448C1.15682 20.0001 0.142578 18.985 0.142578 17.7382V5.07152C0.142578 4.82181 0.345245 4.61914 0.594959 4.61914C0.844673 4.61914 1.04734 4.82181 1.04734 5.07152V17.7382C1.04734 18.4864 1.65624 19.0953 2.40448 19.0953H18.6902C18.939 19.0953 19.1426 18.8927 19.1426 18.643V15.9287C19.1426 15.679 19.3452 15.4763 19.595 15.4763C19.8447 15.4763 20.0473 15.679 20.0473 15.9287V18.643C20.0473 19.3912 19.4384 20.0001 18.6902 20.0001Z" fill="#11006F" stroke="#11006F" stroke-width="0.25"/>
<path d="M19.595 10.9524C19.3452 10.9524 19.1426 10.7498 19.1426 10.5V7.78576C19.1426 7.53605 18.939 7.33338 18.6902 7.33338H2.40448C1.79377 7.33338 1.22558 7.09543 0.803959 6.66295C0.380531 6.25038 0.142578 5.68219 0.142578 5.07148C0.142578 3.82471 1.15682 2.80957 2.40448 2.80957H10.1402C10.3899 2.80957 10.5926 3.01224 10.5926 3.26195C10.5926 3.51167 10.3899 3.71433 10.1402 3.71433H2.40448C1.65624 3.71433 1.04734 4.32324 1.04734 5.07148C1.04734 5.43609 1.18848 5.77357 1.44363 6.02328C1.70239 6.28748 2.04077 6.42862 2.40448 6.42862H18.6902C19.4384 6.42862 20.0473 7.03752 20.0473 7.78576V10.5C20.0473 10.7498 19.8447 10.9524 19.595 10.9524Z" fill="#11006F" stroke="#11006F" stroke-width="0.25"/>
<path d="M16.88 7.33338C16.6303 7.33338 16.4277 7.13071 16.4277 6.881V4.16671C16.4277 3.917 16.2241 3.71433 15.9753 3.71433H14.3196C14.0699 3.71433 13.8672 3.51167 13.8672 3.26195C13.8672 3.01224 14.0699 2.80957 14.3196 2.80957H15.9753C16.7235 2.80957 17.3324 3.41848 17.3324 4.16671V6.881C17.3324 7.13071 17.1298 7.33338 16.88 7.33338Z" fill="#11006F" stroke="#11006F" stroke-width="0.25"/>
<path d="M16.4286 7.33301C16.273 7.33301 16.1219 7.25249 16.0377 7.10863L13.1018 2.07544L4.44681 7.26878C4.2351 7.39725 3.95553 7.32849 3.82615 7.11316C3.69767 6.89963 3.76734 6.62097 3.98177 6.49249L13.0294 1.06392C13.1325 1.00149 13.2574 0.985204 13.3741 1.01325C13.4917 1.04311 13.5912 1.11911 13.6528 1.22316L16.8194 6.65173C16.9461 6.86797 16.8728 7.14482 16.6566 7.27059C16.5851 7.31311 16.5064 7.33301 16.4286 7.33301Z" fill="#11006F" stroke="#11006F" stroke-width="0.25"/>
<path d="M21.4053 16.3812H16.8815C15.1353 16.3812 13.7148 14.9607 13.7148 13.2145C13.7148 11.4683 15.1353 10.0479 16.8815 10.0479H21.4053C21.655 10.0479 21.8577 10.2505 21.8577 10.5002V15.9288C21.8577 16.1785 21.655 16.3812 21.4053 16.3812ZM16.8815 10.9526C15.6338 10.9526 14.6196 11.9678 14.6196 13.2145C14.6196 14.4613 15.6338 15.4764 16.8815 15.4764H20.9529V10.9526H16.8815Z" fill="#11006F" stroke="#11006F" stroke-width="0.25"/>
<path d="M16.8806 14.5717C16.1323 14.5717 15.5234 13.9628 15.5234 13.2146C15.5234 12.4663 16.1323 11.8574 16.8806 11.8574C17.6288 11.8574 18.2377 12.4663 18.2377 13.2146C18.2377 13.9628 17.6288 14.5717 16.8806 14.5717ZM16.8806 12.7622C16.6318 12.7622 16.4282 12.9649 16.4282 13.2146C16.4282 13.4643 16.6318 13.6669 16.8806 13.6669C17.1294 13.6669 17.333 13.4643 17.333 13.2146C17.333 12.9649 17.1294 12.7622 16.8806 12.7622Z" fill="#11006F" stroke="#11006F" stroke-width="0.25"/>
</svg>
