<svg width="20" height="18" viewBox="0 0 20 18" fill="none" xmlns="http://www.w3.org/2000/svg">
<path d="M17.0703 9.47449H15.1126C14.8461 9.47449 14.5882 9.5109 14.3427 9.57785C13.8584 8.62582 12.8696 7.97168 11.7303 7.97168H8.26973C7.13039 7.97168 6.14164 8.62582 5.65734 9.57785C5.41184 9.5109 5.15387 9.47449 4.88742 9.47449H2.92969C1.31426 9.47449 0 10.7888 0 12.4042V15.5338C0 16.503 0.788555 17.2916 1.75781 17.2916H18.2422C19.2114 17.2916 20 16.503 20 15.5338V12.4042C20 10.7888 18.6857 9.47449 17.0703 9.47449ZM5.34004 10.9014V16.1198H1.75781C1.43473 16.1198 1.17188 15.8569 1.17188 15.5338V12.4042C1.17188 11.435 1.96043 10.6464 2.92969 10.6464H4.88742C5.04648 10.6464 5.20051 10.668 5.34715 10.7078C5.34293 10.7719 5.34004 10.8364 5.34004 10.9014ZM13.4881 16.1198H6.51191V10.9014C6.51191 9.93215 7.30047 9.14359 8.26973 9.14359H11.7303C12.6995 9.14359 13.4881 9.93215 13.4881 10.9014V16.1198ZM18.8281 15.5338C18.8281 15.8569 18.5653 16.1198 18.2422 16.1198H14.66V10.9014C14.66 10.8363 14.6571 10.7718 14.6529 10.7078C14.7995 10.668 14.9535 10.6464 15.1126 10.6464H17.0703C18.0396 10.6464 18.8281 11.4349 18.8281 12.4042V15.5338Z" fill="black"/>
<path d="M3.90805 3.94141C2.47254 3.94141 1.30469 5.10926 1.30469 6.54477C1.30465 7.98027 2.47254 9.14812 3.90805 9.14812C5.34351 9.14812 6.51141 7.98027 6.51141 6.54477C6.51141 5.10926 5.34355 3.94141 3.90805 3.94141ZM3.90801 7.97625C3.11867 7.97625 2.47652 7.3341 2.47652 6.54477C2.47652 5.75543 3.11867 5.11328 3.90801 5.11328C4.69734 5.11328 5.33949 5.75543 5.33949 6.54477C5.33949 7.3341 4.69734 7.97625 3.90801 7.97625Z" fill="black"/>
<path d="M9.99953 0.708008C8.08172 0.708008 6.52148 2.26824 6.52148 4.18605C6.52148 6.10386 8.08172 7.6641 9.99953 7.6641C11.9173 7.6641 13.4776 6.10386 13.4776 4.18605C13.4776 2.26828 11.9173 0.708008 9.99953 0.708008ZM9.99953 6.49222C8.72789 6.49222 7.69336 5.45769 7.69336 4.18605C7.69336 2.91445 8.72789 1.87988 9.99953 1.87988C11.2712 1.87988 12.3057 2.91441 12.3057 4.18605C12.3057 5.45769 11.2712 6.49222 9.99953 6.49222Z" fill="black"/>
<path d="M16.0916 3.94141C14.6562 3.94141 13.4883 5.10926 13.4883 6.54477C13.4883 7.98027 14.6562 9.14812 16.0916 9.14812C17.5271 9.14812 18.695 7.98027 18.695 6.54477C18.695 5.10926 17.5271 3.94141 16.0916 3.94141ZM16.0916 7.97625C15.3023 7.97625 14.6602 7.3341 14.6602 6.54477C14.6602 5.75543 15.3023 5.11328 16.0916 5.11328C16.881 5.11328 17.5231 5.75543 17.5231 6.54477C17.5231 7.3341 16.881 7.97625 16.0916 7.97625Z" fill="black"/>
</svg>
