<svg width="16" height="22" viewBox="0 0 16 22" fill="none" xmlns="http://www.w3.org/2000/svg">
<path d="M13.978 1H7.51983C7.45066 1.02808 7.38995 1.0736 7.34361 1.13216L1.13216 7.29954C1.07934 7.35637 1.04283 7.42637 1.02643 7.5022V7.55506C1.02536 7.57265 1.02536 7.59033 1.02643 7.60792L1 19.1762C1.00483 20.1814 1.81856 20.9952 2.82379 21H13.978C14.9832 20.9952 15.7969 20.1814 15.8018 19.1762V2.82379C15.8018 1.81653 14.9852 1 13.978 1ZM4.87666 4.8326L7.22029 2.50661V6.25991C7.21546 6.78198 6.79085 7.20265 6.26875 7.20265H2.50661L4.87666 4.8326ZM14.9207 2.82379V19.1762C14.9159 19.6949 14.4966 20.1142 13.978 20.119H2.83263C2.31052 20.119 1.88592 19.6983 1.88108 19.1762V8.0837H6.28638C7.29161 8.07886 8.10534 7.26514 8.11017 6.25991V1.85461H13.9868C14.5074 1.85928 14.9257 2.28512 14.921 2.80574C14.921 2.81177 14.9209 2.81776 14.9207 2.82379Z" fill="black" stroke="black" stroke-width="0.25"/>
<path d="M5.15948 10.1191H4.27843C4.03514 10.1191 3.83789 10.3164 3.83789 10.5597V11.4407C3.83789 11.684 4.03514 11.8813 4.27843 11.8813H5.15948C5.40278 11.8813 5.60002 11.684 5.60002 11.4407V10.5597C5.59998 10.3164 5.40278 10.1191 5.15948 10.1191Z" fill="black"/>
<path d="M12.9651 10.5508H6.46289V11.4318H12.9651V10.5508Z" fill="black" stroke="black" stroke-width="0.25"/>
<path d="M5.15948 13.3701H4.27843C4.03514 13.3701 3.83789 13.5674 3.83789 13.8107V14.7094C3.83789 14.9526 4.03514 15.1499 4.27843 15.1499H5.15948C5.40278 15.1499 5.60002 14.9526 5.60002 14.7094V13.8107C5.59998 13.5674 5.40278 13.3701 5.15948 13.3701Z" fill="black"/>
<path d="M12.9651 13.8193H6.46289V14.7004H12.9651V13.8193Z" fill="black" stroke="black" stroke-width="0.25"/>
<path d="M5.15948 16.6377H4.27843C4.03514 16.6377 3.83789 16.8349 3.83789 17.0782V17.9593C3.83789 18.2026 4.03514 18.3998 4.27843 18.3998H5.15948C5.40278 18.3998 5.60002 18.2026 5.60002 17.9593V17.0782C5.59998 16.8349 5.40278 16.6377 5.15948 16.6377Z" fill="black"/>
<path d="M12.9651 17.0703H6.46289V17.9514H12.9651V17.0703Z" fill="black" stroke="black" stroke-width="0.25"/>
</svg>
