<svg width="18" height="16" viewBox="0 0 18 16" fill="none" xmlns="http://www.w3.org/2000/svg">
<path d="M16.9137 4.88256C16.91 4.87867 16.9062 4.87487 16.9023 4.87118L13.5995 1.93569C13.5693 1.90822 13.5342 1.88691 13.4959 1.8729L11.1066 1.01893C10.9437 0.959753 10.7636 1.04393 10.7044 1.20692C10.6937 1.23631 10.6875 1.26712 10.6859 1.29836C10.6859 1.36743 10.5823 2.95918 8.99058 2.9843C7.3894 2.95918 7.28893 1.36743 7.28579 1.29836C7.27653 1.12521 7.12866 0.992366 6.95551 1.00163C6.92576 1.00324 6.89637 1.00904 6.86823 1.01893L4.48216 1.88231C4.44386 1.89632 4.4087 1.91763 4.37856 1.94511L1.09771 4.87118C0.972015 4.9906 0.966913 5.18933 1.08633 5.31503C1.09002 5.31892 1.09383 5.32273 1.09771 5.32641L3.70983 7.96679V15.1878C3.70983 15.3612 3.85041 15.5017 4.02379 15.5017H13.9762C14.1496 15.5017 14.2902 15.3612 14.2902 15.1878V7.96679L16.9023 5.32641C17.028 5.20699 17.0331 5.0083 16.9137 4.88256ZM14.2807 7.07201V5.61525C14.2807 5.44187 14.1402 5.3013 13.9668 5.3013C13.7934 5.3013 13.6528 5.44187 13.6528 5.61525V14.8581H4.32519V5.61525C4.32519 5.44187 4.18461 5.3013 4.01123 5.3013C3.83785 5.3013 3.69727 5.44187 3.69727 5.61525V7.07515L1.76644 5.1192L4.75531 2.4443L6.72067 1.73475C6.96415 2.98925 8.17849 3.80887 9.43298 3.56539C10.3594 3.38558 11.0838 2.6612 11.2636 1.73475L13.229 2.4443L16.2084 5.1192L14.2807 7.07201Z" fill="white" stroke="white" stroke-width="0.25"/>
</svg>
