<svg width="18" height="20" viewBox="0 0 18 20" fill="none" xmlns="http://www.w3.org/2000/svg">
<path d="M16.9408 3.23975C15.9451 2.89459 15.1474 2.08511 14.8069 1.07437C14.5904 0.431671 13.9942 0 13.3231 0H4.67692C4.006 0 3.40963 0.431671 3.19309 1.07437C2.85257 2.08511 2.05494 2.89459 1.05922 3.23975C0.425655 3.45947 0 4.06296 0 4.74152V6.9487C0 9.82895 0.855242 12.6022 2.47334 14.9689C3.95383 17.1342 5.99395 18.8287 8.37339 19.8694C8.57253 19.9565 8.78619 20 9 20C9.21366 20 9.42732 19.9565 9.62646 19.8694C12.0059 18.8289 14.046 17.1342 15.5265 14.9689C17.1446 12.6022 18 9.8288 18 6.9487V4.74152C18 4.06296 17.5743 3.45947 16.9408 3.23975ZM16.8387 6.9487C16.8387 9.59 16.0544 12.1332 14.5706 14.3034C13.2138 16.288 11.3444 17.8409 9.16467 18.7941C9.06018 18.8399 8.93997 18.84 8.83518 18.7941C6.65534 17.8409 4.78609 16.288 3.42928 14.3034C1.94561 12.1333 1.16129 9.59015 1.16129 6.9487V4.74152C1.16129 4.56329 1.27198 4.40521 1.43664 4.34814C2.76956 3.88596 3.83725 2.80319 4.29254 1.45157C4.34894 1.28433 4.50333 1.17188 4.67692 1.17188H13.3231C13.4965 1.17188 13.6511 1.28433 13.7075 1.45157C14.1628 2.80319 15.2304 3.88596 16.5634 4.34814C16.728 4.40521 16.8387 4.56329 16.8387 4.74152V6.9487Z" fill="black"/>
<path d="M11.5531 7.28654H11.5123V5.54982C11.5123 4.14389 10.3852 3 9 3C7.61477 3 6.48772 4.14389 6.48772 5.54982V7.28654H6.44688C5.64904 7.28654 5 7.94544 5 8.7552V12.2649C5 13.7729 6.20889 15 7.69457 15H10.3054C11.7913 15 13 13.7729 13 12.2649V8.7552C13 7.94544 12.351 7.28654 11.5531 7.28654ZM7.68941 5.54982C7.68941 4.81644 8.27742 4.21964 9 4.21964C9.72258 4.21964 10.3106 4.81644 10.3106 5.54982V7.2867H7.68941V5.54982ZM11.7983 12.2649C11.7983 13.1005 11.1286 13.7802 10.3054 13.7802H7.69457C6.87138 13.7802 6.20169 13.1005 6.20169 12.2649V8.7552C6.20169 8.61799 6.31169 8.50635 6.44688 8.50635H11.5531C11.6883 8.50635 11.7983 8.61799 11.7983 8.7552V12.2649Z" fill="black"/>
<path d="M9.5 10C9.22383 10 9 10.2302 9 10.5142V11.4858C9 11.7698 9.22383 12 9.5 12C9.77617 12 10 11.7698 10 11.4858V10.5142C10 10.2302 9.77617 10 9.5 10Z" fill="black"/>
</svg>
