<svg width="17" height="20" viewBox="0 0 17 20" fill="none" xmlns="http://www.w3.org/2000/svg">
<path d="M6.87465 0H0.624968C0.27979 0 0 0.27979 0 0.624968V19.374C0 19.7192 0.27979 19.999 0.624968 19.999H6.87465C7.21983 19.999 7.49962 19.7192 7.49962 19.374V0.624968C7.49962 0.27979 7.21979 0 6.87465 0ZM6.24968 18.749H1.24994V16.8741H4.37478V15.6242H1.24994V13.7493H3.12484V12.4994H1.24994V10.6245H4.37478V9.37452H1.24994V7.49962H3.12484V6.24968H1.24994V4.37478H4.37478V3.12484H1.24994V1.24994H6.24968V18.749Z" fill="black"/>
<path d="M15.1856 15.8122L13.1232 17.8684V2.13165L15.1794 4.1878L16.0606 3.30659L12.9357 0.181749C12.692 -0.0605829 12.2983 -0.0605829 12.0545 0.181749L8.92969 3.30659L9.81089 4.1878L11.8733 2.13165V17.8684L9.81714 15.8122L8.93594 16.6934L12.0608 19.8183C12.3046 20.0606 12.6982 20.0606 12.942 19.8183L16.0668 16.6934L15.1856 15.8122Z" fill="black"/>
</svg>
