<svg width="14" height="16" viewBox="0 0 14 16" fill="none" xmlns="http://www.w3.org/2000/svg">
<path d="M11.6669 0H2.38355C1.62748 0 0.963623 0.621981 0.963623 1.3582V15.0911C0.963623 15.3376 1.03221 15.543 1.14275 15.7016C1.27495 15.8913 1.48781 16.0001 1.71607 16C1.93187 16 2.16163 15.9039 2.37381 15.7227L6.5272 12.1963C6.65547 12.0867 6.83973 12.0239 7.03132 12.0239C7.22282 12.0239 7.40671 12.0867 7.53536 12.1966L11.6749 15.7222C11.8878 15.9039 12.1017 16.0001 12.3171 16.0001C12.6814 16.0001 13.0365 15.7191 13.0365 15.0912V1.3582C13.0365 0.621981 12.423 0 11.6669 0Z" fill="#11006F"/>
</svg>
