<svg width="16" height="16" viewBox="0 0 16 16" fill="none" xmlns="http://www.w3.org/2000/svg">
<path d="M15.8056 14.8613L11.9567 11.0124C13.0528 9.67392 13.5924 7.96529 13.4638 6.24006C13.3352 4.51484 12.5482 2.90509 11.2657 1.74396C9.98328 0.582817 8.3035 -0.0408299 6.57403 0.00207568C4.84455 0.0449813 3.19776 0.751155 1.97446 1.97446C0.751155 3.19776 0.0449813 4.84455 0.00207568 6.57403C-0.0408299 8.30351 0.582817 9.98328 1.74396 11.2657C2.90509 12.5482 4.51484 13.3352 6.24006 13.4638C7.96529 13.5924 9.67392 13.0528 11.0124 11.9567L14.8613 15.8023C14.9231 15.8643 14.9965 15.9136 15.0773 15.9472C15.1581 15.9808 15.2447 15.9982 15.3323 15.9984C15.4198 15.9985 15.5065 15.9814 15.5875 15.9481C15.6684 15.9147 15.742 15.8657 15.804 15.804C15.866 15.7422 15.9152 15.6688 15.9488 15.5879C15.9825 15.5071 15.9998 15.4205 16 15.3329C16.0001 15.2454 15.9831 15.1587 15.9497 15.0778C15.9163 14.9968 15.8674 14.9233 15.8056 14.8613ZM6.73913 12.1395C5.67005 12.1391 4.6251 11.8217 3.73639 11.2274C2.84769 10.6332 2.15516 9.78876 1.74636 8.80092C1.33757 7.81309 1.23087 6.72622 1.43977 5.67774C1.64867 4.62927 2.16377 3.66629 2.91995 2.91056C3.67613 2.15483 4.63942 1.6403 5.68802 1.43203C6.73661 1.22377 7.82342 1.33111 8.81101 1.74049C9.7986 2.14988 10.6426 2.84292 11.2363 3.73197C11.8301 4.62103 12.1468 5.66618 12.1466 6.73526C12.1449 8.16858 11.5745 9.54265 10.5607 10.5559C9.54687 11.5691 8.17245 12.1386 6.73913 12.1395Z" fill="#11006F"/>
</svg>
