<svg width="24" height="24" viewBox="0 0 24 24" fill="none" xmlns="http://www.w3.org/2000/svg">
<path fill-rule="evenodd" clip-rule="evenodd" d="M11.0359 2.64243C8.8098 2.64243 6.67487 3.52679 5.10077 5.10096C3.52667 6.67513 2.64235 8.81017 2.64235 11.0364C2.64235 13.2626 3.52667 15.3976 5.10077 16.9718C6.67486 18.546 8.8098 19.4303 11.0359 19.4303C13.262 19.4303 15.397 18.546 16.9711 16.9718C18.5452 15.3976 19.4295 13.2626 19.4295 11.0364C19.4295 8.81017 18.5452 6.67513 16.9711 5.10096C15.397 3.52679 13.262 2.64243 11.0359 2.64243ZM3.93945 3.93959C5.82155 2.0574 8.37422 1 11.0359 1C13.6976 1 16.2503 2.0574 18.1324 3.93959C20.0145 5.82178 21.0718 8.37457 21.0718 11.0364C21.0718 13.4213 20.223 15.7186 18.6928 17.5246L23 21.8397L21.8377 23L17.5321 18.6866C15.725 20.2213 13.4243 21.0728 11.0359 21.0728C8.37422 21.0728 5.82155 20.0154 3.93945 18.1332C2.05735 16.251 1 13.6982 1 11.0364C1 8.37457 2.05735 5.82178 3.93945 3.93959Z" fill="black"/>
</svg>
