<svg width="20" height="18" viewBox="0 0 20 18" fill="none" xmlns="http://www.w3.org/2000/svg">
<path d="M19.9923 5.30559L18.5648 1.13916C18.5152 0.995427 18.4185 0.871464 18.2896 0.786199C18.1607 0.700935 18.0067 0.659056 17.8511 0.66696H2.14892C1.99328 0.659056 1.83925 0.700935 1.71037 0.786199C1.58149 0.871464 1.48484 0.995427 1.43518 1.13916L0.00771216 5.30559C-0.00257072 5.37932 -0.00257072 5.45406 0.00771216 5.5278V9.69423C0.00771216 9.8784 0.082909 10.055 0.21676 10.1852C0.350612 10.3155 0.532153 10.3886 0.721447 10.3886H1.43518V17.3327H2.86265V10.3886H7.14506V17.3327H18.5648V10.3886H19.2786C19.4678 10.3886 19.6494 10.3155 19.7832 10.1852C19.9171 10.055 19.9923 9.8784 19.9923 9.69423V5.5278C20.0026 5.45406 20.0026 5.37932 19.9923 5.30559ZM17.1374 15.9439H8.57253V10.3886H17.1374V15.9439ZM18.5648 8.99982H15.7099V6.2222H14.2824V8.99982H10.7137V6.2222H9.28627V8.99982H5.71759V6.2222H4.29012V8.99982H1.43518V5.6389L2.66281 2.05577H17.3372L18.5648 5.6389V8.99982Z" fill="black" stroke="white" stroke-width="0.25"/>
</svg>
