<svg width="80" height="80" viewBox="0 0 80 80" fill="none" xmlns="http://www.w3.org/2000/svg">
<g clip-path="url(#clip0_10407_6959)">
<path d="M50.5536 51.6272C62.7838 51.6272 72.7344 41.6772 72.7344 29.4464C72.7344 17.2162 62.7838 7.26562 50.5536 7.26562C38.3234 7.26562 28.3728 17.2162 28.3728 29.4464C28.3728 41.6772 38.3234 51.6272 50.5536 51.6272ZM50.5536 10.3906C61.0608 10.3906 69.6094 18.9392 69.6094 29.4464C69.6094 39.9536 61.0608 48.5022 50.5536 48.5022C40.0464 48.5022 31.4978 39.9542 31.4978 29.4464C31.4978 18.9392 40.0464 10.3906 50.5536 10.3906Z" fill="#7A7A9D" stroke="white" stroke-width="1.25"/>
<path d="M50.3217 59.3567C66.6864 59.3567 80 46.0431 80 29.6783C80 13.3136 66.6864 0 50.3217 0C33.9569 0 20.6433 13.3136 20.6433 29.6783C20.6433 35.8893 22.5623 41.6589 25.8368 46.4301L20.9821 51.2848L20.321 50.6238C19.7107 50.0134 18.7213 50.0134 18.111 50.6238L2.33337 66.4014C0.828857 67.9059 0 69.9066 0 72.0343C0 74.162 0.828857 76.1621 2.33337 77.6666C3.83789 79.1711 5.83801 80 7.9657 80C10.0934 80 12.0941 79.1711 13.5986 77.6666L29.3768 61.889C29.6698 61.5961 29.834 61.1987 29.834 60.7843C29.834 60.3699 29.6698 59.9719 29.3768 59.679L28.7152 59.0179L33.5699 54.1632C38.3411 57.4377 44.1113 59.3567 50.3217 59.3567ZM50.3217 3.125C64.9634 3.125 76.875 15.0366 76.875 29.6783C76.875 44.3201 64.9634 56.2317 50.3217 56.2317C35.6805 56.2317 23.7683 44.3201 23.7683 29.6783C23.7683 15.0366 35.6805 3.125 50.3217 3.125ZM11.3892 75.4572C10.4742 76.3715 9.25903 76.875 7.9657 76.875C6.67236 76.875 5.45715 76.3715 4.54285 75.4572C2.65503 73.5699 2.65503 70.4987 4.54285 68.6108L19.2157 53.938L19.8767 54.5984C19.8767 54.599 19.8773 54.599 19.8773 54.5996L26.062 60.7843L11.3892 75.4572ZM26.5057 56.8079L23.1921 53.4943L27.7551 48.9313C28.7714 50.1202 29.8798 51.2286 31.0687 52.2449L26.5057 56.8079Z" fill="#7A7A9D" stroke="white" stroke-width="1.25"/>
<path d="M45.2045 25.3386C46.0675 25.3386 46.767 24.6392 46.767 23.7761C46.767 22.7007 47.2272 21.6723 48.0286 20.9545C48.8416 20.2263 49.8932 19.8925 50.9912 20.0139C52.7259 20.2056 54.1242 21.6039 54.3158 23.3385C54.4843 24.8681 53.7317 26.3384 52.3975 27.0842C50.2966 28.2592 48.9911 30.432 48.9911 32.7544V34.984C48.9911 35.8471 49.6906 36.5465 50.5536 36.5465C51.416 36.5465 52.1161 35.8471 52.1161 34.984V32.7544C52.1161 31.5624 52.8083 30.4351 53.9228 29.8119C56.3556 28.4514 57.7289 25.7756 57.4219 22.9955C57.071 19.8186 54.5105 17.2588 51.3342 16.9078C49.3714 16.6912 47.4054 17.3174 45.9436 18.6266C44.4812 19.9364 43.642 21.8132 43.642 23.7761C43.642 24.6392 44.3414 25.3386 45.2045 25.3386Z" fill="#7A7A9D" stroke="white" stroke-width="1.25"/>
<path d="M50.553 39.5142C50.1422 39.5142 49.7394 39.6814 49.4489 39.9719C49.1583 40.2625 48.9905 40.6659 48.9905 41.0767C48.9905 41.4893 49.1577 41.8909 49.4489 42.1814C49.7394 42.4731 50.1422 42.6392 50.553 42.6392C50.9644 42.6392 51.3672 42.4731 51.6577 42.1814C51.9482 41.8909 52.1155 41.4874 52.1155 41.0767C52.1155 40.6659 51.9489 40.2625 51.6577 39.9719C51.3672 39.6814 50.9644 39.5142 50.553 39.5142Z" fill="#7A7A9D"/>
</g>
<defs>
<clipPath id="clip0_10407_6959">
<rect width="80" height="80" fill="white"/>
</clipPath>
</defs>
</svg>
