<svg width="11" height="8" viewBox="0 0 11 8" fill="none" xmlns="http://www.w3.org/2000/svg">
<path d="M6.23043 7.14645C6.03517 7.34171 6.03517 7.65829 6.23043 7.85355C6.42569 8.04882 6.74228 8.04882 6.93754 7.85355L6.23043 7.14645ZM10.084 4L10.4375 4.35355L10.7911 4L10.4375 3.64645L10.084 4ZM6.93754 0.146446C6.74228 -0.048816 6.42569 -0.048816 6.23043 0.146446C6.03517 0.341708 6.03517 0.658291 6.23043 0.853553L6.93754 0.146446ZM1.33398 3.5C1.05784 3.5 0.833985 3.72386 0.833985 4C0.833985 4.27614 1.05784 4.5 1.33398 4.5L1.33398 3.5ZM6.93754 7.85355L10.4375 4.35355L9.73043 3.64645L6.23043 7.14645L6.93754 7.85355ZM10.4375 3.64645L6.93754 0.146446L6.23043 0.853553L9.73043 4.35355L10.4375 3.64645ZM10.084 3.5L1.33398 3.5L1.33398 4.5L10.084 4.5L10.084 3.5Z" fill="#7A7A9D"/>
</svg>
