<svg width="24" height="24" viewBox="0 0 24 24" fill="none" xmlns="http://www.w3.org/2000/svg">
<path d="M4.90881 21.9492C5.9789 21.5989 7.0508 21.2487 8.1209 20.8966C8.57874 21.9311 9.03479 22.9655 9.49263 24C10.3293 23.2418 11.166 22.4835 12.0009 21.7253C12.1535 21.8625 12.3043 22.0015 12.4569 22.1387C13.141 22.7597 13.8251 23.379 14.5092 24C14.967 22.9655 15.4231 21.9311 15.8809 20.8966C16.951 21.2469 18.0229 21.5971 19.093 21.9492C19.093 20.8172 19.0912 19.6853 19.0912 18.5515C20.2116 18.4342 21.3319 18.3168 22.4505 18.1995C21.9909 17.165 21.533 16.1306 21.0734 15.0979C22.0483 14.5329 23.0251 13.9678 24 13.4009C23.1633 12.6445 22.3248 11.8863 21.4881 11.1298C21.5528 11.0396 21.6192 10.9493 21.6838 10.859C22.2817 10.034 22.8778 9.20897 23.4757 8.38393C22.4038 8.0355 21.3337 7.68527 20.2618 7.33684C20.497 6.23018 20.7323 5.12171 20.9657 4.01504C19.8453 4.1342 18.7267 4.25335 17.6063 4.3725C17.3729 3.26403 17.1395 2.15736 16.9061 1.04889C15.9312 1.61577 14.9562 2.18264 13.9813 2.74951C13.4804 2.05446 12.9794 1.36122 12.4785 0.666165C12.3205 0.44411 12.1607 0.222055 12.0009 0C11.3402 0.917105 10.6776 1.83241 10.0169 2.74951C9.04197 2.18264 8.06703 1.61577 7.09209 1.04889C6.85868 2.15556 6.62527 3.26403 6.39186 4.3725C5.27149 4.25335 4.15291 4.1342 3.03254 4.01504C3.26775 5.12171 3.50296 6.23018 3.73637 7.33684C2.66447 7.68527 1.59437 8.0355 0.522481 8.38393C1.12037 9.20897 1.71647 10.034 2.31436 10.859C2.37899 10.9493 2.44543 11.0396 2.51006 11.1298C1.67517 11.8863 0.836687 12.6445 0 13.4009C0.974938 13.966 1.95167 14.5311 2.92661 15.0979C2.46877 16.1324 2.00913 17.1668 1.55128 18.1995C2.67165 18.3168 3.79203 18.4342 4.9106 18.5515C4.90881 19.6835 4.90881 20.8172 4.90881 21.9492Z" fill="#DD0A18"/>
<path d="M8.39052 9.85034H9.47678V14.147H8.39052V12.4951H7.18756V14.147H6.09412V9.85034H7.18756V11.4408H8.39052V9.85034V9.85034Z" fill="white"/>
<path d="M12.2293 14.2399C11.6009 14.2399 11.0694 14.025 10.6367 13.5953C10.204 13.1603 9.99036 12.6313 9.99036 11.9994C9.99036 11.3676 10.204 10.8386 10.6367 10.409C11.0694 9.97387 11.6009 9.75903 12.2293 9.75903C12.8577 9.75903 13.3838 9.97387 13.8165 10.409C14.2492 10.8386 14.47 11.3658 14.47 11.9994C14.47 12.6313 14.251 13.1585 13.8165 13.5953C13.3838 14.025 12.8577 14.2399 12.2293 14.2399ZM12.2293 13.1657C12.5597 13.1657 12.8344 13.0556 13.0534 12.8407C13.2725 12.6205 13.3838 12.337 13.3838 11.9994C13.3838 11.6618 13.2743 11.3802 13.0534 11.1654C12.8344 10.9451 12.5597 10.8332 12.2293 10.8332C11.8989 10.8332 11.6242 10.9433 11.4052 11.1654C11.1861 11.3802 11.0748 11.6618 11.0748 11.9994C11.0748 12.337 11.1843 12.6187 11.4052 12.8407C11.626 13.0556 11.9007 13.1657 12.2293 13.1657Z" fill="white"/>
<path d="M17.9064 9.85034V10.9119H16.8507V14.147H15.7573V10.9137H14.7015V9.85215H17.9064V9.85034Z" fill="white"/>
</svg>
