<svg width="10" height="14" viewBox="0 0 10 14" fill="none" xmlns="http://www.w3.org/2000/svg">
<mask id="path-1-inside-1_10407_12445" fill="white">
<path fill-rule="evenodd" clip-rule="evenodd" d="M7.01859 6.99912L0.905273 1.01603L1.94338 0L9.09485 6.99912L1.94338 13.9982L0.905273 12.9822L7.01859 6.99912Z"/>
</mask>
<path fill-rule="evenodd" clip-rule="evenodd" d="M7.01859 6.99912L0.905273 1.01603L1.94338 0L9.09485 6.99912L1.94338 13.9982L0.905273 12.9822L7.01859 6.99912Z" fill="white"/>
<path d="M0.905273 1.01603L0.730407 0.837364L0.547855 1.01603L0.73041 1.1947L0.905273 1.01603ZM7.01859 6.99912L7.19346 7.17779L7.37601 6.99912L7.19346 6.82045L7.01859 6.99912ZM1.94338 0L2.11825 -0.178669L1.94338 -0.349811L1.76852 -0.178667L1.94338 0ZM9.09485 6.99912L9.26971 7.17779L9.45227 6.99912L9.26971 6.82045L9.09485 6.99912ZM1.94338 13.9982L1.76852 14.1769L1.94338 14.3481L2.11825 14.1769L1.94338 13.9982ZM0.905273 12.9822L0.73041 12.8035L0.547855 12.9822L0.730407 13.1609L0.905273 12.9822ZM0.73041 1.1947L6.84373 7.17779L7.19346 6.82045L1.08014 0.837361L0.73041 1.1947ZM1.76852 -0.178667L0.730407 0.837364L1.08014 1.1947L2.11825 0.178667L1.76852 -0.178667ZM9.26971 6.82045L2.11825 -0.178669L1.76852 0.178669L8.91998 7.17779L9.26971 6.82045ZM2.11825 14.1769L9.26971 7.17779L8.91998 6.82045L1.76852 13.8196L2.11825 14.1769ZM0.730407 13.1609L1.76852 14.1769L2.11825 13.8196L1.08014 12.8035L0.730407 13.1609ZM6.84373 6.82045L0.73041 12.8035L1.08014 13.1609L7.19346 7.17779L6.84373 6.82045Z" fill="white" mask="url(#path-1-inside-1_10407_12445)"/>
</svg>
