<svg width="32" height="24" viewBox="0 0 32 24" fill="none" xmlns="http://www.w3.org/2000/svg">
<path d="M20.8835 1H6.37782C6.13896 1.00001 5.90799 1.08551 5.7267 1.24104C5.54542 1.39658 5.42579 1.61186 5.38947 1.84795L2.69717 19.3479C2.67525 19.4904 2.6844 19.636 2.724 19.7746C2.76359 19.9133 2.8327 20.0417 2.92658 20.1511C3.02045 20.2605 3.13688 20.3484 3.26788 20.4086C3.39888 20.4688 3.54135 20.5 3.68552 20.5H7.01987C7.01987 19.837 7.28327 19.2011 7.75211 18.7322C8.22095 18.2634 8.85683 18 9.51987 18C10.1829 18 10.8188 18.2634 11.2876 18.7322C11.7565 19.2011 12.0199 19.837 12.0199 20.5H19.5199L21.8754 2.12715C21.8934 1.98625 21.8813 1.84311 21.8397 1.70728C21.7981 1.57145 21.7281 1.44603 21.6342 1.33939C21.5404 1.23274 21.4249 1.14732 21.2954 1.0888C21.166 1.03028 21.0256 1 20.8835 1Z" fill="#FFBA17"/>
<path d="M30.7852 12.9383L28.256 8.72827C28.1217 8.50661 27.9327 8.3232 27.707 8.19567C27.4814 8.06814 27.2268 8.00077 26.9676 8.00002H21.6337L22.3793 2.19067C22.4063 1.97919 22.3879 1.76438 22.3254 1.56056C22.2629 1.35675 22.1576 1.16859 22.0167 1.00863C21.8757 0.848667 21.7023 0.720571 21.508 0.632872C21.3137 0.545173 21.1029 0.499884 20.8897 0.500021H6.36435C6.00536 0.498105 5.6577 0.625614 5.38508 0.859182C5.11245 1.09275 4.93312 1.41674 4.87995 1.77177L4.5366 4.00002H3.00205C2.86944 4.00002 2.74226 4.0527 2.6485 4.14647C2.55473 4.24023 2.50205 4.36741 2.50205 4.50002C2.50205 4.63263 2.55473 4.75981 2.6485 4.85357C2.74226 4.94734 2.86944 5.00002 3.00205 5.00002H8.50935C8.64196 5.00002 8.76913 4.94734 8.8629 4.85357C8.95667 4.75981 9.00935 4.63263 9.00935 4.50002C9.00935 4.36741 8.95667 4.24023 8.8629 4.14647C8.76913 4.0527 8.64196 4.00002 8.50935 4.00002H5.5497L5.8697 1.92387C5.88743 1.80556 5.94719 1.6976 6.03803 1.61976C6.12887 1.54192 6.24472 1.49941 6.36435 1.50002H20.8897C20.9608 1.50002 21.031 1.51516 21.0957 1.54442C21.1605 1.57369 21.2183 1.6164 21.2652 1.66973C21.3122 1.72306 21.3472 1.78578 21.368 1.85372C21.3889 1.92165 21.395 1.99324 21.386 2.06372L19.0836 20H12.4693C12.351 19.3009 11.989 18.6663 11.4474 18.2086C10.9058 17.751 10.2196 17.4999 9.51057 17.4999C8.80152 17.4999 8.11537 17.751 7.57377 18.2086C7.03217 18.6663 6.67012 19.3009 6.5518 20H3.66845C3.5963 20.0001 3.525 19.9845 3.45943 19.9544C3.39386 19.9243 3.33556 19.8804 3.28855 19.8257C3.24153 19.771 3.2069 19.7067 3.18704 19.6374C3.16717 19.568 3.16254 19.4952 3.17345 19.4239L4.00935 14H7.0076C7.14021 14 7.26738 13.9473 7.36115 13.8536C7.45492 13.7598 7.5076 13.6326 7.5076 13.5C7.5076 13.3674 7.45492 13.2402 7.36115 13.1465C7.26738 13.0527 7.14021 13 7.0076 13H1.5C1.36739 13 1.24021 13.0527 1.14645 13.1465C1.05268 13.2402 1 13.3674 1 13.5C1 13.6326 1.05268 13.7598 1.14645 13.8536C1.24021 13.9473 1.36739 14 1.5 14H2.9962L2.18405 19.2718C2.15124 19.4857 2.16507 19.7041 2.22461 19.9122C2.28414 20.1202 2.38797 20.313 2.52897 20.4771C2.66997 20.6413 2.84481 20.773 3.04149 20.8633C3.23817 20.9535 3.45205 21.0002 3.66845 21H6.55195C6.67036 21.699 7.03244 22.3336 7.57402 22.7911C8.11559 23.2486 8.80167 23.4997 9.51065 23.4997C10.2196 23.4997 10.9057 23.2486 11.4473 22.7911C11.9889 22.3336 12.3509 21.699 12.4693 21H21.0713C21.1897 21.6991 21.5518 22.3337 22.0934 22.7913C22.635 23.2489 23.3211 23.5 24.0301 23.5C24.7392 23.5 25.4253 23.2489 25.9669 22.7913C26.5085 22.3337 26.8706 21.6991 26.9889 21H28.6689C29.0298 20.9987 29.3783 20.868 29.6511 20.6317C29.9239 20.3954 30.103 20.0692 30.1558 19.7122L30.9843 13.9226C31.0328 13.5814 30.9625 13.2338 30.7852 12.9383ZM9.51075 22.5C9.1153 22.4995 8.72888 22.3817 8.40033 22.1617C8.07178 21.9416 7.81585 21.629 7.66488 21.2635C7.51391 20.898 7.47468 20.496 7.55215 20.1082C7.62962 19.7204 7.82031 19.3643 8.10012 19.0849C8.37993 18.8054 8.7363 18.6152 9.12419 18.5383C9.51208 18.4613 9.91408 18.5011 10.2794 18.6525C10.6447 18.804 10.9569 19.0603 11.1765 19.3891C11.3962 19.718 11.5134 20.1046 11.5134 20.5C11.5124 21.0306 11.3011 21.5392 10.9256 21.9141C10.5502 22.2891 10.0413 22.4998 9.51075 22.5ZM24.0301 22.5C23.6347 22.4995 23.2483 22.3817 22.9197 22.1617C22.5912 21.9416 22.3352 21.629 22.1843 21.2635C22.0333 20.898 21.9941 20.496 22.0715 20.1082C22.149 19.7204 22.3397 19.3643 22.6195 19.0849C22.8993 18.8054 23.2557 18.6152 23.6436 18.5383C24.0315 18.4613 24.4335 18.5011 24.7988 18.6525C25.1641 18.804 25.4763 19.0603 25.6959 19.3891C25.9156 19.718 26.0328 20.1046 26.0328 20.5C26.0319 21.0306 25.8205 21.5392 25.445 21.9141C25.0696 22.2891 24.5608 22.4998 24.0301 22.5ZM29.1643 19.5708C29.1468 19.6897 29.0872 19.7984 28.9964 19.8772C28.9056 19.9559 28.7896 19.9995 28.6693 20H26.9893C26.8712 19.3007 26.5092 18.6658 25.9676 18.2079C25.4259 17.75 24.7396 17.4988 24.0303 17.4988C23.3211 17.4988 22.6348 17.75 22.0931 18.2079C21.5514 18.6658 21.1895 19.3007 21.0713 20H20.0932L21.5053 9.00002H26.9676C27.0541 9.00023 27.1391 9.02268 27.2144 9.06522C27.2897 9.10776 27.3528 9.16895 27.3976 9.24292L29.9269 13.4527C29.9861 13.5511 30.0094 13.6671 29.9929 13.7808L29.1643 19.5708ZM11.0127 13C11.1454 13 11.2725 13.0527 11.3663 13.1465C11.4601 13.2402 11.5127 13.3674 11.5127 13.5C11.5127 13.6326 11.4601 13.7598 11.3663 13.8536C11.2725 13.9473 11.1454 14 11.0127 14H9.01005C8.87744 14 8.75026 13.9473 8.6565 13.8536C8.56273 13.7598 8.51005 13.6326 8.51005 13.5C8.51005 13.3674 8.56273 13.2402 8.6565 13.1465C8.75026 13.0527 8.87744 13 9.01005 13H11.0127ZM12.0143 11H10.512C10.3794 11 10.2523 10.9473 10.1585 10.8536C10.0647 10.7598 10.012 10.6326 10.012 10.5C10.012 10.3674 10.0647 10.2402 10.1585 10.1465C10.2523 10.0527 10.3794 10 10.512 10H12.0143C12.147 10 12.2741 10.0527 12.3679 10.1465C12.4617 10.2402 12.5143 10.3674 12.5143 10.5C12.5143 10.6326 12.4617 10.7598 12.3679 10.8536C12.2741 10.9473 12.147 11 12.0143 11ZM1.5 10.5C1.50011 10.3673 1.55291 10.2401 1.64681 10.1463C1.74071 10.0526 1.868 9.99994 2.0007 10H8.50935C8.64196 10 8.76913 10.0527 8.8629 10.1465C8.95667 10.2402 9.00935 10.3674 9.00935 10.5C9.00935 10.6326 8.95667 10.7598 8.8629 10.8536C8.76913 10.9473 8.64196 11 8.50935 11H2.0007C1.868 11.0001 1.74071 10.9475 1.64681 10.8537C1.55291 10.7599 1.50011 10.6327 1.5 10.5ZM8.0087 7.00002H12.5147C12.6474 7.00002 12.7745 7.0527 12.8683 7.14647C12.9621 7.24023 13.0147 7.36741 13.0147 7.50002C13.0147 7.63263 12.9621 7.7598 12.8683 7.85357C12.7745 7.94734 12.6474 8.00002 12.5147 8.00002H8.0087C7.87609 8.00002 7.74891 7.94734 7.65515 7.85357C7.56138 7.7598 7.5087 7.63263 7.5087 7.50002C7.5087 7.36741 7.56138 7.24023 7.65515 7.14647C7.74891 7.0527 7.87609 7.00002 8.0087 7.00002ZM2.0007 7.50002C2.00079 7.36733 2.05359 7.24011 2.14748 7.14634C2.24137 7.05257 2.36866 6.99994 2.50135 7.00002H6.00605C6.13866 7.00002 6.26583 7.0527 6.3596 7.14647C6.45337 7.24023 6.50605 7.36741 6.50605 7.50002C6.50605 7.63263 6.45337 7.7598 6.3596 7.85357C6.26583 7.94734 6.13866 8.00002 6.00605 8.00002H2.50135C2.36866 8.0001 2.24137 7.94747 2.14748 7.8537C2.05359 7.75993 2.00079 7.63271 2.0007 7.50002ZM10.512 5.00002C10.3794 5.00002 10.2523 4.94734 10.1585 4.85357C10.0647 4.75981 10.012 4.63263 10.012 4.50002C10.012 4.36741 10.0647 4.24023 10.1585 4.14647C10.2523 4.0527 10.3794 4.00002 10.512 4.00002H13.5161C13.6487 4.00002 13.7759 4.0527 13.8697 4.14647C13.9634 4.24023 14.0161 4.36741 14.0161 4.50002C14.0161 4.63263 13.9634 4.75981 13.8697 4.85357C13.7759 4.94734 13.6487 5.00002 13.5161 5.00002H10.512ZM26.4675 9.75197C26.4236 9.67541 26.3603 9.6118 26.284 9.56755C26.2077 9.52331 26.121 9.50002 26.0328 9.50002H23.5293C23.4089 9.49989 23.2924 9.54323 23.2014 9.62208C23.1103 9.70092 23.0507 9.80998 23.0336 9.92922L22.5329 13.4292C22.5227 13.5002 22.528 13.5726 22.5483 13.6414C22.5685 13.7102 22.6034 13.7738 22.6504 13.8279C22.6974 13.8821 22.7556 13.9255 22.8209 13.9552C22.8862 13.9849 22.9571 14.0002 23.0288 14H28.0355C28.1231 14.0001 28.2092 13.9772 28.2852 13.9335C28.3612 13.8898 28.4243 13.827 28.4683 13.7512C28.5124 13.6755 28.5357 13.5895 28.536 13.5018C28.5363 13.4142 28.5136 13.328 28.4701 13.252L26.4675 9.75197ZM23.6062 13L23.9636 10.5H25.7424L27.1724 13H23.6062Z" fill="#231F20" stroke="#231F20" stroke-width="0.5"/>
</svg>
