<svg width="32" height="25" viewBox="0 0 32 25" fill="none" xmlns="http://www.w3.org/2000/svg">
<path d="M30.9137 11.782L28.7347 10.839L26.8843 7.23824C26.3842 6.25232 25.3697 5.63791 24.2623 5.64505H21.076V4.74487C21.076 3.11596 19.7757 1.78711 18.1468 1.78711H2.91508C1.28617 1.78711 0.000190096 3.1231 0.000190096 4.74487V18.5334C-0.0140986 19.5265 0.778922 20.341 1.77198 20.3552C1.77913 20.3552 1.78627 20.3552 1.80056 20.3552H2.17921C2.17921 20.4267 2.17207 20.4553 2.17207 20.4981C2.16492 22.5414 3.81526 24.206 5.85854 24.2132C7.90182 24.2203 9.56645 22.57 9.5736 20.5267C9.5736 20.5124 9.5736 20.5053 9.5736 20.491C9.5736 20.441 9.5736 20.4195 9.56645 20.3481H21.8761C21.8761 20.4195 21.8761 20.4481 21.8761 20.491C21.869 22.5343 23.5193 24.1989 25.5626 24.206C27.6059 24.2132 29.2705 22.5628 29.2777 20.5196C29.2777 20.5053 29.2777 20.4981 29.2777 20.4838C29.2777 20.4338 29.2777 20.4124 29.2777 20.341H30.1993C31.1923 20.341 31.9997 19.5336 31.9997 18.5406C31.9997 18.5334 31.9997 18.5263 31.9997 18.512V13.4395C32.0139 12.7394 31.5853 12.075 30.9137 11.782ZM5.87998 22.7915C4.62257 22.7915 3.60808 21.777 3.60808 20.5196C3.60808 19.2622 4.62257 18.2477 5.87998 18.2477C7.13738 18.2477 8.15187 19.2622 8.15187 20.5196C8.15187 21.7698 7.13023 22.7915 5.87998 22.7915ZM19.6471 18.9407H9.23067C8.63054 17.6333 7.31599 16.7974 5.87998 16.8045C4.43682 16.7974 3.12941 17.6261 2.52928 18.9407H1.80056C1.57909 18.9407 1.42906 18.7692 1.42906 18.5477V14.8684H19.6471V18.9407ZM19.6471 4.75201V13.4395H1.42906V4.75201C1.42906 3.91612 2.07919 3.22312 2.91508 3.22312H18.1468C18.9827 3.23027 19.6542 3.91612 19.6471 4.74487V4.75201ZM21.076 7.08107H24.2623C24.8267 7.07392 25.3554 7.38113 25.6198 7.88838L27.0486 10.6532H21.076V7.08107V7.08107ZM25.584 22.7915C24.3266 22.7915 23.3121 21.777 23.3121 20.5196C23.3121 19.2622 24.3266 18.2477 25.584 18.2477C26.8414 18.2477 27.8559 19.2622 27.8559 20.5196C27.8559 21.7698 26.8414 22.7915 25.584 22.7915ZM30.5779 18.5477C30.5779 18.7692 30.4279 18.9407 30.2064 18.9407H28.9347C28.0703 17.0903 25.8698 16.2901 24.0194 17.1546C23.2336 17.5189 22.5977 18.1548 22.2334 18.9407H21.076V12.0821H28.0774L30.3493 13.0823C30.4922 13.1538 30.5851 13.3109 30.5779 13.4681V18.5477Z" fill="#7A7A9D" stroke="#FEEEEA" stroke-width="0.25"/>
<path d="M6.91 6.13398H4.36V10.334H5.32V8.79198H6.88V7.86798H5.32V7.05798H6.91V6.13398ZM10.7172 10.334L9.82319 8.79198C10.2852 8.55198 10.5972 8.08398 10.5972 7.57398C10.5972 7.17198 10.4592 6.83598 10.1772 6.55398C9.89519 6.27198 9.55919 6.13398 9.15719 6.13398H7.47719V10.334H8.43719V8.95398H8.89319L9.68519 10.334H10.7172ZM9.15719 7.03398C9.42119 7.03398 9.63719 7.26798 9.63719 7.57398C9.63719 7.87998 9.42119 8.11398 9.15719 8.11398H8.43719V7.03398H9.15719ZM12.1286 8.66598H13.6286V7.75398H12.1286V7.05798H13.7786V6.13398H11.1686V10.334H13.8086V9.40998H12.1286V8.66598ZM15.3102 8.66598H16.8102V7.75398H15.3102V7.05798H16.9602V6.13398H14.3502V10.334H16.9902V9.40998H15.3102V8.66598Z" fill="#7A7A9D"/>
</svg>
