<svg width="18" height="24" viewBox="0 0 18 24" fill="none" xmlns="http://www.w3.org/2000/svg">
<path d="M17.0246 8.4C17.0246 3.975 13.4246 0.375 8.99961 0.375C4.57461 0.375 0.974609 3.975 0.974609 8.4C0.976132 10.0083 1.45998 11.5793 2.36362 12.9097C3.26727 14.2402 4.54917 15.2691 6.04367 15.8634L5.92742 16.8103C5.92091 16.863 5.92568 16.9165 5.94141 16.9673C5.95714 17.018 5.98347 17.0648 6.01866 17.1046C6.05385 17.1444 6.0971 17.1763 6.14553 17.1981C6.19397 17.22 6.24648 17.2313 6.29961 17.2313H6.43273L6.7557 19.1344H5.61523C5.55957 19.1343 5.5046 19.1467 5.45431 19.1706C5.40402 19.1944 5.35968 19.2292 5.32449 19.2723C5.28931 19.3155 5.26416 19.3659 5.25088 19.4199C5.23761 19.474 5.23653 19.5303 5.24773 19.5848L6.01648 23.3255C6.03393 23.4101 6.08001 23.486 6.14695 23.5406C6.2139 23.5952 6.29762 23.625 6.38398 23.625H11.6152C11.7016 23.625 11.7853 23.5952 11.8523 23.5406C11.9192 23.486 11.9653 23.4101 11.9827 23.3255L12.7515 19.5848C12.7627 19.5303 12.7616 19.474 12.7483 19.4199C12.7351 19.3659 12.7099 19.3155 12.6747 19.2723C12.6395 19.2292 12.5952 19.1944 12.5449 19.1706C12.4946 19.1467 12.4396 19.1343 12.384 19.1344H11.2435L11.5665 17.2313H11.6996C11.7527 17.2313 11.8053 17.22 11.8537 17.1981C11.9021 17.1763 11.9454 17.1444 11.9806 17.1046C12.0157 17.0648 12.0421 17.018 12.0578 16.9673C12.0735 16.9165 12.0783 16.863 12.0718 16.8103L11.9555 15.8634C13.45 15.2691 14.732 14.2402 15.6356 12.9097C16.5392 11.5793 17.0231 10.0083 17.0246 8.4ZM8.99961 1.125C9.9568 1.125 10.8751 1.85438 11.5862 3.17906C12.3362 4.57734 12.7496 6.44484 12.7496 8.4375C12.7496 11.5444 11.6921 14.3723 10.1673 15.375H7.83195C6.30711 14.3723 5.24961 11.5444 5.24961 8.4375C5.24961 6.44484 5.66305 4.57734 6.41305 3.17906C7.12414 1.85438 8.04242 1.125 8.99961 1.125ZM6.57711 15.262C5.15876 14.7592 3.93084 13.8297 3.06198 12.601C2.19313 11.3724 1.72595 9.90483 1.72461 8.4C1.72461 5.19984 3.80164 2.47594 6.67836 1.50469C6.31417 1.90278 6.003 2.34631 5.75258 2.82422C4.94445 4.32984 4.49961 6.32344 4.49961 8.4375C4.49961 11.2613 5.3068 13.8197 6.58508 15.2653C6.58227 15.2644 6.57992 15.263 6.57711 15.262ZM11.9241 19.8844L11.3096 22.875H6.68961L6.07508 19.8844H11.9241ZM7.19352 17.2313H8.62461V19.1344H7.51648L7.19352 17.2313ZM9.37461 19.1344V17.2313H10.8057L10.4827 19.1344H9.37461ZM6.72336 16.4813L6.76742 16.125H11.2318L11.2759 16.4813H6.72336ZM11.4221 15.262C11.4193 15.263 11.417 15.2644 11.4141 15.2653C12.6924 13.8197 13.4996 11.2613 13.4996 8.4375C13.4996 6.32344 13.0548 4.32984 12.2466 2.82422C11.9962 2.34631 11.685 1.90278 11.3209 1.50469C14.1976 2.47594 16.2746 5.19984 16.2746 8.4C16.2733 9.90483 15.8061 11.3724 14.9372 12.601C14.0684 13.8297 12.8405 14.7592 11.4221 15.262Z" fill="#11006F" stroke="#11006F" stroke-width="0.5"/>
</svg>
