<svg width="24" height="20" viewBox="0 0 24 20" fill="none" xmlns="http://www.w3.org/2000/svg">
<path d="M23.643 2.93757C22.808 3.30757 21.911 3.55757 20.968 3.67057C21.941 3.08836 22.669 2.17203 23.016 1.09257C22.1019 1.63555 21.1014 2.01776 20.058 2.22257C19.3564 1.47343 18.4271 0.976891 17.4143 0.810039C16.4016 0.643187 15.3621 0.815357 14.4572 1.29982C13.5524 1.78428 12.8328 2.55393 12.4102 3.48927C11.9875 4.42461 11.8855 5.47332 12.12 6.47257C10.2677 6.37956 8.45564 5.89811 6.80144 5.05947C5.14723 4.22083 3.68785 3.04373 2.51801 1.60457C2.11801 2.29457 1.88801 3.09457 1.88801 3.94657C1.88757 4.71356 2.07644 5.46881 2.43789 6.1453C2.79934 6.82179 3.32217 7.3986 3.96001 7.82457C3.22029 7.80103 2.49688 7.60115 1.85001 7.24157V7.30156C1.84994 8.37731 2.22204 9.41994 2.90319 10.2526C3.58434 11.0852 4.53258 11.6565 5.58701 11.8696C4.9008 12.0553 4.18135 12.0826 3.48301 11.9496C3.78051 12.8752 4.36001 13.6846 5.14038 14.2645C5.92075 14.8444 6.86293 15.1657 7.83501 15.1836C6.18484 16.479 4.1469 17.1817 2.04901 17.1786C1.67739 17.1787 1.30609 17.157 0.937012 17.1136C3.06649 18.4827 5.54535 19.2094 8.07701 19.2066C16.647 19.2066 21.332 12.1086 21.332 5.95257C21.332 5.75257 21.327 5.55056 21.318 5.35056C22.2293 4.69154 23.0159 3.87546 23.641 2.94057L23.643 2.93757Z" fill="#7A7A9D"/>
</svg>
