<svg width="24" height="16" viewBox="0 0 24 16" fill="none" xmlns="http://www.w3.org/2000/svg">
<path d="M23.3077 5.92259C23.6901 5.92259 24 5.61261 24 5.23029V1.538C24 1.15564 23.69 0.845703 23.3077 0.845703H0.692297C0.309984 0.845703 0 1.15564 0 1.538V5.23029C0 5.61265 0.309984 5.92259 0.692297 5.92259C1.8375 5.92259 2.76923 6.85428 2.76923 7.99953C2.76923 9.14477 1.83755 10.0765 0.692297 10.0765C0.309984 10.0765 0 10.3864 0 10.7688V14.4611C0 14.8434 0.309984 15.1533 0.692297 15.1533H23.3077C23.6901 15.1533 24 14.8434 24 14.4611V10.7688C24 10.3864 23.69 10.0765 23.3077 10.0765C22.1625 10.0765 21.2308 9.14477 21.2308 7.99953C21.2308 6.85428 22.1625 5.92259 23.3077 5.92259ZM22.6154 11.3915V13.7688H8.07694V11.6918C8.07694 11.3095 7.76695 10.9995 7.38464 10.9995C7.00233 10.9995 6.69234 11.3095 6.69234 11.6918V13.7688H1.38459V11.3915C2.96264 11.0698 4.15383 9.67113 4.15383 7.99953C4.15383 6.32792 2.96264 4.92917 1.38459 4.60756V2.2303H6.6923V4.30723C6.6923 4.68959 7.00228 4.99953 7.38459 4.99953C7.76691 4.99953 8.07689 4.68954 8.07689 4.30723V2.2303H22.6154V4.60756C21.0373 4.92922 19.8461 6.32792 19.8461 7.99953C19.8461 9.67113 21.0374 11.0699 22.6154 11.3915Z" fill="#FCAF17"/>
<path d="M7.38468 6.38477C7.00232 6.38477 6.69238 6.69475 6.69238 7.07706V8.92323C6.69238 9.30559 7.00237 9.61553 7.38468 9.61553C7.76699 9.61553 8.07698 9.30555 8.07698 8.92323V7.07706C8.07702 6.69475 7.76704 6.38477 7.38468 6.38477Z" fill="#FCAF17"/>
</svg>
