<svg width="32" height="20" viewBox="0 0 32 20" fill="none" xmlns="http://www.w3.org/2000/svg">
<path d="M30.5292 0.981445H1.47075C0.917375 0.981445 0.46875 1.43007 0.46875 1.98345V6.39389C0.46875 6.64645 0.592937 6.88651 0.80775 7.01932C1.80625 7.63695 2.47281 8.73914 2.47281 9.99958C2.47281 11.26 1.80625 12.3622 0.80775 12.9798C0.592937 13.1126 0.46875 13.3527 0.46875 13.6053V18.0157C0.46875 18.5691 0.917375 19.0177 1.47075 19.0177H30.5292C31.0826 19.0177 31.5312 18.5691 31.5312 18.0157V1.98345C31.5312 1.43001 31.0826 0.981445 30.5292 0.981445Z" fill="#F38300"/>
<path d="M29.5277 17.5146H9.48733C9.21064 17.5146 8.98633 17.2903 8.98633 17.0136V2.98537C8.98633 2.70869 9.21064 2.48438 9.48733 2.48438H29.5277C29.8043 2.48438 30.0287 2.70869 30.0287 2.98537V17.0136C30.0287 17.2903 29.8044 17.5146 29.5277 17.5146Z" fill="#FFBA17"/>
<path d="M19.0917 13.4616L16.4948 15.092C15.9225 15.4513 15.2043 14.9295 15.3692 14.2741L16.1173 11.3006L13.7643 9.33464C13.2457 8.90139 13.52 8.05708 14.1942 8.01139L17.2534 7.80395L18.396 4.95858C18.6478 4.33152 19.5356 4.33152 19.7874 4.95858L20.93 7.80395L23.9892 8.01139C24.6634 8.05708 24.9378 8.90139 24.4191 9.33464L22.0661 11.3006L22.8142 14.2741C22.9791 14.9295 22.2609 15.4513 21.6886 15.092L19.0917 13.4616Z" fill="#F8F8F8"/>
<path d="M30.5292 0.512695H1.47075C0.659812 0.512695 0 1.17251 0 1.98351V6.39395C0 6.81151 0.215 7.20395 0.561188 7.41808C1.46469 7.97689 2.00406 8.94195 2.00406 9.99964C2.00406 11.0573 1.46469 12.0224 0.561125 12.5812C0.215 12.7953 0 13.1878 0 13.6053V18.0158C0 18.8268 0.659812 19.4865 1.47075 19.4865H30.5292C31.3403 19.4865 32 18.8267 32 18.0158V1.98351C32 1.17251 31.3402 0.512695 30.5292 0.512695ZM31.0625 18.0158C31.0625 18.3098 30.8233 18.549 30.5292 18.549H7.45062V18.5168C7.45062 18.2579 7.24081 18.048 6.98187 18.048C6.72294 18.048 6.51312 18.2579 6.51312 18.5168V18.549H1.47075C1.17669 18.549 0.9375 18.3098 0.9375 18.0158V13.6053C0.9375 13.51 0.982312 13.4231 1.05431 13.3785C2.236 12.6476 2.9415 11.3845 2.9415 9.99964C2.9415 8.61476 2.236 7.35164 1.05431 6.62076C0.982312 6.57614 0.9375 6.48926 0.9375 6.39389V1.98345C0.9375 1.68938 1.17669 1.4502 1.47075 1.4502H6.51312V1.48245C6.51312 1.74132 6.72294 1.9512 6.98187 1.9512C7.24081 1.9512 7.45062 1.74132 7.45062 1.48245V1.4502H30.5292C30.8233 1.4502 31.0625 1.68945 31.0625 1.98345V18.0158Z" fill="black"/>
<path d="M6.98242 9.03027C6.72348 9.03027 6.51367 9.24015 6.51367 9.49902V10.501C6.51367 10.7599 6.72348 10.9698 6.98242 10.9698C7.24136 10.9698 7.45117 10.7599 7.45117 10.501V9.49902C7.45117 9.24015 7.24136 9.03027 6.98242 9.03027Z" fill="black"/>
<path d="M6.98242 3.01758C6.72348 3.01758 6.51367 3.22745 6.51367 3.48633V4.48833C6.51367 4.7472 6.72348 4.95708 6.98242 4.95708C7.24136 4.95708 7.45117 4.7472 7.45117 4.48833V3.48633C7.45117 3.22733 7.24136 3.01758 6.98242 3.01758Z" fill="black"/>
<path d="M6.98242 6.02344C6.72348 6.02344 6.51367 6.23331 6.51367 6.49219V7.49419C6.51367 7.75306 6.72348 7.96294 6.98242 7.96294C7.24136 7.96294 7.45117 7.75306 7.45117 7.49419V6.49219C7.45117 6.23331 7.24136 6.02344 6.98242 6.02344Z" fill="black"/>
<path d="M6.98242 12.0361C6.72348 12.0361 6.51367 12.246 6.51367 12.5049V13.5069C6.51367 13.7658 6.72348 13.9756 6.98242 13.9756C7.24136 13.9756 7.45117 13.7658 7.45117 13.5069V12.5049C7.45117 12.2459 7.24136 12.0361 6.98242 12.0361Z" fill="black"/>
<path d="M6.98242 15.042C6.72348 15.042 6.51367 15.2519 6.51367 15.5107V16.5127C6.51367 16.7716 6.72348 16.9815 6.98242 16.9815C7.24136 16.9815 7.45117 16.7716 7.45117 16.5127V15.5107C7.45117 15.2519 7.24136 15.042 6.98242 15.042Z" fill="black"/>
<path d="M24.0225 7.54366L21.2569 7.35616L20.224 4.78391C20.0375 4.31953 19.5937 4.01953 19.0933 4.01953C18.5928 4.01953 18.1491 4.31959 17.9626 4.78391L16.9297 7.35616L14.1641 7.54366C13.6649 7.57753 13.2424 7.90691 13.0878 8.38278C12.9331 8.85872 13.0813 9.37353 13.4653 9.69434L15.5925 11.4717L14.9162 14.1598C14.7941 14.6451 14.9768 15.1487 15.3816 15.4428C15.7864 15.7368 16.3218 15.755 16.7456 15.489L19.0933 14.0151L21.4409 15.4889C21.6407 15.6143 21.8652 15.6766 22.0892 15.6766C22.3404 15.6766 22.5909 15.5983 22.8049 15.4428C23.2098 15.1487 23.3924 14.645 23.2704 14.1598L22.5941 11.4716L24.7212 9.69434C25.1053 9.37353 25.2535 8.85872 25.0989 8.38284C24.9442 7.90684 24.5217 7.57741 24.0225 7.54366ZM24.1201 8.97484L21.7672 10.9408C21.6291 11.0562 21.5693 11.2404 21.6131 11.4149L22.3612 14.3885C22.403 14.5547 22.3001 14.6507 22.2539 14.6843C22.2076 14.7178 22.0844 14.786 21.9394 14.6949L19.3425 13.0646C19.1901 12.969 18.9964 12.969 18.8441 13.0646L16.2471 14.6949C16.1019 14.7861 15.9788 14.7178 15.9326 14.6843C15.8864 14.6507 15.7835 14.5547 15.8253 14.3885L16.5734 11.415C16.6173 11.2405 16.5575 11.0562 16.4194 10.9409L14.0664 8.97491C13.9349 8.86497 13.9617 8.72678 13.9793 8.67247C13.9969 8.61816 14.0564 8.49059 14.2275 8.47903L17.2867 8.27159C17.4662 8.25941 17.6229 8.14553 17.6899 7.97859L18.8326 5.13322C18.8964 4.97422 19.0361 4.95703 19.0932 4.95703C19.1503 4.95703 19.2901 4.97422 19.3539 5.13328L20.4965 7.97859C20.5636 8.14553 20.7203 8.25941 20.8998 8.27159L23.9589 8.47903C24.1299 8.49066 24.1894 8.61822 24.2072 8.67253C24.2249 8.72684 24.2517 8.86491 24.1201 8.97484Z" fill="black"/>
</svg>
