<svg width="32" height="26" viewBox="0 0 32 26" fill="none" xmlns="http://www.w3.org/2000/svg">
<path d="M30.1235 3.17689V22.8234C30.1235 23.9987 29.1707 24.9515 27.9954 24.9515H2.63587C1.46056 24.9515 0.507812 23.9987 0.507812 22.8234V3.17689C0.507812 2.00158 1.46056 1.04883 2.63587 1.04883H27.9954C29.1707 1.04883 30.1235 2.00158 30.1235 3.17689Z" fill="white" stroke="#231F20" stroke-width="0.5"/>
<path d="M31.4925 12.1722V13.8283C31.4925 14.4891 31.0363 15.0624 30.3924 15.2108L25.2165 16.4038C24.7057 16.5215 24.1716 16.348 23.8276 15.9526L22.0691 13.9315C21.6046 13.3976 21.6046 12.603 22.0691 12.069L23.8276 10.048C24.1717 9.6526 24.7057 9.4791 25.2166 9.59685L30.3925 10.7898C31.0363 10.9382 31.4925 11.5115 31.4925 12.1722Z" fill="#FFBA17" stroke="#231F20" stroke-width="0.5"/>
<path d="M30.6228 10.3404V3.17664C30.6228 1.72764 29.4441 0.548828 27.9952 0.548828H2.63538C1.18637 0.548828 0.0078125 1.7277 0.0078125 3.17664V22.823C0.0078125 24.272 1.18644 25.4508 2.63538 25.4508H27.9952C29.4442 25.4508 30.6228 24.272 30.6228 22.823V15.6593C31.4332 15.4169 31.9917 14.6845 31.9917 13.8278V12.1718C31.9917 11.3151 31.4332 10.5828 30.6228 10.3404ZM27.9952 24.4513H2.63538C1.73787 24.4513 1.00731 23.7208 1.00731 22.823V3.17664C1.00731 2.27889 1.73787 1.54833 2.63538 1.54833H27.9952C28.8927 1.54833 29.6233 2.27889 29.6233 3.17664V10.0992L25.3281 9.1092C24.6346 8.94889 23.9167 9.18389 23.4496 9.71952L21.6918 11.7407C21.0671 12.4586 21.0671 13.5411 21.6913 14.259L23.4501 16.2804C23.9071 16.8053 24.6196 17.0526 25.3281 16.8905L29.6233 15.9005V22.823C29.6233 23.7208 28.8927 24.4513 27.9952 24.4513ZM30.9922 13.8278C30.9922 14.2585 30.6994 14.6267 30.2796 14.7233L25.1035 15.9163C24.7721 15.9925 24.4271 15.881 24.2041 15.6243L22.4452 13.6031C22.146 13.2593 22.146 12.7405 22.4457 12.3966L24.2036 10.3757C24.4258 10.1205 24.7699 10.0065 25.1035 10.0834L30.2796 11.2764C30.6993 11.373 30.9922 11.7413 30.9922 12.172V13.8278Z" fill="#231F20" stroke="#231F20" stroke-width="0.5"/>
<path d="M8.77311 17.2402H4.76342C4.48717 17.2402 4.26367 17.464 4.26367 17.74C4.26367 18.016 4.48717 18.2397 4.76342 18.2397H8.77311C9.04936 18.2397 9.27286 18.016 9.27286 17.74C9.27286 17.464 9.04936 17.2402 8.77311 17.2402Z" fill="#231F20" stroke="#231F20" stroke-width="0.5"/>
<path d="M8.77311 20.1953H4.76342C4.48717 20.1953 4.26367 20.4191 4.26367 20.6951C4.26367 20.9711 4.48717 21.1948 4.76342 21.1948H8.77311C9.04936 21.1948 9.27286 20.9711 9.27286 20.6951C9.27286 20.4191 9.04936 20.1953 8.77311 20.1953Z" fill="#231F20" stroke="#231F20" stroke-width="0.5"/>
<path d="M25.2369 12.5H24.8201C24.5438 12.5 24.3203 12.7238 24.3203 12.9998C24.3203 13.2758 24.5438 13.4995 24.8201 13.4995H25.2369C25.5131 13.4995 25.7366 13.2758 25.7366 12.9998C25.7366 12.7238 25.5131 12.5 25.2369 12.5Z" fill="#231F20" stroke="#231F20" stroke-width="0.5"/>
</svg>
