<svg width="74" height="35" viewBox="0 0 74 35" fill="none" xmlns="http://www.w3.org/2000/svg">
<path d="M27.4161 21.7593C26.564 21.7611 25.7296 21.5144 25.0134 21.049C24.2973 20.5835 23.73 19.9192 23.38 19.136C23.0299 18.3528 22.9121 17.4843 23.0407 16.6352C23.1693 15.786 23.5388 14.9925 24.1047 14.3503C24.6705 13.7081 25.4086 13.2446 26.2299 13.0158C27.0512 12.7869 27.9206 12.8024 28.7333 13.0605C29.5461 13.3185 30.2674 13.808 30.8104 14.4701C31.3533 15.1321 31.6947 15.9383 31.7934 16.7915H36.2283C36.0952 14.4747 35.0716 12.3015 33.3748 10.7332C31.6779 9.16501 29.4415 8.3253 27.1405 8.39241C24.8394 8.45951 22.6549 9.42816 21.0508 11.0927C19.4468 12.7572 18.5495 14.9864 18.5495 17.3071C18.5495 19.6277 19.4468 21.857 21.0508 23.5215C22.6549 25.1859 24.8394 26.1546 27.1405 26.2217C29.4415 26.2888 31.6779 25.4491 33.3748 23.8809C35.0716 22.3126 36.0952 20.1394 36.2283 17.8226H31.8095C31.684 18.908 31.1669 19.9089 30.3568 20.6348C29.5466 21.3607 28.5 21.7609 27.4161 21.7593Z" fill="#2A2A86"/>
<path d="M12.8832 8.90625V17.6504C12.8832 19.9381 10.8673 21.7915 8.59801 21.7915C6.3287 21.7915 4.2944 19.9311 4.2944 17.6504V8.90625H0V17.6504C-4.0552e-08 18.7886 0.222411 19.9156 0.654529 20.967C1.08665 22.0185 1.72001 22.9738 2.51844 23.7785C3.31687 24.5832 4.26472 25.2214 5.30787 25.6567C6.35101 26.0921 7.46901 26.316 8.59801 26.3157C10.2361 26.3157 11.4963 25.8953 12.8832 24.6156V26.3412C12.8832 28.6289 11.0954 30.4822 8.59801 30.4822C6.10062 30.4822 4.117 28.6242 4.117 26.3412H0C0.0369271 28.6151 0.958904 30.7833 2.56711 32.3782C4.17531 33.9731 6.3409 34.8669 8.59685 34.8669C10.8528 34.8669 13.0184 33.9731 14.6266 32.3782C16.2348 30.7833 17.1568 28.6151 17.1937 26.3412V8.92251L12.8832 8.90625Z" fill="#2A2A86"/>
<path d="M69.6895 8.90625V17.6504C69.6895 19.9381 67.6736 21.7915 65.4043 21.7915C63.135 21.7915 61.1007 19.9335 61.1007 17.6504V8.90625H56.8064V17.6504C56.8064 18.7886 57.0288 19.9156 57.4609 20.967C57.893 22.0185 58.5264 22.9738 59.3248 23.7785C60.1232 24.5832 61.0711 25.2214 62.1142 25.6567C63.1573 26.0921 64.2753 26.316 65.4043 26.3157C67.0424 26.3157 68.3026 25.8953 69.6895 24.6156V26.3412C69.6895 28.6289 67.9017 30.4822 65.4043 30.4822C62.907 30.4822 60.9233 28.6242 60.9233 26.3412H56.8064C56.8433 28.6151 57.7653 30.7833 59.3735 32.3782C60.9817 33.9731 63.1472 34.8669 65.4032 34.8669C67.6591 34.8669 69.8247 33.9731 71.4329 32.3782C73.0411 30.7833 73.9631 28.6151 74 26.3412V8.92251L69.6895 8.90625Z" fill="#FCAF17"/>
<path d="M50.7383 0V9.91938C49.4245 8.94409 47.8382 8.41319 46.2066 8.40279C41.5989 8.40279 37.8528 12.1188 37.5948 16.794H42.009C42.1392 15.6604 42.6945 14.62 43.5611 13.8858C44.4277 13.1516 45.5399 12.7793 46.67 12.845C47.8001 12.9108 48.8625 13.4097 49.6395 14.2395C50.4165 15.0693 50.8494 16.1673 50.8494 17.3084C50.8494 18.4495 50.4165 19.5475 49.6395 20.3773C48.8625 21.2071 47.8001 21.706 46.67 21.7718C45.5399 21.8375 44.4277 21.4652 43.5611 20.731C42.6945 19.9968 42.1392 18.9564 42.009 17.8228H37.5948C37.8551 22.5003 41.6104 26.2117 46.2066 26.2117C47.8511 26.1819 49.4458 25.6382 50.7706 24.6556L51.3972 26.0073H55.0627V0H50.7383Z" fill="#FCAF17"/>
</svg>
