<svg width="16" height="16" viewBox="0 0 16 16" fill="none" xmlns="http://www.w3.org/2000/svg">
<g clip-path="url(#clip0_10443_7203)">
<path d="M8 16C3.5816 16 0 12.4184 0 8C0 3.5816 3.5816 0 8 0C12.4184 0 16 3.5816 16 8C16 12.4184 12.4184 16 8 16ZM8 14.4C9.69739 14.4 11.3253 13.7257 12.5255 12.5255C13.7257 11.3253 14.4 9.69739 14.4 8C14.4 6.30261 13.7257 4.67475 12.5255 3.47452C11.3253 2.27428 9.69739 1.6 8 1.6C6.30261 1.6 4.67475 2.27428 3.47452 3.47452C2.27428 4.67475 1.6 6.30261 1.6 8C1.6 9.69739 2.27428 11.3253 3.47452 12.5255C4.67475 13.7257 6.30261 14.4 8 14.4ZM8 6.4C8.21217 6.4 8.41566 6.48429 8.56569 6.63432C8.71571 6.78434 8.8 6.98783 8.8 7.2V11.2C8.8 11.4122 8.71571 11.6157 8.56569 11.7657C8.41566 11.9157 8.21217 12 8 12C7.78783 12 7.58434 11.9157 7.43431 11.7657C7.28429 11.6157 7.2 11.4122 7.2 11.2V7.2C7.2 6.98783 7.28429 6.78434 7.43431 6.63432C7.58434 6.48429 7.78783 6.4 8 6.4ZM8 5.6C7.78783 5.6 7.58434 5.51571 7.43431 5.36569C7.28429 5.21566 7.2 5.01217 7.2 4.8C7.2 4.58783 7.28429 4.38434 7.43431 4.23431C7.58434 4.08429 7.78783 4 8 4C8.21217 4 8.41566 4.08429 8.56569 4.23431C8.71571 4.38434 8.8 4.58783 8.8 4.8C8.8 5.01217 8.71571 5.21566 8.56569 5.36569C8.41566 5.51571 8.21217 5.6 8 5.6Z" fill="#7A7A9D" stroke="white" stroke-width="0.5"/>
</g>
<defs>
<clipPath id="clip0_10443_7203">
<rect width="16" height="16" fill="white"/>
</clipPath>
</defs>
</svg>
