<svg width="49" height="23" viewBox="0 0 49 23" fill="none" xmlns="http://www.w3.org/2000/svg">
<path d="M18.1538 14.2981C17.5896 14.2993 17.0371 14.1372 16.5629 13.8313C16.0887 13.5255 15.7131 13.0889 15.4813 12.5742C15.2495 12.0596 15.1715 11.4889 15.2566 10.9309C15.3418 10.3729 15.5864 9.8514 15.9611 9.42938C16.3358 9.00736 16.8246 8.70279 17.3684 8.55239C17.9122 8.40199 18.4879 8.41219 19.0261 8.58176C19.5642 8.75133 20.0419 9.07302 20.4014 9.50805C20.7609 9.94309 20.987 10.4729 21.0523 11.0336H23.989C23.9009 9.51111 23.223 8.08299 22.0995 7.05244C20.9759 6.02188 19.495 5.47007 17.9713 5.51417C16.4477 5.55827 15.0012 6.19481 13.939 7.28863C12.8769 8.38244 12.2827 9.84738 12.2827 11.3724C12.2827 12.8974 12.8769 14.3623 13.939 15.4561C15.0012 16.5499 16.4477 17.1865 17.9713 17.2306C19.495 17.2747 20.9759 16.7229 22.0995 15.6923C23.223 14.6618 23.9009 13.2336 23.989 11.7112H21.063C20.9799 12.4244 20.6375 13.0821 20.1011 13.5592C19.5646 14.0362 18.8716 14.2992 18.1538 14.2981V14.2981Z" fill="#2A2A86"/>
<path d="M8.53076 5.85352V11.5997C8.53076 13.103 7.19592 14.3209 5.69327 14.3209C4.19063 14.3209 2.84359 13.0984 2.84359 11.5997V5.85352H0V11.5997C-2.6852e-08 12.3476 0.147272 13.0882 0.433404 13.7792C0.719537 14.4701 1.13892 15.0979 1.66761 15.6267C2.1963 16.1555 2.82394 16.5749 3.51467 16.861C4.2054 17.1471 4.94569 17.2942 5.69327 17.294C6.77793 17.294 7.61239 17.0178 8.53076 16.1768V17.3108C8.53076 18.8141 7.34695 20.032 5.69327 20.032C4.0396 20.032 2.72612 18.811 2.72612 17.3108H0C0.0244517 18.8051 0.63495 20.2299 1.69984 21.2779C2.76474 22.326 4.1987 22.9134 5.69251 22.9134C7.18632 22.9134 8.62029 22.326 9.68518 21.2779C10.7501 20.2299 11.3606 18.8051 11.385 17.3108V5.8642L8.53076 5.85352Z" fill="#2A2A86"/>
<path d="M46.1457 5.85352V11.5997C46.1457 13.103 44.8109 14.3209 43.3083 14.3209C41.8056 14.3209 40.4586 13.1 40.4586 11.5997V5.85352H37.615V11.5997C37.615 12.3476 37.7623 13.0882 38.0484 13.7792C38.3345 14.4701 38.7539 15.0979 39.2826 15.6267C39.8113 16.1555 40.4389 16.5749 41.1296 16.861C41.8204 17.1471 42.5607 17.2942 43.3083 17.294C44.3929 17.294 45.2274 17.0178 46.1457 16.1768V17.3108C46.1457 18.8141 44.9619 20.032 43.3083 20.032C41.6546 20.032 40.3411 18.811 40.3411 17.3108H37.615C37.6394 18.8051 38.2499 20.2299 39.3148 21.2779C40.3797 22.326 41.8137 22.9134 43.3075 22.9134C44.8013 22.9134 46.2353 22.326 47.3001 21.2779C48.365 20.2299 48.9755 18.8051 49 17.3108V5.8642L46.1457 5.85352Z" fill="white"/>
<path d="M33.5969 0V6.51845C32.727 5.87755 31.6766 5.52867 30.5962 5.52183C27.5452 5.52183 25.0647 7.96377 24.8938 11.036H27.8167C27.903 10.2911 28.2707 9.60741 28.8445 9.12495C29.4183 8.64249 30.1548 8.3978 30.9031 8.44101C31.6514 8.48423 32.3549 8.81207 32.8694 9.35739C33.3839 9.9027 33.6705 10.6242 33.6705 11.3741C33.6705 12.124 33.3839 12.8455 32.8694 13.3908C32.3549 13.9361 31.6514 14.2639 30.9031 14.3072C30.1548 14.3504 29.4183 14.1057 28.8445 13.6232C28.2707 13.1408 27.903 12.457 27.8167 11.7121H24.8938C25.0662 14.7859 27.5528 17.2248 30.5962 17.2248C31.6851 17.2053 32.7411 16.848 33.6183 16.2023V16.2023L34.0332 17.0905H36.4604V0H33.5969Z" fill="white"/>
</svg>
