<svg width="72" height="34" viewBox="0 0 72 34" fill="none" xmlns="http://www.w3.org/2000/svg">
<path d="M26.5032 20.9354C25.6872 20.9372 24.8881 20.6998 24.2022 20.252C23.5164 19.8042 22.9731 19.165 22.6379 18.4115C22.3026 17.658 22.1898 16.8224 22.3129 16.0054C22.4361 15.1884 22.79 14.425 23.3319 13.8071C23.8738 13.1892 24.5807 12.7433 25.3672 12.5231C26.1538 12.3029 26.9864 12.3179 27.7648 12.5661C28.5431 12.8144 29.2339 13.2854 29.7539 13.9223C30.2739 14.5592 30.6009 15.3349 30.6954 16.1558H34.9427C34.8153 13.9268 33.8349 11.8359 32.2099 10.327C30.5848 8.81822 28.443 8.01031 26.2393 8.07488C24.0356 8.13945 21.9435 9.0714 20.4073 10.6728C18.8711 12.2743 18.0117 14.4191 18.0117 16.6518C18.0117 18.8846 18.8711 21.0294 20.4073 22.6308C21.9435 24.2323 24.0356 25.1642 26.2393 25.2288C28.443 25.2933 30.5848 24.4854 32.2099 22.9766C33.8349 21.4678 34.8153 19.3769 34.9427 17.1479H30.7108C30.5906 18.1921 30.0954 19.1551 29.3196 19.8535C28.5437 20.5519 27.5413 20.937 26.5032 20.9354V20.9354Z" fill="#343434"/>
<path d="M12.5843 8.56958V16.9825C12.5843 19.1835 10.6537 20.9667 8.48038 20.9667C6.30708 20.9667 4.35882 19.1768 4.35882 16.9825V8.56958H0.246094V16.9825C0.246094 18.0775 0.459096 19.1618 0.872935 20.1735C1.28677 21.1851 1.89334 22.1043 2.65799 22.8784C3.42265 23.6526 4.33041 24.2667 5.32942 24.6855C6.32844 25.1044 7.39914 25.3198 8.48038 25.3195C10.0491 25.3195 11.256 24.9151 12.5843 23.6838V25.3441C12.5843 27.5451 10.8721 29.3282 8.48038 29.3282C6.08864 29.3282 4.18893 27.5406 4.18893 25.3441H0.246094C0.281459 27.5318 1.16443 29.6179 2.70461 31.1524C4.24478 32.6868 6.31875 33.5468 8.47928 33.5468C10.6398 33.5468 12.7138 32.6868 14.2539 31.1524C15.7941 29.6179 16.6771 27.5318 16.7125 25.3441V8.58522L12.5843 8.56958Z" fill="#343434"/>
<path d="M66.9885 8.56958V16.9825C66.9885 19.1835 65.058 20.9667 62.8847 20.9667C60.7114 20.9667 58.7631 19.1791 58.7631 16.9825V8.56958H54.6504V16.9825C54.6504 18.0775 54.8634 19.1618 55.2772 20.1735C55.6911 21.1851 56.2976 22.1043 57.0623 22.8784C57.8269 23.6526 58.7347 24.2667 59.7337 24.6855C60.7327 25.1044 61.8034 25.3198 62.8847 25.3195C64.4534 25.3195 65.6603 24.9151 66.9885 23.6838V25.3441C66.9885 27.5451 65.2764 29.3282 62.8847 29.3282C60.4929 29.3282 58.5932 27.5406 58.5932 25.3441H54.6504C54.6858 27.5318 55.5687 29.6179 57.1089 31.1524C58.6491 32.6868 60.723 33.5468 62.8836 33.5468C65.0441 33.5468 67.118 32.6868 68.6582 31.1524C70.1984 29.6179 71.0813 27.5318 71.1167 25.3441V8.58522L66.9885 8.56958Z" fill="#B5B5B5"/>
<path d="M48.8395 0V9.54361C47.5813 8.60527 46.062 8.09448 44.4995 8.08447C40.0867 8.08447 36.4991 11.6597 36.252 16.1578H40.4794C40.6042 15.0672 41.136 14.0661 41.9659 13.3598C42.7958 12.6534 43.861 12.2952 44.9433 12.3584C46.0256 12.4217 47.043 12.9017 47.7872 13.7001C48.5313 14.4985 48.9459 15.5548 48.9459 16.6527C48.9459 17.7506 48.5313 18.807 47.7872 19.6054C47.043 20.4037 46.0256 20.8837 44.9433 20.947C43.861 21.0103 42.7958 20.652 41.9659 19.9457C41.136 19.2393 40.6042 18.2383 40.4794 17.1477H36.252C36.5013 21.648 40.0977 25.2187 44.4995 25.2187C46.0744 25.1901 47.6016 24.667 48.8704 23.7216V23.7216L49.4705 25.0221H52.9809V0H48.8395Z" fill="#B5B5B5"/>
</svg>
