<svg width="14" height="22" viewBox="0 0 14 22" fill="none" xmlns="http://www.w3.org/2000/svg">
<mask id="path-1-inside-1_10443_7508" fill="white">
<path fill-rule="evenodd" clip-rule="evenodd" d="M3.97211 10.9994L13.1421 20.1693L11.5849 21.7266L0.857728 10.9994L11.5849 0.272169L13.1421 1.82939L3.97211 10.9994Z"/>
</mask>
<path fill-rule="evenodd" clip-rule="evenodd" d="M3.97211 10.9994L13.1421 20.1693L11.5849 21.7266L0.857728 10.9994L11.5849 0.272169L13.1421 1.82939L3.97211 10.9994Z" fill="black"/>
<path d="M13.1421 20.1693L13.3189 20.3461L13.4956 20.1693L13.3189 19.9926L13.1421 20.1693ZM3.97211 10.9994L3.79533 10.8226L3.61856 10.9994L3.79533 11.1761L3.97211 10.9994ZM11.5849 21.7266L11.4081 21.9033L11.5849 22.0801L11.7617 21.9033L11.5849 21.7266ZM0.857728 10.9994L0.680951 10.8226L0.504174 10.9994L0.680951 11.1761L0.857728 10.9994ZM11.5849 0.272169L11.7617 0.0953959L11.5849 -0.0813867L11.4081 0.0953921L11.5849 0.272169ZM13.1421 1.82939L13.3189 2.00616L13.4956 1.82939L13.3189 1.65261L13.1421 1.82939ZM13.3189 19.9926L4.14889 10.8226L3.79533 11.1761L12.9653 20.3461L13.3189 19.9926ZM11.7617 21.9033L13.3189 20.3461L12.9653 19.9926L11.4081 21.5498L11.7617 21.9033ZM0.680951 11.1761L11.4081 21.9033L11.7617 21.5498L1.0345 10.8226L0.680951 11.1761ZM11.4081 0.0953921L0.680951 10.8226L1.0345 11.1761L11.7617 0.448946L11.4081 0.0953921ZM13.3189 1.65261L11.7617 0.0953959L11.4081 0.448942L12.9653 2.00616L13.3189 1.65261ZM4.14889 11.1761L13.3189 2.00616L12.9653 1.65261L3.79533 10.8226L4.14889 11.1761Z" fill="white" mask="url(#path-1-inside-1_10443_7508)"/>
</svg>
